Oxygen-MidLight.ufo
<glyph name="exclam" format="1">
  <advance width="617"/>
  <unicode hex="0021"/>
  <outline>
    <contour>
      <point x="273" y="427" type="line"/>
      <point x="346" y="427" type="line"/>
      <point x="400" y="1388" type="line"/>
      <point x="400" y="1505" type="line"/>
      <point x="213" y="1505" type="line"/>
      <point x="213" y="1388" type="line"/>
    </contour>
    <contour>
      <point x="308" y="-10" type="curve" smooth="yes"/>
      <point x="398" y="-10"/>
      <point x="437" y="54"/>
      <point x="437" y="116" type="curve" smooth="yes"/>
      <point x="437" y="176"/>
      <point x="398" y="240"/>
      <point x="308" y="240" type="curve" smooth="yes"/>
      <point x="220" y="240"/>
      <point x="180" y="176"/>
      <point x="180" y="116" type="curve" smooth="yes"/>
      <point x="180" y="54"/>
      <point x="220" y="-10"/>
    </contour>
  </outline>
</glyph>
<glyph name="quotedbl" format="1">
  <advance width="694"/>
  <unicode hex="0022"/>
  <outline>
    <contour>
      <point x="164" y="1025" type="line"/>
      <point x="250" y="1025" type="line"/>
      <point x="281" y="1512" type="line"/>
      <point x="146" y="1512" type="line"/>
    </contour>
    <contour>
      <point x="437" y="1025" type="line"/>
      <point x="523" y="1025" type="line"/>
      <point x="554" y="1512" type="line"/>
      <point x="419" y="1512" type="line"/>
    </contour>
  </outline>
</glyph>
<glyph name="numbersign" format="1">
  <advance width="1121"/>
  <unicode hex="0023"/>
  <outline>
    <contour>
      <point x="185" y="-25" type="line"/>
      <point x="300" y="-25" type="line"/>
      <point x="379" y="412" type="line"/>
      <point x="631" y="412" type="line"/>
      <point x="549" y="-25" type="line"/>
      <point x="678" y="-25" type="line"/>
      <point x="760" y="412" type="line"/>
      <point x="917" y="412" type="line"/>
      <point x="927" y="521" type="line"/>
      <point x="776" y="521" type="line"/>
      <point x="849" y="941" type="line"/>
      <point x="994" y="941" type="line"/>
      <point x="1009" y="1048" type="line"/>
      <point x="868" y="1048" type="line"/>
      <point x="938" y="1463" type="line"/>
      <point x="822" y="1463" type="line"/>
      <point x="749" y="1048" type="line"/>
      <point x="498" y="1048" type="line"/>
      <point x="575" y="1463" type="line"/>
      <point x="445" y="1463" type="line"/>
      <point x="367" y="1048" type="line"/>
      <point x="186" y="1048" type="line"/>
      <point x="176" y="940" type="line"/>
      <point x="346" y="940" type="line"/>
      <point x="277" y="521" type="line"/>
      <point x="110" y="521" type="line"/>
      <point x="100" y="412" type="line"/>
      <point x="258" y="412" type="line"/>
    </contour>
    <contour>
      <point x="399" y="521" type="line"/>
      <point x="478" y="941" type="line"/>
      <point x="729" y="941" type="line"/>
      <point x="651" y="521" type="line"/>
    </contour>
  </outline>
</glyph>
<glyph name="dollar" format="1">
  <advance width="1244"/>
  <unicode hex="0024"/>
  <outline>
    <contour>
      <point x="586" y="-204" type="line"/>
      <point x="677" y="-204" type="line"/>
      <point x="677" y="1716" type="line"/>
      <point x="586" y="1716" type="line"/>
    </contour>
    <component base="S"/>
  </outline>
</glyph>
<glyph name="ampersand" format="1">
  <advance width="1486"/>
  <unicode hex="0026"/>
  <outline>
    <contour>
      <point x="629" y="-23" type="curve" smooth="yes"/>
      <point x="845" y="-23"/>
      <point x="1003" y="47"/>
      <point x="1130" y="145" type="curve"/>
      <point x="1274" y="-8" type="line"/>
      <point x="1300" y="-1"/>
      <point x="1365" y="41"/>
      <point x="1391" y="51" type="curve"/>
      <point x="1223" y="237" type="line"/>
      <point x="1280" y="306"/>
      <point x="1328" y="381"/>
      <point x="1364" y="462" type="curve"/>
      <point x="1266" y="537" type="line"/>
      <point x="1234" y="462"/>
      <point x="1189" y="388"/>
      <point x="1137" y="333" type="curve"/>
      <point x="684" y="812" type="line"/>
      <point x="884" y="905"/>
      <point x="1037" y="1019"/>
      <point x="1037" y="1193" type="curve" smooth="yes"/>
      <point x="1037" y="1396"/>
      <point x="867" y="1501"/>
      <point x="667" y="1501" type="curve" smooth="yes"/>
      <point x="426" y="1501"/>
      <point x="284" y="1374"/>
      <point x="284" y="1188" type="curve" smooth="yes"/>
      <point x="284" y="1053"/>
      <point x="356" y="968"/>
      <point x="463" y="844" type="curve"/>
      <point x="257" y="737"/>
      <point x="122" y="610"/>
      <point x="122" y="388" type="curve" smooth="yes"/>
      <point x="122" y="148"/>
      <point x="274" y="-23"/>
    </contour>
    <contour>
      <point x="628" y="104" type="curve" smooth="yes"/>
      <point x="422" y="104"/>
      <point x="272" y="199"/>
      <point x="272" y="392" type="curve" smooth="yes"/>
      <point x="272" y="554"/>
      <point x="392" y="664"/>
      <point x="554" y="749" type="curve"/>
      <point x="631" y="666"/>
      <point x="958" y="322"/>
      <point x="1035" y="240" type="curve"/>
      <point x="936" y="157"/>
      <point x="786" y="104"/>
    </contour>
    <contour>
      <point x="603" y="901" type="curve"/>
      <point x="517" y="981"/>
      <point x="435" y="1085"/>
      <point x="435" y="1189" type="curve" smooth="yes"/>
      <point x="435" y="1302"/>
      <point x="511" y="1378"/>
      <point x="674" y="1378" type="curve" smooth="yes"/>
      <point x="788" y="1378"/>
      <point x="887" y="1316"/>
      <point x="887" y="1193" type="curve" smooth="yes"/>
      <point x="887" y="1048"/>
      <point x="753" y="976"/>
    </contour>
  </outline>
</glyph>
<glyph name="quotesingle" format="1">
  <advance width="419"/>
  <unicode hex="0027"/>
  <outline>
    <contour>
      <point x="150" y="997" type="line"/>
      <point x="255" y="997" type="line"/>
      <point x="275" y="1500" type="line"/>
      <point x="132" y="1500" type="line"/>
    </contour>
  </outline>
</glyph>
<glyph name="parenleft" format="1">
  <advance width="600"/>
  <unicode hex="0028"/>
  <outline>
    <contour>
      <point x="378" y="-256" type="curve"/>
      <point x="514" y="-256" type="line"/>
      <point x="339" y="25"/>
      <point x="258" y="332"/>
      <point x="258" y="617" type="curve" smooth="yes"/>
      <point x="258" y="921"/>
      <point x="333" y="1205"/>
      <point x="514" y="1500" type="curve"/>
      <point x="376" y="1500" type="line"/>
      <point x="204" y="1244"/>
      <point x="105" y="942"/>
      <point x="105" y="612" type="curve" smooth="yes"/>
      <point x="105" y="293"/>
      <point x="209" y="-22"/>
    </contour>
  </outline>
</glyph>
<glyph name="parenright" format="1">
  <advance width="600"/>
  <unicode hex="0029"/>
  <outline>
    <contour>
      <point x="86" y="-256" type="curve"/>
      <point x="220" y="-256" type="line"/>
      <point x="388" y="-22"/>
      <point x="494" y="290"/>
      <point x="494" y="612" type="curve" smooth="yes"/>
      <point x="494" y="940"/>
      <point x="394" y="1243"/>
      <point x="222" y="1500" type="curve"/>
      <point x="85" y="1500" type="line"/>
      <point x="266" y="1205"/>
      <point x="342" y="921"/>
      <point x="342" y="617" type="curve" smooth="yes"/>
      <point x="342" y="331"/>
      <point x="260" y="24"/>
    </contour>
  </outline>
</glyph>
<glyph name="asterisk" format="1">
  <advance width="1105"/>
  <unicode hex="002A"/>
  <outline>
    <contour>
      <point x="355" y="577" type="line"/>
      <point x="547" y="952" type="line"/>
      <point x="751" y="578" type="line"/>
      <point x="811" y="618"/>
      <point x="836" y="624"/>
      <point x="895" y="665" type="curve"/>
      <point x="799" y="803"/>
      <point x="689" y="939"/>
      <point x="641" y="1007" type="curve"/>
      <point x="1012" y="1092" type="line"/>
      <point x="964" y="1251" type="line"/>
      <point x="603" y="1095" type="line"/>
      <point x="639" y="1518" type="line"/>
      <point x="462" y="1518" type="line"/>
      <point x="500" y="1095" type="line"/>
      <point x="140" y="1251" type="line"/>
      <point x="93" y="1091" type="line"/>
      <point x="459" y="1007" type="line"/>
      <point x="210" y="665" type="line"/>
    </contour>
  </outline>
</glyph>
<glyph name="plus" format="1">
  <advance width="1114"/>
  <unicode hex="002B"/>
  <outline>
    <contour>
      <point x="500" y="155" type="line"/>
      <point x="623" y="155" type="line"/>
      <point x="623" y="591" type="line"/>
      <point x="1010" y="591" type="line"/>
      <point x="1010" y="709" type="line"/>
      <point x="624" y="709" type="line"/>
      <point x="624" y="1139" type="line"/>
      <point x="501" y="1139" type="line"/>
      <point x="501" y="709" type="line"/>
      <point x="105" y="709" type="line"/>
      <point x="105" y="591" type="line"/>
      <point x="500" y="591" type="line"/>
    </contour>
  </outline>
</glyph>
<glyph name="comma" format="1">
  <advance width="505"/>
  <unicode hex="002C"/>
  <outline>
    <contour>
      <point x="119" y="-277" type="curve"/>
      <point x="208" y="-277" type="line"/>
      <point x="257" y="-133"/>
      <point x="315" y="51"/>
      <point x="349" y="192" type="curve"/>
      <point x="349" y="234" type="line"/>
      <point x="185" y="234" type="line"/>
      <point x="181" y="161"/>
      <point x="127" y="-200"/>
    </contour>
  </outline>
</glyph>
<glyph name="hyphen" format="1">
  <advance width="671"/>
  <unicode hex="002D"/>
  <outline>
    <contour>
      <point x="89" y="513" type="line"/>
      <point x="582" y="513" type="line"/>
      <point x="582" y="643" type="line"/>
      <point x="89" y="643" type="line"/>
    </contour>
  </outline>
</glyph>
<glyph name="period" format="1">
  <advance width="505"/>
  <unicode hex="002E"/>
  <outline>
    <contour>
      <point x="275" y="-10" type="curve" smooth="yes"/>
      <point x="359" y="-10"/>
      <point x="396" y="51"/>
      <point x="396" y="108" type="curve" smooth="yes"/>
      <point x="396" y="166"/>
      <point x="359" y="226"/>
      <point x="275" y="226" type="curve" smooth="yes"/>
      <point x="192" y="226"/>
      <point x="155" y="166"/>
      <point x="155" y="108" type="curve" smooth="yes"/>
      <point x="155" y="51"/>
      <point x="192" y="-10"/>
    </contour>
  </outline>
</glyph>
<glyph name="slash" format="1">
  <advance width="952"/>
  <unicode hex="002F"/>
  <outline>
    <contour>
      <point x="50" y="-197" type="line"/>
      <point x="178" y="-197" type="line"/>
      <point x="868" y="1489" type="line"/>
      <point x="738" y="1489" type="line"/>
    </contour>
  </outline>
</glyph>
<glyph name="zero" format="1">
  <advance width="1229"/>
  <unicode hex="0030"/>
  <outline>
    <contour>
      <point x="615" y="111" type="curve" smooth="yes"/>
      <point x="411" y="111"/>
      <point x="286" y="372"/>
      <point x="286" y="761" type="curve"/>
      <point x="285" y="1144"/>
      <point x="411" y="1402"/>
      <point x="616" y="1402" type="curve" smooth="yes"/>
      <point x="820" y="1402"/>
      <point x="946" y="1144"/>
      <point x="946" y="762" type="curve" smooth="yes"/>
      <point x="946" y="373"/>
      <point x="820" y="111"/>
    </contour>
    <contour>
      <point x="616" y="-23" type="curve" smooth="yes"/>
      <point x="970" y="-23"/>
      <point x="1117" y="305"/>
      <point x="1117" y="757" type="curve" smooth="yes"/>
      <point x="1117" y="1234"/>
      <point x="953" y="1536"/>
      <point x="616" y="1536" type="curve" smooth="yes"/>
      <point x="279" y="1536"/>
      <point x="111" y="1234"/>
      <point x="111" y="757" type="curve" smooth="yes"/>
      <point x="111" y="305"/>
      <point x="261" y="-23"/>
    </contour>
  </outline>
</glyph>
<glyph name="one" format="1">
  <advance width="613"/>
  <unicode hex="0031"/>
  <outline>
    <contour>
      <point x="279" y="0" type="line"/>
      <point x="433" y="0" type="line"/>
      <point x="433" y="1492" type="line"/>
      <point x="300" y="1492" type="line"/>
      <point x="234" y="1443"/>
      <point x="123" y="1397"/>
      <point x="36" y="1357" type="curve"/>
      <point x="36" y="1219" type="line"/>
      <point x="120" y="1247"/>
      <point x="219" y="1292"/>
      <point x="279" y="1333" type="curve"/>
    </contour>
  </outline>
</glyph>
<glyph name="two" format="1">
  <advance width="1130"/>
  <unicode hex="0032"/>
  <outline>
    <contour>
      <point x="122" y="0" type="line"/>
      <point x="983" y="0" type="line"/>
      <point x="992" y="139" type="line"/>
      <point x="290" y="139" type="line"/>
      <point x="725" y="622" type="line" smooth="yes"/>
      <point x="892" y="809"/>
      <point x="984" y="1049"/>
      <point x="984" y="1126" type="curve" smooth="yes"/>
      <point x="984" y="1361"/>
      <point x="820" y="1520"/>
      <point x="554" y="1520" type="curve" smooth="yes"/>
      <point x="361" y="1520"/>
      <point x="236" y="1468"/>
      <point x="158" y="1395" type="curve"/>
      <point x="211" y="1270" type="line"/>
      <point x="294" y="1352"/>
      <point x="424" y="1388"/>
      <point x="546" y="1388" type="curve" smooth="yes"/>
      <point x="720" y="1388"/>
      <point x="812" y="1286"/>
      <point x="812" y="1111" type="curve" smooth="yes"/>
      <point x="812" y="1052"/>
      <point x="734" y="872"/>
      <point x="614" y="735" type="curve" smooth="yes"/>
      <point x="96" y="146" type="line"/>
    </contour>
  </outline>
</glyph>
<glyph name="three" format="1">
  <advance width="1109"/>
  <unicode hex="0033"/>
  <outline>
    <contour>
      <point x="513" y="-23" type="curve" smooth="yes"/>
      <point x="798" y="-23"/>
      <point x="999" y="148"/>
      <point x="997" y="410" type="curve" smooth="yes"/>
      <point x="995" y="649"/>
      <point x="854" y="763"/>
      <point x="694" y="800" type="curve"/>
      <point x="854" y="849"/>
      <point x="956" y="961"/>
      <point x="956" y="1161" type="curve" smooth="yes"/>
      <point x="956" y="1401"/>
      <point x="755" y="1521"/>
      <point x="551" y="1521" type="curve" smooth="yes"/>
      <point x="343" y="1521"/>
      <point x="215" y="1477"/>
      <point x="130" y="1409" type="curve"/>
      <point x="181" y="1283" type="line"/>
      <point x="257" y="1348"/>
      <point x="379" y="1390"/>
      <point x="514" y="1390" type="curve" smooth="yes"/>
      <point x="683" y="1390"/>
      <point x="798" y="1322"/>
      <point x="798" y="1140" type="curve" smooth="yes"/>
      <point x="798" y="909"/>
      <point x="598" y="870"/>
      <point x="391" y="864" type="curve" smooth="yes"/>
      <point x="382" y="864"/>
      <point x="352" y="864"/>
      <point x="344" y="864" type="curve"/>
      <point x="344" y="733" type="line"/>
      <point x="367" y="733"/>
      <point x="380" y="733"/>
      <point x="403" y="733" type="curve"/>
      <point x="650" y="726"/>
      <point x="844" y="668"/>
      <point x="844" y="408" type="curve" smooth="yes"/>
      <point x="844" y="213"/>
      <point x="709" y="107"/>
      <point x="508" y="107" type="curve" smooth="yes"/>
      <point x="357" y="107"/>
      <point x="255" y="157"/>
      <point x="181" y="215" type="curve"/>
      <point x="130" y="90" type="line"/>
      <point x="177" y="44"/>
      <point x="318" y="-23"/>
    </contour>
  </outline>
</glyph>
<glyph name="four" format="1">
  <advance width="1202"/>
  <unicode hex="0034"/>
  <outline>
    <contour>
      <point x="791" y="0" type="line"/>
      <point x="938" y="0" type="line"/>
      <point x="938" y="386" type="line"/>
      <point x="1108" y="386" type="line"/>
      <point x="1122" y="514" type="line"/>
      <point x="938" y="514" type="line"/>
      <point x="938" y="1508" type="line"/>
      <point x="783" y="1508" type="line"/>
      <point x="112" y="531" type="line"/>
      <point x="112" y="386" type="line"/>
      <point x="791" y="386" type="line"/>
    </contour>
    <contour>
      <point x="269" y="514" type="line"/>
      <point x="791" y="1291" type="line"/>
      <point x="791" y="514" type="line"/>
    </contour>
  </outline>
</glyph>
<glyph name="five" format="1">
  <advance width="1186"/>
  <unicode hex="0035"/>
  <outline>
    <contour>
      <point x="542" y="-23" type="curve" smooth="yes"/>
      <point x="866" y="-23"/>
      <point x="1065" y="178"/>
      <point x="1065" y="480" type="curve" smooth="yes"/>
      <point x="1065" y="727"/>
      <point x="903" y="934"/>
      <point x="609" y="932" type="curve" smooth="yes"/>
      <point x="518" y="931"/>
      <point x="430" y="907"/>
      <point x="344" y="847" type="curve"/>
      <point x="346" y="922"/>
      <point x="364" y="1279"/>
      <point x="366" y="1354" type="curve"/>
      <point x="991" y="1354" type="line"/>
      <point x="1004" y="1492" type="line"/>
      <point x="240" y="1492" type="line"/>
      <point x="204" y="708" type="line"/>
      <point x="336" y="693" type="line"/>
      <point x="418" y="767"/>
      <point x="493" y="799"/>
      <point x="604" y="799" type="curve" smooth="yes"/>
      <point x="789" y="799"/>
      <point x="905" y="662"/>
      <point x="905" y="476" type="curve" smooth="yes"/>
      <point x="905" y="262"/>
      <point x="768" y="111"/>
      <point x="548" y="111" type="curve" smooth="yes"/>
      <point x="372" y="111"/>
      <point x="255" y="172"/>
      <point x="180" y="232" type="curve"/>
      <point x="125" y="113" type="line"/>
      <point x="226" y="27"/>
      <point x="367" y="-23"/>
    </contour>
  </outline>
</glyph>
<glyph name="six" format="1">
  <advance width="1198"/>
  <unicode hex="0036"/>
  <outline>
    <contour>
      <point x="606" y="-23" type="curve" smooth="yes"/>
      <point x="900" y="-23"/>
      <point x="1096" y="187"/>
      <point x="1096" y="447" type="curve" smooth="yes"/>
      <point x="1096" y="719"/>
      <point x="883" y="919"/>
      <point x="641" y="919" type="curve" smooth="yes"/>
      <point x="550" y="919"/>
      <point x="471" y="895"/>
      <point x="400" y="855" type="curve"/>
      <point x="925" y="1489" type="line"/>
      <point x="740" y="1489" type="line"/>
      <point x="740" y="1489"/>
      <point x="499" y="1210"/>
      <point x="400" y="1085" type="curve"/>
      <point x="180" y="799"/>
      <point x="112" y="685"/>
      <point x="112" y="472" type="curve" smooth="yes"/>
      <point x="112" y="210"/>
      <point x="292" y="-23"/>
    </contour>
    <contour>
      <point x="601" y="109" type="curve" smooth="yes"/>
      <point x="390" y="109"/>
      <point x="273" y="275"/>
      <point x="273" y="451" type="curve" smooth="yes"/>
      <point x="273" y="634"/>
      <point x="376" y="791"/>
      <point x="604" y="791" type="curve" smooth="yes"/>
      <point x="816" y="791"/>
      <point x="936" y="633"/>
      <point x="936" y="445" type="curve" smooth="yes"/>
      <point x="936" y="269"/>
      <point x="812" y="109"/>
    </contour>
  </outline>
</glyph>
<glyph name="seven" format="1">
  <advance width="1055"/>
  <unicode hex="0037"/>
  <outline>
    <contour>
      <point x="268" y="0" type="line"/>
      <point x="429" y="0" type="line"/>
      <point x="961" y="1362" type="line"/>
      <point x="953" y="1492" type="line"/>
      <point x="121" y="1492" type="line"/>
      <point x="108" y="1358" type="line"/>
      <point x="795" y="1358" type="line"/>
    </contour>
  </outline>
</glyph>
<glyph name="eight" format="1">
  <advance width="1189"/>
  <unicode hex="0038"/>
  <outline>
    <contour>
      <point x="597" y="-23" type="curve" smooth="yes"/>
      <point x="862" y="-23"/>
      <point x="1078" y="119"/>
      <point x="1078" y="385" type="curve" smooth="yes"/>
      <point x="1078" y="578"/>
      <point x="961" y="733"/>
      <point x="770" y="795" type="curve"/>
      <point x="939" y="853"/>
      <point x="1046" y="968"/>
      <point x="1046" y="1146" type="curve" smooth="yes"/>
      <point x="1046" y="1382"/>
      <point x="860" y="1520"/>
      <point x="598" y="1520" type="curve" smooth="yes"/>
      <point x="333" y="1520"/>
      <point x="143" y="1382"/>
      <point x="143" y="1146" type="curve" smooth="yes"/>
      <point x="143" y="969"/>
      <point x="255" y="853"/>
      <point x="439" y="795" type="curve"/>
      <point x="231" y="733"/>
      <point x="112" y="577"/>
      <point x="112" y="385" type="curve" smooth="yes"/>
      <point x="112" y="119"/>
      <point x="333" y="-23"/>
    </contour>
    <contour>
      <point x="597" y="106" type="curve" smooth="yes"/>
      <point x="413" y="106"/>
      <point x="268" y="214"/>
      <point x="268" y="388" type="curve" smooth="yes"/>
      <point x="268" y="570"/>
      <point x="410" y="680"/>
      <point x="597" y="726" type="curve"/>
      <point x="786" y="680"/>
      <point x="922" y="569"/>
      <point x="922" y="388" type="curve" smooth="yes"/>
      <point x="922" y="214"/>
      <point x="781" y="106"/>
    </contour>
    <contour>
      <point x="597" y="854" type="curve"/>
      <point x="402" y="896"/>
      <point x="299" y="993"/>
      <point x="299" y="1149" type="curve" smooth="yes"/>
      <point x="299" y="1308"/>
      <point x="444" y="1389"/>
      <point x="597" y="1389" type="curve" smooth="yes"/>
      <point x="751" y="1389"/>
      <point x="892" y="1308"/>
      <point x="892" y="1149" type="curve" smooth="yes"/>
      <point x="892" y="993"/>
      <point x="792" y="895"/>
    </contour>
  </outline>
</glyph>
<glyph name="nine" format="1">
  <advance width="1154"/>
  <unicode hex="0039"/>
  <outline>
    <contour>
      <point x="257" y="0" type="line"/>
      <point x="450" y="0" type="line"/>
      <point x="450" y="0"/>
      <point x="799" y="424"/>
      <point x="849" y="491" type="curve"/>
      <point x="1015" y="722"/>
      <point x="1074" y="835"/>
      <point x="1074" y="1036" type="curve" smooth="yes"/>
      <point x="1074" y="1299"/>
      <point x="906" y="1520"/>
      <point x="587" y="1520" type="curve" smooth="yes"/>
      <point x="282" y="1520"/>
      <point x="89" y="1310"/>
      <point x="89" y="1050" type="curve" smooth="yes"/>
      <point x="89" y="773"/>
      <point x="310" y="597"/>
      <point x="556" y="597" type="curve" smooth="yes"/>
      <point x="643" y="597"/>
      <point x="734" y="627"/>
      <point x="802" y="667" type="curve"/>
    </contour>
    <contour>
      <point x="585" y="727" type="curve" smooth="yes"/>
      <point x="375" y="727"/>
      <point x="248" y="862"/>
      <point x="248" y="1052" type="curve" smooth="yes"/>
      <point x="248" y="1228"/>
      <point x="375" y="1389"/>
      <point x="591" y="1389" type="curve" smooth="yes"/>
      <point x="809" y="1389"/>
      <point x="916" y="1234"/>
      <point x="916" y="1056" type="curve" smooth="yes"/>
      <point x="916" y="881"/>
      <point x="818" y="727"/>
    </contour>
  </outline>
</glyph>
<glyph name="colon" format="1">
  <advance width="502"/>
  <unicode hex="003A"/>
  <outline>
    <contour>
      <point x="156" y="-31" type="line"/>
      <point x="349" y="-31" type="line"/>
      <point x="349" y="192" type="line"/>
      <point x="156" y="192" type="line"/>
    </contour>
    <contour>
      <point x="156" y="909" type="line"/>
      <point x="349" y="909" type="line"/>
      <point x="349" y="1130" type="line"/>
      <point x="156" y="1130" type="line"/>
    </contour>
  </outline>
</glyph>
<glyph name="semicolon" format="1">
  <advance width="533"/>
  <unicode hex="003B"/>
  <outline>
    <contour>
      <point x="145" y="-306" type="line"/>
      <point x="248" y="-306" type="line"/>
      <point x="373" y="182" type="line"/>
      <point x="201" y="182" type="line"/>
    </contour>
    <contour>
      <point x="185" y="910" type="line"/>
      <point x="378" y="910" type="line"/>
      <point x="378" y="1130" type="line"/>
      <point x="185" y="1130" type="line"/>
    </contour>
  </outline>
</glyph>
<glyph name="less" format="1">
  <advance width="1170"/>
  <unicode hex="003C"/>
  <outline>
    <contour>
      <point x="1057" y="130" type="line"/>
      <point x="1057" y="273" type="line"/>
      <point x="268" y="641" type="line"/>
      <point x="1059" y="1035" type="line"/>
      <point x="1059" y="1177" type="line"/>
      <point x="101" y="681" type="line"/>
      <point x="101" y="592" type="line"/>
    </contour>
  </outline>
</glyph>
<glyph name="equal" format="1">
  <advance width="1234"/>
  <unicode hex="003D"/>
  <outline>
    <contour>
      <point x="140" y="601" type="line"/>
      <point x="1094" y="601" type="line"/>
      <point x="1094" y="729" type="line"/>
      <point x="140" y="729" type="line"/>
    </contour>
    <contour>
      <point x="140" y="595" type="line"/>
      <point x="1094" y="595" type="line"/>
      <point x="1094" y="723" type="line"/>
      <point x="140" y="723" type="line"/>
    </contour>
  </outline>
</glyph>
<glyph name="greater" format="1">
  <advance width="1172"/>
  <unicode hex="003E"/>
  <outline>
    <contour>
      <point x="114" y="138" type="line"/>
      <point x="1073" y="591" type="line"/>
      <point x="1073" y="679" type="line"/>
      <point x="117" y="1183" type="line"/>
      <point x="117" y="1043" type="line"/>
      <point x="903" y="641" type="line"/>
      <point x="114" y="282" type="line"/>
    </contour>
  </outline>
</glyph>
<glyph name="question" format="1">
  <advance width="860"/>
  <unicode hex="003F"/>
  <outline>
    <contour>
      <point x="316" y="416" type="curve"/>
      <point x="392" y="416" type="line"/>
      <point x="541" y="759"/>
      <point x="754" y="929"/>
      <point x="754" y="1187" type="curve" smooth="yes"/>
      <point x="754" y="1387"/>
      <point x="615" y="1521"/>
      <point x="399" y="1521" type="curve" smooth="yes"/>
      <point x="300" y="1521"/>
      <point x="165" y="1492"/>
      <point x="78" y="1427" type="curve"/>
      <point x="118" y="1310" type="line"/>
      <point x="163" y="1338"/>
      <point x="263" y="1391"/>
      <point x="379" y="1391" type="curve" smooth="yes"/>
      <point x="513" y="1391"/>
      <point x="603" y="1318"/>
      <point x="605" y="1180" type="curve" smooth="yes"/>
      <point x="605" y="953"/>
      <point x="307" y="631"/>
    </contour>
    <contour>
      <point x="369" y="-7" type="curve" smooth="yes"/>
      <point x="450" y="-7"/>
      <point x="487" y="52"/>
      <point x="487" y="108" type="curve" smooth="yes"/>
      <point x="487" y="164"/>
      <point x="450" y="223"/>
      <point x="369" y="223" type="curve" smooth="yes"/>
      <point x="289" y="223"/>
      <point x="252" y="164"/>
      <point x="252" y="108" type="curve" smooth="yes"/>
      <point x="252" y="52"/>
      <point x="289" y="-7"/>
    </contour>
  </outline>
</glyph>
<glyph name="at" format="1">
  <advance width="1840"/>
  <unicode hex="0040"/>
  <outline>
    <contour>
      <point x="884" y="-107" type="curve" smooth="yes"/>
      <point x="1060" y="-107"/>
      <point x="1230" y="-67"/>
      <point x="1350" y="1" type="curve"/>
      <point x="1319" y="105" type="line"/>
      <point x="1193" y="42"/>
      <point x="1045" y="6"/>
      <point x="886" y="6" type="curve" smooth="yes"/>
      <point x="496" y="6"/>
      <point x="248" y="250"/>
      <point x="248" y="659" type="curve" smooth="yes"/>
      <point x="248" y="1118"/>
      <point x="562" y="1387"/>
      <point x="964" y="1387" type="curve" smooth="yes"/>
      <point x="1328" y="1387"/>
      <point x="1593" y="1176"/>
      <point x="1593" y="819" type="curve" smooth="yes"/>
      <point x="1593" y="567"/>
      <point x="1437" y="398"/>
      <point x="1299" y="398" type="curve" smooth="yes"/>
      <point x="1229" y="398"/>
      <point x="1194" y="464"/>
      <point x="1194" y="560" type="curve"/>
      <point x="1194" y="677"/>
      <point x="1251" y="874"/>
      <point x="1295" y="1069" type="curve"/>
      <point x="1212" y="1097"/>
      <point x="1086" y="1120"/>
      <point x="998" y="1120" type="curve" smooth="yes"/>
      <point x="714" y="1120"/>
      <point x="554" y="858"/>
      <point x="554" y="607" type="curve" smooth="yes"/>
      <point x="554" y="425"/>
      <point x="644" y="299"/>
      <point x="804" y="299" type="curve" smooth="yes"/>
      <point x="945" y="299"/>
      <point x="1041" y="387"/>
      <point x="1087" y="461" type="curve"/>
      <point x="1104" y="359"/>
      <point x="1180" y="291"/>
      <point x="1286" y="291" type="curve" smooth="yes"/>
      <point x="1501" y="291"/>
      <point x="1718" y="490"/>
      <point x="1718" y="811" type="curve" smooth="yes"/>
      <point x="1718" y="1236"/>
      <point x="1394" y="1503"/>
      <point x="964" y="1503" type="curve" smooth="yes"/>
      <point x="467" y="1503"/>
      <point x="121" y="1139"/>
      <point x="121" y="663" type="curve" smooth="yes"/>
      <point x="121" y="181"/>
      <point x="426" y="-107"/>
    </contour>
    <contour>
      <point x="824" y="409" type="curve" smooth="yes"/>
      <point x="729" y="409"/>
      <point x="685" y="493"/>
      <point x="685" y="609" type="curve" smooth="yes"/>
      <point x="685" y="804"/>
      <point x="788" y="1018"/>
      <point x="995" y="1018" type="curve" smooth="yes"/>
      <point x="1045" y="1018"/>
      <point x="1110" y="1010"/>
      <point x="1146" y="995" type="curve"/>
      <point x="1128" y="907"/>
      <point x="1110" y="821"/>
      <point x="1091" y="739" type="curve" smooth="yes"/>
      <point x="1053" y="559"/>
      <point x="1000" y="409"/>
    </contour>
  </outline>
</glyph>
<glyph name="A" format="1">
  <advance width="1289"/>
  <unicode hex="0041"/>
  <outline>
    <contour>
      <point x="4" y="0" type="line"/>
      <point x="157" y="0" type="line"/>
      <point x="345" y="486" type="line"/>
      <point x="948" y="486" type="line"/>
      <point x="1129" y="0" type="line"/>
      <point x="1285" y="0" type="line"/>
      <point x="730" y="1485" type="line"/>
      <point x="579" y="1485" type="line"/>
    </contour>
    <contour>
      <point x="399" y="607" type="line"/>
      <point x="399" y="607"/>
      <point x="630" y="1248"/>
      <point x="653" y="1330" type="curve"/>
      <point x="679" y="1236"/>
      <point x="897" y="607"/>
      <point x="897" y="607" type="curve"/>
    </contour>
  </outline>
</glyph>
<glyph name="B" format="1">
  <advance width="1276"/>
  <unicode hex="0042"/>
  <outline>
    <contour>
      <point x="178" y="0" type="line"/>
      <point x="688" y="0" type="line" smooth="yes"/>
      <point x="1043" y="0"/>
      <point x="1204" y="163"/>
      <point x="1204" y="420" type="curve" smooth="yes"/>
      <point x="1204" y="596"/>
      <point x="1103" y="748"/>
      <point x="892" y="784" type="curve"/>
      <point x="1133" y="859"/>
      <point x="1140" y="1050"/>
      <point x="1140" y="1115" type="curve" smooth="yes"/>
      <point x="1140" y="1368"/>
      <point x="968" y="1483"/>
      <point x="593" y="1483" type="curve" smooth="yes"/>
      <point x="178" y="1483" type="line"/>
    </contour>
    <contour>
      <point x="329" y="122" type="line"/>
      <point x="329" y="715" type="line"/>
      <point x="605" y="715" type="line" smooth="yes"/>
      <point x="893" y="715"/>
      <point x="1045" y="649"/>
      <point x="1045" y="424" type="curve" smooth="yes"/>
      <point x="1045" y="216"/>
      <point x="912" y="122"/>
      <point x="655" y="122" type="curve" smooth="yes"/>
    </contour>
    <contour>
      <point x="329" y="834" type="line"/>
      <point x="329" y="1358" type="line"/>
      <point x="586" y="1358" type="line" smooth="yes"/>
      <point x="842" y="1358"/>
      <point x="980" y="1303"/>
      <point x="980" y="1098" type="curve" smooth="yes"/>
      <point x="980" y="886"/>
      <point x="852" y="834"/>
      <point x="658" y="834" type="curve" smooth="yes"/>
    </contour>
  </outline>
</glyph>
<glyph name="C" format="1">
  <advance width="1288"/>
  <unicode hex="0043"/>
  <outline>
    <contour>
      <point x="810" y="-22" type="curve" smooth="yes"/>
      <point x="985" y="-22"/>
      <point x="1115" y="11"/>
      <point x="1209" y="70" type="curve"/>
      <point x="1181" y="196" type="line"/>
      <point x="1077" y="147"/>
      <point x="957" y="108"/>
      <point x="829" y="108" type="curve" smooth="yes"/>
      <point x="447" y="108"/>
      <point x="279" y="388"/>
      <point x="279" y="740" type="curve" smooth="yes"/>
      <point x="279" y="1100"/>
      <point x="467" y="1379"/>
      <point x="825" y="1379" type="curve" smooth="yes"/>
      <point x="955" y="1379"/>
      <point x="1078" y="1341"/>
      <point x="1176" y="1282" type="curve"/>
      <point x="1241" y="1403" type="line"/>
      <point x="1136" y="1467"/>
      <point x="1003" y="1509"/>
      <point x="823" y="1509" type="curve" smooth="yes"/>
      <point x="375" y="1509"/>
      <point x="115" y="1190"/>
      <point x="115" y="747" type="curve" smooth="yes"/>
      <point x="115" y="298"/>
      <point x="349" y="-22"/>
    </contour>
  </outline>
</glyph>
<glyph name="D" format="1">
  <advance width="1500"/>
  <unicode hex="0044"/>
  <outline>
    <contour>
      <point x="329" y="130" type="line"/>
      <point x="329" y="1354" type="line"/>
      <point x="576" y="1354" type="line" smooth="yes"/>
      <point x="977" y="1354"/>
      <point x="1220" y="1182"/>
      <point x="1220" y="737" type="curve" smooth="yes"/>
      <point x="1220" y="332"/>
      <point x="1002" y="130"/>
      <point x="605" y="130" type="curve" smooth="yes"/>
    </contour>
    <contour>
      <point x="178" y="0" type="line"/>
      <point x="614" y="0" type="line" smooth="yes"/>
      <point x="1093" y="0"/>
      <point x="1385" y="250"/>
      <point x="1385" y="742" type="curve" smooth="yes"/>
      <point x="1385" y="1261"/>
      <point x="1065" y="1483"/>
      <point x="584" y="1483" type="curve" smooth="yes"/>
      <point x="178" y="1483" type="line"/>
    </contour>
  </outline>
</glyph>
<glyph name="E" format="1">
  <advance width="1143"/>
  <unicode hex="0045"/>
  <outline>
    <contour>
      <point x="178" y="0" type="line"/>
      <point x="1023" y="0" type="line"/>
      <point x="1033" y="131" type="line"/>
      <point x="329" y="131" type="line"/>
      <point x="329" y="702" type="line"/>
      <point x="977" y="702" type="line"/>
      <point x="977" y="832" type="line"/>
      <point x="329" y="832" type="line"/>
      <point x="329" y="1353" type="line"/>
      <point x="1011" y="1353" type="line"/>
      <point x="1017" y="1483" type="line"/>
      <point x="178" y="1483" type="line"/>
    </contour>
  </outline>
</glyph>
<glyph name="F" format="1">
  <advance width="1033"/>
  <unicode hex="0046"/>
  <outline>
    <contour>
      <point x="178" y="0" type="line"/>
      <point x="330" y="0" type="line"/>
      <point x="330" y="673" type="line"/>
      <point x="952" y="673" type="line"/>
      <point x="952" y="798" type="line"/>
      <point x="330" y="798" type="line"/>
      <point x="330" y="1351" type="line"/>
      <point x="982" y="1351" type="line"/>
      <point x="989" y="1483" type="line"/>
      <point x="178" y="1483" type="line"/>
    </contour>
  </outline>
</glyph>
<glyph name="G" format="1">
  <advance width="1465"/>
  <unicode hex="0047"/>
  <outline>
    <contour>
      <point x="820" y="-22" type="curve" smooth="yes"/>
      <point x="1023" y="-22"/>
      <point x="1163" y="6"/>
      <point x="1330" y="89" type="curve"/>
      <point x="1330" y="755" type="line"/>
      <point x="837" y="755" type="line"/>
      <point x="830" y="624" type="line"/>
      <point x="1189" y="624" type="line"/>
      <point x="1189" y="176" type="line"/>
      <point x="1104" y="142"/>
      <point x="975" y="107"/>
      <point x="858" y="107" type="curve" smooth="yes"/>
      <point x="464" y="107"/>
      <point x="278" y="362"/>
      <point x="278" y="740" type="curve" smooth="yes"/>
      <point x="278" y="1098"/>
      <point x="466" y="1379"/>
      <point x="850" y="1379" type="curve" smooth="yes"/>
      <point x="983" y="1379"/>
      <point x="1126" y="1332"/>
      <point x="1232" y="1270" type="curve"/>
      <point x="1294" y="1393" type="line"/>
      <point x="1170" y="1467"/>
      <point x="1022" y="1509"/>
      <point x="848" y="1509" type="curve" smooth="yes"/>
      <point x="380" y="1509"/>
      <point x="115" y="1185"/>
      <point x="115" y="739" type="curve" smooth="yes"/>
      <point x="115" y="306"/>
      <point x="359" y="-22"/>
    </contour>
  </outline>
</glyph>
<glyph name="H" format="1">
  <advance width="1481"/>
  <unicode hex="0048"/>
  <outline>
    <contour>
      <point x="178" y="0" type="line"/>
      <point x="329" y="0" type="line"/>
      <point x="329" y="705" type="line"/>
      <point x="1152" y="705" type="line"/>
      <point x="1152" y="0" type="line"/>
      <point x="1303" y="0" type="line"/>
      <point x="1303" y="1483" type="line"/>
      <point x="1152" y="1483" type="line"/>
      <point x="1152" y="837" type="line"/>
      <point x="329" y="837" type="line"/>
      <point x="329" y="1483" type="line"/>
      <point x="178" y="1483" type="line"/>
    </contour>
  </outline>
</glyph>
<glyph name="I" format="1">
  <advance width="527"/>
  <unicode hex="0049"/>
  <outline>
    <contour>
      <point x="187" y="0" type="line"/>
      <point x="339" y="0" type="line"/>
      <point x="339" y="1483" type="line"/>
      <point x="187" y="1483" type="line"/>
    </contour>
  </outline>
</glyph>
<glyph name="J" format="1">
  <advance width="532"/>
  <unicode hex="004A"/>
  <outline>
    <contour>
      <point x="-9" y="-177" type="line"/>
      <point x="15" y="-177" type="line" smooth="yes"/>
      <point x="367" y="-177"/>
      <point x="386" y="-31"/>
      <point x="386" y="271" type="curve" smooth="yes"/>
      <point x="386" y="1505" type="line"/>
      <point x="230" y="1505" type="line"/>
      <point x="230" y="198" type="line" smooth="yes"/>
      <point x="230" y="55"/>
      <point x="225" y="-58"/>
      <point x="37" y="-58" type="curve" smooth="yes"/>
      <point x="-30" y="-59" type="line"/>
    </contour>
  </outline>
</glyph>
<glyph name="K" format="1">
  <advance width="1233"/>
  <unicode hex="004B"/>
  <outline>
    <contour>
      <point x="177" y="0" type="line"/>
      <point x="330" y="0" type="line"/>
      <point x="330" y="595" type="line"/>
      <point x="469" y="722" type="line"/>
      <point x="1055" y="0" type="line"/>
      <point x="1244" y="0" type="line"/>
      <point x="585" y="815" type="line"/>
      <point x="1195" y="1483" type="line"/>
      <point x="1001" y="1483" type="line"/>
      <point x="1002" y="1483"/>
      <point x="330" y="737"/>
      <point x="330" y="737" type="curve"/>
      <point x="330" y="1483" type="line"/>
      <point x="177" y="1483" type="line"/>
    </contour>
  </outline>
</glyph>
<glyph name="L" format="1">
  <advance width="1010"/>
  <unicode hex="004C"/>
  <outline>
    <contour>
      <point x="178" y="0" type="line"/>
      <point x="984" y="0" type="line"/>
      <point x="990" y="134" type="line"/>
      <point x="330" y="134" type="line"/>
      <point x="330" y="1483" type="line"/>
      <point x="178" y="1483" type="line"/>
    </contour>
  </outline>
</glyph>
<glyph name="M" format="1">
  <advance width="1811"/>
  <unicode hex="004D"/>
  <outline>
    <contour>
      <point x="178" y="0" type="line"/>
      <point x="323" y="0" type="line"/>
      <point x="323" y="939" type="line"/>
      <point x="316" y="1293" type="line"/>
      <point x="355" y="1183" type="line"/>
      <point x="829" y="88" type="line"/>
      <point x="984" y="88" type="line"/>
      <point x="1454" y="1180" type="line"/>
      <point x="1491" y="1290" type="line"/>
      <point x="1484" y="944" type="line"/>
      <point x="1484" y="0" type="line"/>
      <point x="1632" y="0" type="line"/>
      <point x="1632" y="1483" type="line"/>
      <point x="1436" y="1483" type="line"/>
      <point x="914" y="267" type="line"/>
      <point x="381" y="1483" type="line"/>
      <point x="178" y="1483" type="line"/>
    </contour>
  </outline>
</glyph>
<glyph name="N" format="1">
  <advance width="1508"/>
  <unicode hex="004E"/>
  <outline>
    <contour>
      <point x="178" y="0" type="line"/>
      <point x="321" y="0" type="line"/>
      <point x="321" y="897" type="line"/>
      <point x="321" y="1044"/>
      <point x="319" y="1115"/>
      <point x="313" y="1278" type="curve"/>
      <point x="364" y="1207" type="line"/>
      <point x="1155" y="0" type="line"/>
      <point x="1330" y="0" type="line"/>
      <point x="1330" y="1483" type="line"/>
      <point x="1188" y="1483" type="line"/>
      <point x="1188" y="580" type="line"/>
      <point x="1188" y="518"/>
      <point x="1195" y="204"/>
      <point x="1195" y="204" type="curve"/>
      <point x="1143" y="275" type="line"/>
      <point x="350" y="1483" type="line"/>
      <point x="178" y="1483" type="line"/>
    </contour>
  </outline>
</glyph>
<glyph name="O" format="1">
  <advance width="1626"/>
  <unicode hex="004F"/>
  <outline>
    <contour>
      <point x="814" y="106" type="curve" smooth="yes"/>
      <point x="452" y="106"/>
      <point x="278" y="359"/>
      <point x="278" y="742" type="curve" smooth="yes"/>
      <point x="278" y="1142"/>
      <point x="461" y="1379"/>
      <point x="815" y="1379" type="curve" smooth="yes"/>
      <point x="1169" y="1379"/>
      <point x="1347" y="1141"/>
      <point x="1347" y="742" type="curve" smooth="yes"/>
      <point x="1347" y="359"/>
      <point x="1178" y="106"/>
    </contour>
    <contour>
      <point x="814" y="-22" type="curve" smooth="yes"/>
      <point x="1267" y="-22"/>
      <point x="1512" y="296"/>
      <point x="1512" y="741" type="curve" smooth="yes"/>
      <point x="1512" y="1206"/>
      <point x="1257" y="1509"/>
      <point x="815" y="1509" type="curve" smooth="yes"/>
      <point x="366" y="1509"/>
      <point x="115" y="1209"/>
      <point x="115" y="742" type="curve" smooth="yes"/>
      <point x="115" y="289"/>
      <point x="355" y="-22"/>
    </contour>
  </outline>
</glyph>
<glyph name="P" format="1">
  <advance width="1163"/>
  <unicode hex="0050"/>
  <outline>
    <contour>
      <point x="163" y="0" type="line"/>
      <point x="317" y="0" type="line"/>
      <point x="317" y="659" type="line"/>
      <point x="399" y="651"/>
      <point x="491" y="646"/>
      <point x="555" y="646" type="curve" smooth="yes"/>
      <point x="1011" y="646"/>
      <point x="1110" y="842"/>
      <point x="1110" y="1104" type="curve" smooth="yes"/>
      <point x="1110" y="1384"/>
      <point x="898" y="1492"/>
      <point x="632" y="1492" type="curve" smooth="yes"/>
      <point x="163" y="1492" type="line"/>
    </contour>
    <contour>
      <point x="570" y="778" type="curve" smooth="yes"/>
      <point x="502" y="778"/>
      <point x="363" y="779"/>
      <point x="317" y="785" type="curve"/>
      <point x="317" y="1356" type="line"/>
      <point x="637" y="1356" type="line" smooth="yes"/>
      <point x="817" y="1356"/>
      <point x="955" y="1283"/>
      <point x="955" y="1103" type="curve" smooth="yes"/>
      <point x="955" y="958"/>
      <point x="944" y="778"/>
    </contour>
  </outline>
</glyph>
<glyph name="Q" format="1">
  <advance width="1619"/>
  <unicode hex="0051"/>
  <outline>
    <contour>
      <point x="1260" y="-470" type="curve"/>
      <point x="1369" y="-367" type="line"/>
      <point x="1244" y="-243"/>
      <point x="1089" y="24"/>
      <point x="1089" y="24" type="curve"/>
      <point x="1367" y="134"/>
      <point x="1504" y="403"/>
      <point x="1504" y="742" type="curve" smooth="yes"/>
      <point x="1504" y="1207"/>
      <point x="1256" y="1509"/>
      <point x="812" y="1509" type="curve" smooth="yes"/>
      <point x="360" y="1509"/>
      <point x="115" y="1210"/>
      <point x="115" y="743" type="curve" smooth="yes"/>
      <point x="115" y="288"/>
      <point x="349" y="-22"/>
      <point x="811" y="-22" type="curve" smooth="yes"/>
      <point x="858" y="-22"/>
      <point x="902" y="-19"/>
      <point x="944" y="-13" type="curve"/>
      <point x="1030" y="-194"/>
      <point x="1239" y="-446"/>
    </contour>
    <contour>
      <point x="811" y="111" type="curve" smooth="yes"/>
      <point x="452" y="111"/>
      <point x="280" y="358"/>
      <point x="280" y="743" type="curve" smooth="yes"/>
      <point x="280" y="1146"/>
      <point x="462" y="1376"/>
      <point x="812" y="1376" type="curve" smooth="yes"/>
      <point x="1161" y="1376"/>
      <point x="1338" y="1145"/>
      <point x="1338" y="743" type="curve" smooth="yes"/>
      <point x="1338" y="358"/>
      <point x="1170" y="111"/>
    </contour>
  </outline>
</glyph>
<glyph name="R" format="1">
  <advance width="1336"/>
  <unicode hex="0052"/>
  <outline>
    <contour>
      <point x="164" y="0" type="line"/>
      <point x="317" y="0" type="line"/>
      <point x="317" y="709" type="line"/>
      <point x="317" y="709"/>
      <point x="533" y="703"/>
      <point x="610" y="702" type="curve" smooth="yes"/>
      <point x="661" y="702"/>
      <point x="746" y="704"/>
      <point x="771" y="706" type="curve"/>
      <point x="796" y="659"/>
      <point x="832" y="576"/>
      <point x="871" y="486" type="curve"/>
      <point x="1078" y="0" type="line"/>
      <point x="1253" y="0" type="line"/>
      <point x="1010" y="540" type="line"/>
      <point x="978" y="609"/>
      <point x="910" y="732"/>
      <point x="910" y="735" type="curve"/>
      <point x="1097" y="786"/>
      <point x="1187" y="930"/>
      <point x="1187" y="1109" type="curve" smooth="yes"/>
      <point x="1187" y="1444"/>
      <point x="964" y="1492"/>
      <point x="613" y="1492" type="curve" smooth="yes"/>
      <point x="164" y="1492" type="line"/>
    </contour>
    <contour>
      <point x="690" y="833" type="curve" smooth="yes"/>
      <point x="550" y="833"/>
      <point x="457" y="834"/>
      <point x="317" y="836" type="curve"/>
      <point x="317" y="1360" type="line"/>
      <point x="724" y="1360" type="line" smooth="yes"/>
      <point x="962" y="1360"/>
      <point x="1038" y="1265"/>
      <point x="1038" y="1107" type="curve" smooth="yes"/>
      <point x="1038" y="928"/>
      <point x="961" y="833"/>
    </contour>
  </outline>
</glyph>
<glyph name="S" format="1">
  <advance width="1237"/>
  <unicode hex="0053"/>
  <outline>
    <contour>
      <point x="644" y="-23" type="curve" smooth="yes"/>
      <point x="944" y="-23"/>
      <point x="1152" y="127"/>
      <point x="1152" y="426" type="curve" smooth="yes"/>
      <point x="1152" y="675"/>
      <point x="1008" y="776"/>
      <point x="770" y="830" type="curve" smooth="yes"/>
      <point x="496" y="892" type="line" smooth="yes"/>
      <point x="340" y="927"/>
      <point x="253" y="994"/>
      <point x="253" y="1118" type="curve" smooth="yes"/>
      <point x="253" y="1307"/>
      <point x="388" y="1389"/>
      <point x="644" y="1389" type="curve" smooth="yes"/>
      <point x="817" y="1389"/>
      <point x="981" y="1335"/>
      <point x="1052" y="1295" type="curve"/>
      <point x="1093" y="1416" type="line"/>
      <point x="1000" y="1469"/>
      <point x="832" y="1520"/>
      <point x="648" y="1520" type="curve" smooth="yes"/>
      <point x="319" y="1520"/>
      <point x="96" y="1403"/>
      <point x="96" y="1118" type="curve" smooth="yes"/>
      <point x="96" y="908"/>
      <point x="236" y="804"/>
      <point x="465" y="752" type="curve" smooth="yes"/>
      <point x="733" y="691" type="line" smooth="yes"/>
      <point x="948" y="642"/>
      <point x="994" y="558"/>
      <point x="994" y="424" type="curve" smooth="yes"/>
      <point x="994" y="215"/>
      <point x="875" y="107"/>
      <point x="655" y="107" type="curve" smooth="yes"/>
      <point x="455" y="107"/>
      <point x="284" y="150"/>
      <point x="146" y="221" type="curve"/>
      <point x="96" y="102" type="line"/>
      <point x="182" y="51"/>
      <point x="372" y="-23"/>
    </contour>
  </outline>
</glyph>
<glyph name="T" format="1">
  <advance width="1091"/>
  <unicode hex="0054"/>
  <outline>
    <contour>
      <point x="469" y="0" type="line"/>
      <point x="622" y="0" type="line"/>
      <point x="622" y="1351" type="line"/>
      <point x="1083" y="1351" type="line"/>
      <point x="1083" y="1483" type="line"/>
      <point x="7" y="1483" type="line"/>
      <point x="7" y="1351" type="line"/>
      <point x="469" y="1351" type="line"/>
    </contour>
  </outline>
</glyph>
<glyph name="U" format="1">
  <advance width="1424"/>
  <unicode hex="0055"/>
  <outline>
    <contour>
      <point x="706" y="-22" type="curve" smooth="yes"/>
      <point x="1100" y="-22"/>
      <point x="1264" y="194"/>
      <point x="1264" y="517" type="curve" smooth="yes"/>
      <point x="1264" y="1483" type="line"/>
      <point x="1113" y="1483" type="line"/>
      <point x="1113" y="509" type="line" smooth="yes"/>
      <point x="1113" y="233"/>
      <point x="978" y="104"/>
      <point x="713" y="104" type="curve" smooth="yes"/>
      <point x="440" y="104"/>
      <point x="308" y="231"/>
      <point x="308" y="508" type="curve" smooth="yes"/>
      <point x="308" y="1483" type="line"/>
      <point x="156" y="1483" type="line"/>
      <point x="156" y="519" type="line" smooth="yes"/>
      <point x="156" y="194"/>
      <point x="313" y="-22"/>
    </contour>
  </outline>
</glyph>
<glyph name="V" format="1">
  <advance width="1225"/>
  <unicode hex="0056"/>
  <outline>
    <contour>
      <point x="530" y="0" type="line"/>
      <point x="-5" y="1483" type="line"/>
      <point x="159" y="1483" type="line"/>
      <point x="493" y="535" type="line"/>
      <point x="540" y="390"/>
      <point x="572" y="309"/>
      <point x="610" y="168" type="curve"/>
      <point x="623" y="235"/>
      <point x="662" y="340"/>
      <point x="729" y="540" type="curve"/>
      <point x="851" y="912"/>
      <point x="947" y="1131"/>
      <point x="1064" y="1483" type="curve"/>
      <point x="1230" y="1483" type="line"/>
      <point x="690" y="0" type="line"/>
    </contour>
  </outline>
</glyph>
<glyph name="W" format="1">
  <advance width="2004"/>
  <unicode hex="0057"/>
  <outline>
    <contour>
      <point x="455" y="0" type="line"/>
      <point x="620" y="0" type="line"/>
      <point x="1009" y="1281" type="line"/>
      <point x="1380" y="0" type="line"/>
      <point x="1547" y="0" type="line"/>
      <point x="2003" y="1483" type="line"/>
      <point x="1842" y="1483" type="line"/>
      <point x="1461" y="175" type="line"/>
      <point x="1098" y="1450" type="line"/>
      <point x="916" y="1450" type="line"/>
      <point x="543" y="175" type="line"/>
      <point x="163" y="1483" type="line"/>
      <point x="1" y="1483" type="line"/>
    </contour>
  </outline>
</glyph>
<glyph name="X" format="1">
  <advance width="1219"/>
  <unicode hex="0058"/>
  <outline>
    <contour>
      <point x="13" y="0" type="line"/>
      <point x="177" y="0" type="line"/>
      <point x="610" y="683" type="line"/>
      <point x="1032" y="0" type="line"/>
      <point x="1205" y="0" type="line"/>
      <point x="710" y="784" type="line"/>
      <point x="1184" y="1483" type="line"/>
      <point x="1023" y="1483" type="line"/>
      <point x="615" y="870" type="line"/>
      <point x="223" y="1483" type="line"/>
      <point x="45" y="1483" type="line"/>
      <point x="518" y="779" type="line"/>
    </contour>
  </outline>
</glyph>
<glyph name="Y" format="1">
  <advance width="1180"/>
  <unicode hex="0059"/>
  <outline>
    <contour>
      <point x="499" y="0" type="line"/>
      <point x="653" y="0" type="line"/>
      <point x="653" y="591" type="line"/>
      <point x="1179" y="1483" type="line"/>
      <point x="1013" y="1483" type="line"/>
      <point x="583" y="729" type="line"/>
      <point x="166" y="1483" type="line"/>
      <point x="2" y="1483" type="line"/>
      <point x="499" y="587" type="line"/>
    </contour>
  </outline>
</glyph>
<glyph name="Z" format="1">
  <advance width="1179"/>
  <unicode hex="005A"/>
  <outline>
    <contour>
      <point x="91" y="0" type="line"/>
      <point x="1102" y="0" type="line"/>
      <point x="1109" y="134" type="line"/>
      <point x="281" y="134" type="line"/>
      <point x="1101" y="1366" type="line"/>
      <point x="1101" y="1483" type="line"/>
      <point x="121" y="1483" type="line"/>
      <point x="121" y="1350" type="line"/>
      <point x="906" y="1350" type="line"/>
      <point x="91" y="124" type="line"/>
    </contour>
  </outline>
</glyph>
<glyph name="bracketleft" format="1">
  <advance width="682"/>
  <unicode hex="005B"/>
  <outline>
    <contour>
      <point x="145" y="-279" type="line"/>
      <point x="596" y="-279" type="line"/>
      <point x="596" y="-162" type="line"/>
      <point x="300" y="-162" type="line"/>
      <point x="300" y="1381" type="line"/>
      <point x="596" y="1381" type="line"/>
      <point x="596" y="1498" type="line"/>
      <point x="145" y="1498" type="line"/>
    </contour>
  </outline>
</glyph>
<glyph name="backslash" format="1">
  <advance width="830"/>
  <unicode hex="005C"/>
  <outline>
    <contour>
      <point x="651" y="-36" type="line"/>
      <point x="791" y="-36" type="line"/>
      <point x="196" y="1488" type="line"/>
      <point x="57" y="1488" type="line"/>
    </contour>
  </outline>
</glyph>
<glyph name="bracketright" format="1">
  <advance width="682"/>
  <unicode hex="005D"/>
  <outline>
    <contour>
      <point x="86" y="-279" type="line"/>
      <point x="537" y="-279" type="line"/>
      <point x="537" y="1498" type="line"/>
      <point x="86" y="1498" type="line"/>
      <point x="86" y="1381" type="line"/>
      <point x="382" y="1381" type="line"/>
      <point x="382" y="-162" type="line"/>
      <point x="86" y="-162" type="line"/>
    </contour>
  </outline>
</glyph>
<glyph name="asciicircum" format="1">
  <advance width="1157"/>
  <unicode hex="005E"/>
  <outline>
    <contour>
      <point x="76" y="574" type="line"/>
      <point x="207" y="574" type="line"/>
      <point x="565" y="1345" type="line"/>
      <point x="950" y="574" type="line"/>
      <point x="1079" y="574" type="line"/>
      <point x="614" y="1502" type="line"/>
      <point x="517" y="1502" type="line"/>
    </contour>
  </outline>
</glyph>
<glyph name="underscore" format="1">
  <advance width="1070"/>
  <unicode hex="005F"/>
  <outline>
    <contour>
      <point x="73" y="-209" type="line"/>
      <point x="996" y="-209" type="line"/>
      <point x="996" y="-88" type="line"/>
      <point x="73" y="-88" type="line"/>
    </contour>
  </outline>
</glyph>
<glyph name="grave" format="1">
  <advance width="671"/>
  <unicode hex="0060"/>
  <outline>
    <contour>
      <point x="433" y="1268" type="line"/>
      <point x="526" y="1268" type="line"/>
      <point x="338" y="1655" type="line"/>
      <point x="133" y="1655" type="line"/>
    </contour>
  </outline>
</glyph>
<glyph name="a" format="1">
  <advance width="1088"/>
  <unicode hex="0061"/>
  <outline>
    <contour>
      <point x="437" y="-23" type="curve" smooth="yes"/>
      <point x="576" y="-23"/>
      <point x="689" y="18"/>
      <point x="799" y="149" type="curve"/>
      <point x="805" y="117"/>
      <point x="819" y="32"/>
      <point x="826" y="0" type="curve"/>
      <point x="940" y="0" type="line"/>
      <point x="940" y="729" type="line" smooth="yes"/>
      <point x="940" y="1021"/>
      <point x="824" y="1118"/>
      <point x="562" y="1118" type="curve" smooth="yes"/>
      <point x="426" y="1118"/>
      <point x="282" y="1079"/>
      <point x="194" y="1026" type="curve"/>
      <point x="203" y="1000"/>
      <point x="227" y="939"/>
      <point x="237" y="914" type="curve"/>
      <point x="340" y="966"/>
      <point x="457" y="995"/>
      <point x="564" y="995" type="curve" smooth="yes"/>
      <point x="728" y="995"/>
      <point x="796" y="913"/>
      <point x="796" y="755" type="curve" smooth="yes"/>
      <point x="796" y="646" type="line"/>
      <point x="732" y="640"/>
      <point x="667" y="636"/>
      <point x="602" y="631" type="curve"/>
      <point x="300" y="607"/>
      <point x="96" y="519"/>
      <point x="96" y="283" type="curve" smooth="yes"/>
      <point x="96" y="81"/>
      <point x="237" y="-23"/>
    </contour>
    <contour>
      <point x="452" y="94" type="curve" smooth="yes"/>
      <point x="330" y="94"/>
      <point x="245" y="153"/>
      <point x="245" y="283" type="curve" smooth="yes"/>
      <point x="245" y="441"/>
      <point x="348" y="504"/>
      <point x="655" y="531" type="curve"/>
      <point x="689" y="532"/>
      <point x="762" y="540"/>
      <point x="794" y="543" type="curve"/>
      <point x="794" y="357" type="line"/>
      <point x="755" y="190"/>
      <point x="613" y="94"/>
    </contour>
  </outline>
</glyph>
<glyph name="b" format="1">
  <advance width="1201"/>
  <unicode hex="0062"/>
  <outline>
    <contour>
      <point x="639" y="-23" type="curve" smooth="yes"/>
      <point x="946" y="-23"/>
      <point x="1107" y="217"/>
      <point x="1107" y="552" type="curve" smooth="yes"/>
      <point x="1107" y="876"/>
      <point x="942" y="1118"/>
      <point x="640" y="1118" type="curve" smooth="yes"/>
      <point x="505" y="1118"/>
      <point x="371" y="1055"/>
      <point x="290" y="935" type="curve"/>
      <point x="293" y="1003"/>
      <point x="293" y="1081"/>
      <point x="293" y="1167" type="curve" smooth="yes"/>
      <point x="293" y="1533" type="line"/>
      <point x="148" y="1522" type="line"/>
      <point x="148" y="0" type="line"/>
      <point x="272" y="0" type="line"/>
      <point x="287" y="155" type="line"/>
      <point x="370" y="41"/>
      <point x="492" y="-23"/>
    </contour>
    <contour>
      <point x="633" y="96" type="curve" smooth="yes"/>
      <point x="389" y="96"/>
      <point x="293" y="271"/>
      <point x="293" y="544" type="curve"/>
      <point x="292" y="837"/>
      <point x="413" y="997"/>
      <point x="634" y="997" type="curve" smooth="yes"/>
      <point x="874" y="997"/>
      <point x="954" y="784"/>
      <point x="954" y="546" type="curve" smooth="yes"/>
      <point x="954" y="310"/>
      <point x="873" y="96"/>
    </contour>
  </outline>
</glyph>
<glyph name="c" format="1">
  <advance width="967"/>
  <unicode hex="0063"/>
  <outline>
    <contour>
      <point x="606" y="-23" type="curve" smooth="yes"/>
      <point x="709" y="-23"/>
      <point x="816" y="3"/>
      <point x="885" y="53" type="curve"/>
      <point x="865" y="165" type="line"/>
      <point x="787" y="127"/>
      <point x="697" y="100"/>
      <point x="604" y="100" type="curve" smooth="yes"/>
      <point x="379" y="100"/>
      <point x="247" y="277"/>
      <point x="247" y="541" type="curve" smooth="yes"/>
      <point x="247" y="816"/>
      <point x="383" y="993"/>
      <point x="604" y="993" type="curve" smooth="yes"/>
      <point x="674" y="993"/>
      <point x="770" y="976"/>
      <point x="849" y="932" type="curve"/>
      <point x="892" y="1044" type="line"/>
      <point x="837" y="1086"/>
      <point x="721" y="1118"/>
      <point x="610" y="1118" type="curve" smooth="yes"/>
      <point x="280" y="1118"/>
      <point x="95" y="865"/>
      <point x="94" y="541" type="curve" smooth="yes"/>
      <point x="94" y="224"/>
      <point x="276" y="-23"/>
    </contour>
  </outline>
</glyph>
<glyph name="d" format="1">
  <advance width="1197"/>
  <unicode hex="0064"/>
  <outline>
    <contour>
      <point x="558" y="-22" type="curve" smooth="yes"/>
      <point x="696" y="-22"/>
      <point x="832" y="43"/>
      <point x="907" y="162" type="curve"/>
      <point x="927" y="0" type="line"/>
      <point x="1050" y="0" type="line"/>
      <point x="1050" y="1533" type="line"/>
      <point x="907" y="1522" type="line"/>
      <point x="907" y="1005" type="line" smooth="yes"/>
      <point x="909" y="940" type="line"/>
      <point x="838" y="1062"/>
      <point x="684" y="1118"/>
      <point x="554" y="1118" type="curve" smooth="yes"/>
      <point x="274" y="1118"/>
      <point x="94" y="886"/>
      <point x="94" y="551" type="curve" smooth="yes"/>
      <point x="94" y="196"/>
      <point x="266" y="-22"/>
    </contour>
    <contour>
      <point x="565" y="99" type="curve" smooth="yes"/>
      <point x="339" y="99"/>
      <point x="248" y="300"/>
      <point x="248" y="548" type="curve" smooth="yes"/>
      <point x="248" y="781"/>
      <point x="340" y="995"/>
      <point x="563" y="995" type="curve" smooth="yes"/>
      <point x="813" y="995"/>
      <point x="906" y="818"/>
      <point x="906" y="528" type="curve"/>
      <point x="907" y="273"/>
      <point x="804" y="99"/>
    </contour>
  </outline>
</glyph>
<glyph name="e" format="1">
  <advance width="1101"/>
  <unicode hex="0065"/>
  <outline>
    <contour>
      <point x="599" y="-23" type="curve" smooth="yes"/>
      <point x="760" y="-23"/>
      <point x="872" y="14"/>
      <point x="977" y="79" type="curve"/>
      <point x="954" y="193" type="line"/>
      <point x="859" y="143"/>
      <point x="751" y="99"/>
      <point x="604" y="99" type="curve" smooth="yes"/>
      <point x="390" y="99"/>
      <point x="251" y="258"/>
      <point x="247" y="525" type="curve"/>
      <point x="1005" y="525" type="line"/>
      <point x="1005" y="549"/>
      <point x="1006" y="586"/>
      <point x="1006" y="608" type="curve" smooth="yes"/>
      <point x="1006" y="918"/>
      <point x="835" y="1118"/>
      <point x="571" y="1118" type="curve" smooth="yes"/>
      <point x="287" y="1113"/>
      <point x="95" y="880"/>
      <point x="95" y="543" type="curve" smooth="yes"/>
      <point x="95" y="193"/>
      <point x="289" y="-23"/>
    </contour>
    <contour>
      <point x="252" y="639" type="line"/>
      <point x="272" y="853"/>
      <point x="387" y="996"/>
      <point x="568" y="996" type="curve" smooth="yes"/>
      <point x="742" y="996"/>
      <point x="853" y="873"/>
      <point x="853" y="639" type="curve"/>
    </contour>
  </outline>
</glyph>
<glyph name="f" format="1">
  <advance width="654"/>
  <unicode hex="0066"/>
  <outline>
    <contour>
      <point x="214" y="0" type="line"/>
      <point x="360" y="0" type="line"/>
      <point x="360" y="988" type="line"/>
      <point x="626" y="988" type="line"/>
      <point x="626" y="1097" type="line"/>
      <point x="360" y="1097" type="line"/>
      <point x="360" y="1140" type="line" smooth="yes"/>
      <point x="360" y="1355"/>
      <point x="400" y="1439"/>
      <point x="549" y="1439" type="curve"/>
      <point x="591" y="1439"/>
      <point x="636" y="1433"/>
      <point x="681" y="1427" type="curve"/>
      <point x="692" y="1534" type="line"/>
      <point x="633" y="1543"/>
      <point x="583" y="1550"/>
      <point x="533" y="1550" type="curve"/>
      <point x="315" y="1550"/>
      <point x="215" y="1428"/>
      <point x="214" y="1142" type="curve" smooth="yes"/>
      <point x="214" y="1097" type="line"/>
      <point x="46" y="1083" type="line"/>
      <point x="35" y="988" type="line"/>
      <point x="214" y="988" type="line"/>
    </contour>
  </outline>
</glyph>
<glyph name="g" format="1">
  <advance width="1180"/>
  <unicode hex="0067"/>
  <outline>
    <contour>
      <point x="314" y="-505" type="line"/>
      <point x="507" y="-505" type="line" smooth="yes"/>
      <point x="1019" y="-505"/>
      <point x="1043" y="-179"/>
      <point x="1043" y="79" type="curve" smooth="yes"/>
      <point x="1043" y="1097" type="line"/>
      <point x="906" y="1097" type="line"/>
      <point x="900" y="947" type="line"/>
      <point x="812" y="1064"/>
      <point x="708" y="1118"/>
      <point x="566" y="1118" type="curve" smooth="yes"/>
      <point x="215" y="1118"/>
      <point x="80" y="838"/>
      <point x="80" y="542" type="curve" smooth="yes"/>
      <point x="80" y="306"/>
      <point x="216" y="1"/>
      <point x="548" y="1" type="curve" smooth="yes"/>
      <point x="722" y="1"/>
      <point x="823" y="78"/>
      <point x="898" y="189" type="curve"/>
      <point x="898" y="189"/>
      <point x="901" y="90"/>
      <point x="901" y="103" type="curve" smooth="yes"/>
      <point x="901" y="-190"/>
      <point x="871" y="-374"/>
      <point x="516" y="-374" type="curve" smooth="yes"/>
      <point x="299" y="-374" type="line"/>
    </contour>
    <contour>
      <point x="569" y="123" type="curve" smooth="yes"/>
      <point x="320" y="123"/>
      <point x="233" y="357"/>
      <point x="233" y="546" type="curve" smooth="yes"/>
      <point x="233" y="751"/>
      <point x="321" y="996"/>
      <point x="568" y="996" type="curve"/>
      <point x="808" y="996"/>
      <point x="900" y="808"/>
      <point x="900" y="605" type="curve" smooth="yes"/>
      <point x="900" y="508" type="line" smooth="yes"/>
      <point x="901" y="314"/>
      <point x="812" y="123"/>
    </contour>
  </outline>
</glyph>
<glyph name="h" format="1">
  <advance width="1130"/>
  <unicode hex="0068"/>
  <outline>
    <contour>
      <point x="146" y="0" type="line"/>
      <point x="292" y="0" type="line"/>
      <point x="292" y="603" type="line" smooth="yes"/>
      <point x="292" y="653"/>
      <point x="294" y="702"/>
      <point x="298" y="747" type="curve"/>
      <point x="328" y="888"/>
      <point x="454" y="994"/>
      <point x="637" y="994" type="curve" smooth="yes"/>
      <point x="826" y="994"/>
      <point x="884" y="887"/>
      <point x="884" y="662" type="curve" smooth="yes"/>
      <point x="884" y="0" type="line"/>
      <point x="1030" y="0" type="line"/>
      <point x="1030" y="687" type="line" smooth="yes"/>
      <point x="1030" y="964"/>
      <point x="917" y="1118"/>
      <point x="668" y="1118" type="curve" smooth="yes"/>
      <point x="504" y="1118"/>
      <point x="376" y="1054"/>
      <point x="289" y="938" type="curve"/>
      <point x="291" y="990"/>
      <point x="292" y="993"/>
      <point x="292" y="1049" type="curve" smooth="yes"/>
      <point x="292" y="1533" type="line"/>
      <point x="146" y="1522" type="line"/>
    </contour>
  </outline>
</glyph>
<glyph name="j" format="1">
  <advance width="427"/>
  <unicode hex="006A"/>
  <outline>
    <contour>
      <point x="-56" y="-525" type="line"/>
      <point x="-6" y="-525" type="line" smooth="yes"/>
      <point x="250" y="-525"/>
      <point x="309" y="-446"/>
      <point x="309" y="-191" type="curve" smooth="yes"/>
      <point x="309" y="1097" type="line"/>
      <point x="162" y="1097" type="line"/>
      <point x="162" y="-168" type="line" smooth="yes"/>
      <point x="162" y="-333"/>
      <point x="159" y="-399"/>
      <point x="-26" y="-399" type="curve" smooth="yes"/>
      <point x="-77" y="-399" type="line"/>
    </contour>
    <contour>
      <point x="162" y="1309" type="line"/>
      <point x="309" y="1309" type="line"/>
      <point x="309" y="1492" type="line"/>
      <point x="162" y="1492" type="line"/>
    </contour>
  </outline>
</glyph>
<glyph name="k" format="1">
  <advance width="1014"/>
  <unicode hex="006B"/>
  <outline>
    <contour>
      <point x="147" y="0" type="line"/>
      <point x="292" y="0" type="line"/>
      <point x="292" y="442" type="line"/>
      <point x="417" y="554" type="line"/>
      <point x="827" y="0" type="line"/>
      <point x="1010" y="0" type="line"/>
      <point x="521" y="636" type="line"/>
      <point x="978" y="1097" type="line"/>
      <point x="788" y="1097" type="line"/>
      <point x="711" y="1020"/>
      <point x="500" y="807"/>
      <point x="372" y="671" type="curve"/>
      <point x="357" y="654"/>
      <point x="306" y="599"/>
      <point x="292" y="582" type="curve"/>
      <point x="292" y="701" type="line"/>
      <point x="292" y="1533" type="line"/>
      <point x="147" y="1523" type="line"/>
    </contour>
  </outline>
</glyph>
<glyph name="l" format="1">
  <advance width="573"/>
  <unicode hex="006C"/>
  <outline>
    <contour>
      <point x="431" y="-22" type="curve" smooth="yes"/>
      <point x="464" y="-22"/>
      <point x="539" y="-12"/>
      <point x="597" y="-1" type="curve"/>
      <point x="589" y="114" type="line"/>
      <point x="545" y="106"/>
      <point x="507" y="97"/>
      <point x="452" y="97" type="curve" smooth="yes"/>
      <point x="329" y="97"/>
      <point x="296" y="149"/>
      <point x="296" y="344" type="curve" smooth="yes"/>
      <point x="296" y="1533" type="line"/>
      <point x="151" y="1523" type="line"/>
      <point x="151" y="306" type="line" smooth="yes"/>
      <point x="151" y="67"/>
      <point x="233" y="-22"/>
    </contour>
  </outline>
</glyph>
<glyph name="m" format="1">
  <advance width="1788"/>
  <unicode hex="006D"/>
  <outline>
    <contour>
      <point x="147" y="0" type="curve"/>
      <point x="294" y="0" type="line"/>
      <point x="294" y="604" type="line" smooth="yes"/>
      <point x="294" y="654"/>
      <point x="295" y="701"/>
      <point x="299" y="747" type="curve"/>
      <point x="335" y="895"/>
      <point x="454" y="993"/>
      <point x="627" y="993" type="curve" smooth="yes"/>
      <point x="819" y="993"/>
      <point x="853" y="817"/>
      <point x="853" y="574" type="curve" smooth="yes"/>
      <point x="853" y="0" type="line"/>
      <point x="999" y="0" type="line"/>
      <point x="999" y="584" type="line"/>
      <point x="997" y="639"/>
      <point x="998" y="690"/>
      <point x="1001" y="739" type="curve" smooth="yes"/>
      <point x="1045" y="899"/>
      <point x="1160" y="993"/>
      <point x="1317" y="993" type="curve" smooth="yes"/>
      <point x="1521" y="993"/>
      <point x="1538" y="803"/>
      <point x="1538" y="554" type="curve" smooth="yes"/>
      <point x="1538" y="0" type="line"/>
      <point x="1685" y="0" type="line"/>
      <point x="1685" y="707" type="line" smooth="yes"/>
      <point x="1685" y="974"/>
      <point x="1579" y="1118"/>
      <point x="1333" y="1118" type="curve" smooth="yes"/>
      <point x="1176" y="1118"/>
      <point x="1047" y="1056"/>
      <point x="965" y="917" type="curve"/>
      <point x="934" y="1006"/>
      <point x="854" y="1118"/>
      <point x="637" y="1118" type="curve" smooth="yes"/>
      <point x="480" y="1118"/>
      <point x="350" y="1034"/>
      <point x="288" y="934" type="curve"/>
      <point x="269" y="1097" type="line"/>
      <point x="145" y="1097" type="line"/>
      <point x="145" y="1012"/>
      <point x="147" y="0"/>
    </contour>
  </outline>
</glyph>
<glyph name="n" format="1">
  <advance width="1169"/>
  <unicode hex="006E"/>
  <outline>
    <contour>
      <point x="145" y="0" type="line"/>
      <point x="293" y="0" type="line"/>
      <point x="293" y="621" type="line" smooth="yes"/>
      <point x="293" y="664"/>
      <point x="295" y="707"/>
      <point x="300" y="748" type="curve"/>
      <point x="331" y="886"/>
      <point x="452" y="993"/>
      <point x="644" y="993" type="curve" smooth="yes"/>
      <point x="815" y="993"/>
      <point x="878" y="908"/>
      <point x="884" y="721" type="curve" smooth="yes"/>
      <point x="884" y="697"/>
      <point x="884" y="0"/>
      <point x="884" y="0" type="curve"/>
      <point x="1031" y="0" type="line"/>
      <point x="1031" y="683" type="line" smooth="yes"/>
      <point x="1031" y="983"/>
      <point x="913" y="1118"/>
      <point x="662" y="1118" type="curve" smooth="yes"/>
      <point x="506" y="1118"/>
      <point x="369" y="1043"/>
      <point x="289" y="934" type="curve"/>
      <point x="269" y="1097" type="line"/>
      <point x="145" y="1097" type="line"/>
    </contour>
  </outline>
</glyph>
<glyph name="o" format="1">
  <advance width="1196"/>
  <unicode hex="006F"/>
  <outline>
    <contour>
      <point x="603" y="96" type="curve" smooth="yes"/>
      <point x="363" y="96"/>
      <point x="248" y="290"/>
      <point x="248" y="544" type="curve" smooth="yes"/>
      <point x="248" y="802"/>
      <point x="362" y="997"/>
      <point x="599" y="997" type="curve" smooth="yes"/>
      <point x="845" y="997"/>
      <point x="948" y="807"/>
      <point x="948" y="547" type="curve" smooth="yes"/>
      <point x="948" y="289"/>
      <point x="840" y="96"/>
    </contour>
    <contour>
      <point x="594" y="-23" type="curve" smooth="yes"/>
      <point x="916" y="-23"/>
      <point x="1101" y="219"/>
      <point x="1101" y="548" type="curve" smooth="yes"/>
      <point x="1101" y="874"/>
      <point x="921" y="1118"/>
      <point x="603" y="1118" type="curve" smooth="yes"/>
      <point x="283" y="1118"/>
      <point x="94" y="877"/>
      <point x="94" y="547" type="curve" smooth="yes"/>
      <point x="94" y="220"/>
      <point x="285" y="-23"/>
    </contour>
  </outline>
</glyph>
<glyph name="p" format="1">
  <advance width="1188"/>
  <unicode hex="0070"/>
  <outline>
    <contour>
      <point x="145" y="-482" type="line"/>
      <point x="291" y="-472" type="line"/>
      <point x="291" y="-70" type="line" smooth="yes"/>
      <point x="291" y="8"/>
      <point x="289" y="82"/>
      <point x="286" y="155" type="curve"/>
      <point x="359" y="50"/>
      <point x="492" y="-23"/>
      <point x="638" y="-23" type="curve" smooth="yes"/>
      <point x="923" y="-23"/>
      <point x="1094" y="215"/>
      <point x="1094" y="539" type="curve" smooth="yes"/>
      <point x="1094" y="880"/>
      <point x="947" y="1118"/>
      <point x="632" y="1118" type="curve" smooth="yes"/>
      <point x="482" y="1118"/>
      <point x="377" y="1048"/>
      <point x="288" y="944" type="curve"/>
      <point x="275" y="1097" type="line"/>
      <point x="145" y="1097" type="line"/>
    </contour>
    <contour>
      <point x="622" y="99" type="curve" smooth="yes"/>
      <point x="372" y="99"/>
      <point x="290" y="278"/>
      <point x="290" y="565" type="curve"/>
      <point x="290" y="819"/>
      <point x="380" y="994"/>
      <point x="620" y="994" type="curve" smooth="yes"/>
      <point x="846" y="994"/>
      <point x="942" y="777"/>
      <point x="942" y="547" type="curve" smooth="yes"/>
      <point x="942" y="319"/>
      <point x="844" y="99"/>
    </contour>
  </outline>
</glyph>
<glyph name="q" format="1">
  <advance width="1196"/>
  <unicode hex="0071"/>
  <outline>
    <contour>
      <point x="903" y="-482" type="line"/>
      <point x="1049" y="-473" type="line"/>
      <point x="1049" y="1097" type="line"/>
      <point x="919" y="1097" type="line"/>
      <point x="909" y="937" type="line"/>
      <point x="822" y="1047"/>
      <point x="709" y="1118"/>
      <point x="561" y="1118" type="curve" smooth="yes"/>
      <point x="256" y="1118"/>
      <point x="96" y="876"/>
      <point x="96" y="537" type="curve" smooth="yes"/>
      <point x="96" y="216"/>
      <point x="258" y="-23"/>
      <point x="553" y="-23" type="curve" smooth="yes"/>
      <point x="691" y="-23"/>
      <point x="830" y="42"/>
      <point x="908" y="162" type="curve"/>
      <point x="905" y="119"/>
      <point x="903" y="69"/>
      <point x="903" y="12" type="curve" smooth="yes"/>
    </contour>
    <contour>
      <point x="564" y="103" type="curve" smooth="yes"/>
      <point x="333" y="103"/>
      <point x="249" y="307"/>
      <point x="249" y="546" type="curve" smooth="yes"/>
      <point x="249" y="775"/>
      <point x="334" y="992"/>
      <point x="563" y="992" type="curve" smooth="yes"/>
      <point x="813" y="992"/>
      <point x="902" y="813"/>
      <point x="902" y="527" type="curve"/>
      <point x="899" y="269"/>
      <point x="806" y="103"/>
    </contour>
  </outline>
</glyph>
<glyph name="r" format="1">
  <advance width="731"/>
  <unicode hex="0072"/>
  <outline>
    <contour>
      <point x="149" y="0" type="curve"/>
      <point x="295" y="0" type="line"/>
      <point x="295" y="622" type="line" smooth="yes"/>
      <point x="295" y="814"/>
      <point x="426" y="976"/>
      <point x="616" y="976" type="curve" smooth="yes"/>
      <point x="639" y="976"/>
      <point x="665" y="974"/>
      <point x="694" y="969" type="curve"/>
      <point x="702" y="1098" type="line"/>
      <point x="676" y="1102"/>
      <point x="648" y="1105"/>
      <point x="617" y="1105" type="curve" smooth="yes"/>
      <point x="481" y="1105"/>
      <point x="355" y="1013"/>
      <point x="281" y="890" type="curve"/>
      <point x="269" y="1097" type="line"/>
      <point x="148" y="1097" type="line"/>
      <point x="148" y="988"/>
      <point x="149" y="0"/>
    </contour>
  </outline>
</glyph>
<glyph name="s" format="1">
  <advance width="949"/>
  <unicode hex="0073"/>
  <outline>
    <contour>
      <point x="469" y="-24" type="curve" smooth="yes"/>
      <point x="702" y="-24"/>
      <point x="857" y="87"/>
      <point x="860" y="287" type="curve" smooth="yes"/>
      <point x="860" y="452"/>
      <point x="781" y="539"/>
      <point x="553" y="611" type="curve" smooth="yes"/>
      <point x="531" y="618"/>
      <point x="490" y="634"/>
      <point x="465" y="642" type="curve" smooth="yes"/>
      <point x="294" y="695"/>
      <point x="250" y="733"/>
      <point x="250" y="824" type="curve" smooth="yes"/>
      <point x="250" y="932"/>
      <point x="339" y="998"/>
      <point x="486" y="998" type="curve" smooth="yes"/>
      <point x="591" y="998"/>
      <point x="689" y="971"/>
      <point x="774" y="937" type="curve"/>
      <point x="820" y="1048" type="line"/>
      <point x="724" y="1092"/>
      <point x="615" y="1118"/>
      <point x="488" y="1118" type="curve" smooth="yes"/>
      <point x="241" y="1118"/>
      <point x="106" y="977"/>
      <point x="106" y="822" type="curve" smooth="yes"/>
      <point x="107" y="697"/>
      <point x="172" y="599"/>
      <point x="370" y="536" type="curve" smooth="yes"/>
      <point x="374" y="534"/>
      <point x="458" y="505"/>
      <point x="458" y="505" type="curve" smooth="yes"/>
      <point x="672" y="435"/>
      <point x="723" y="387"/>
      <point x="723" y="285" type="curve" smooth="yes"/>
      <point x="717" y="156"/>
      <point x="619" y="99"/>
      <point x="457" y="99" type="curve" smooth="yes"/>
      <point x="324" y="99"/>
      <point x="206" y="149"/>
      <point x="135" y="186" type="curve"/>
      <point x="115" y="63" type="line"/>
      <point x="184" y="18"/>
      <point x="314" y="-24"/>
    </contour>
  </outline>
</glyph>
<glyph name="t" format="1">
  <advance width="691"/>
  <unicode hex="0074"/>
  <outline>
    <contour>
      <point x="475" y="-21" type="curve" smooth="yes"/>
      <point x="516" y="-21"/>
      <point x="568" y="-16"/>
      <point x="660" y="1" type="curve"/>
      <point x="654" y="116" type="line"/>
      <point x="604" y="106"/>
      <point x="550" y="96"/>
      <point x="505" y="96" type="curve" smooth="yes"/>
      <point x="383" y="96"/>
      <point x="335" y="143"/>
      <point x="335" y="308" type="curve" smooth="yes"/>
      <point x="335" y="988" type="line"/>
      <point x="648" y="988" type="line"/>
      <point x="648" y="1097" type="line"/>
      <point x="335" y="1097" type="line"/>
      <point x="335" y="1352" type="line"/>
      <point x="236" y="1347" type="line"/>
      <point x="191" y="1096" type="line"/>
      <point x="39" y="1082" type="line"/>
      <point x="31" y="988" type="line"/>
      <point x="191" y="988" type="line"/>
      <point x="191" y="988"/>
      <point x="190" y="304"/>
      <point x="191" y="280" type="curve" smooth="yes"/>
      <point x="193" y="69"/>
      <point x="273" y="-21"/>
    </contour>
  </outline>
</glyph>
<glyph name="u" format="1">
  <advance width="1098"/>
  <unicode hex="0075"/>
  <outline>
    <contour>
      <point x="551" y="-26" type="curve" smooth="yes"/>
      <point x="776" y="-26"/>
      <point x="986" y="69"/>
      <point x="986" y="358" type="curve" smooth="yes"/>
      <point x="986" y="1097" type="line"/>
      <point x="840" y="1097" type="line"/>
      <point x="840" y="356" type="line" smooth="yes"/>
      <point x="840" y="152"/>
      <point x="711" y="99"/>
      <point x="551" y="99" type="curve" smooth="yes"/>
      <point x="388" y="99"/>
      <point x="258" y="149"/>
      <point x="258" y="356" type="curve" smooth="yes"/>
      <point x="258" y="1097" type="line"/>
      <point x="111" y="1097" type="line"/>
      <point x="111" y="358" type="line" smooth="yes"/>
      <point x="111" y="72"/>
      <point x="325" y="-26"/>
    </contour>
  </outline>
</glyph>
<glyph name="v" format="1">
  <advance width="1011"/>
  <unicode hex="0076"/>
  <outline>
    <contour>
      <point x="422" y="0" type="line"/>
      <point x="585" y="0" type="line"/>
      <point x="1009" y="1097" type="line"/>
      <point x="852" y="1097" type="line"/>
      <point x="721" y="711"/>
      <point x="669" y="607"/>
      <point x="608" y="423" type="curve"/>
      <point x="564" y="290"/>
      <point x="541" y="246"/>
      <point x="509" y="140" type="curve"/>
      <point x="509" y="140"/>
      <point x="444" y="304"/>
      <point x="405" y="426" type="curve"/>
      <point x="157" y="1097" type="line"/>
      <point x="0" y="1097" type="line"/>
    </contour>
  </outline>
</glyph>
<glyph name="w" format="1">
  <advance width="1582"/>
  <unicode hex="0077"/>
  <outline>
    <contour>
      <point x="330" y="0" type="line"/>
      <point x="493" y="0" type="line"/>
      <point x="544" y="157"/>
      <point x="738" y="740"/>
      <point x="797" y="960" type="curve"/>
      <point x="858" y="752"/>
      <point x="1039" y="158"/>
      <point x="1090" y="0" type="curve"/>
      <point x="1253" y="0" type="line"/>
      <point x="1562" y="1097" type="line"/>
      <point x="1411" y="1097" type="line"/>
      <point x="1174" y="162" type="line"/>
      <point x="1127" y="318"/>
      <point x="949" y="889"/>
      <point x="884" y="1097" type="curve"/>
      <point x="713" y="1097" type="line"/>
      <point x="647" y="893"/>
      <point x="464" y="316"/>
      <point x="416" y="159" type="curve"/>
      <point x="173" y="1097" type="line"/>
      <point x="20" y="1097" type="line"/>
    </contour>
  </outline>
</glyph>
<glyph name="x" format="1">
  <advance width="1035"/>
  <unicode hex="0078"/>
  <outline>
    <contour>
      <point x="34" y="0" type="line"/>
      <point x="200" y="0" type="line"/>
      <point x="520" y="453" type="line"/>
      <point x="841" y="0" type="line"/>
      <point x="1001" y="0" type="line"/>
      <point x="600" y="554" type="line"/>
      <point x="992" y="1097" type="line"/>
      <point x="825" y="1097" type="line"/>
      <point x="519" y="662" type="line"/>
      <point x="213" y="1097" type="line"/>
      <point x="48" y="1097" type="line"/>
      <point x="439" y="557" type="line"/>
    </contour>
  </outline>
</glyph>
<glyph name="y" format="1">
  <advance width="1002"/>
  <unicode hex="0079"/>
  <outline>
    <contour>
      <point x="113" y="-508" type="curve" smooth="yes"/>
      <point x="332" y="-508"/>
      <point x="443" y="-392"/>
      <point x="531" y="-177" type="curve" smooth="yes"/>
      <point x="548" y="-130"/>
      <point x="989" y="1097"/>
      <point x="989" y="1097" type="curve"/>
      <point x="835" y="1097" type="line"/>
      <point x="849" y="1159"/>
      <point x="519" y="148"/>
      <point x="518" y="148" type="curve"/>
      <point x="159" y="1097" type="line"/>
      <point x="5" y="1097" type="line"/>
      <point x="441" y="1" type="line"/>
      <point x="418" y="-63"/>
      <point x="395" y="-122"/>
      <point x="375" y="-177" type="curve" smooth="yes"/>
      <point x="312" y="-338"/>
      <point x="245" y="-381"/>
      <point x="87" y="-381" type="curve" smooth="yes"/>
      <point x="62" y="-381"/>
      <point x="37" y="-379"/>
      <point x="10" y="-377" type="curve"/>
      <point x="20" y="-500" type="line"/>
      <point x="50" y="-505"/>
      <point x="81" y="-508"/>
    </contour>
  </outline>
</glyph>
<glyph name="z" format="1">
  <advance width="898"/>
  <unicode hex="007A"/>
  <outline>
    <contour>
      <point x="86" y="0" type="line"/>
      <point x="833" y="0" type="line"/>
      <point x="833" y="113" type="line"/>
      <point x="245" y="113" type="line"/>
      <point x="815" y="972" type="line"/>
      <point x="815" y="1097" type="line"/>
      <point x="98" y="1097" type="line"/>
      <point x="98" y="980" type="line"/>
      <point x="656" y="980" type="line"/>
      <point x="86" y="115" type="line"/>
    </contour>
  </outline>
</glyph>
<glyph name="braceleft" format="1">
  <advance width="721"/>
  <unicode hex="007B"/>
  <outline>
    <contour>
      <point x="627" y="-279" type="curve"/>
      <point x="627" y="-161" type="line"/>
      <point x="480" y="-159"/>
      <point x="438" y="-99"/>
      <point x="438" y="83" type="curve" smooth="yes"/>
      <point x="438" y="346" type="line" smooth="yes"/>
      <point x="438" y="459"/>
      <point x="391" y="583"/>
      <point x="258" y="631" type="curve"/>
      <point x="381" y="714"/>
      <point x="438" y="804"/>
      <point x="438" y="921" type="curve"/>
      <point x="438" y="1185" type="line" smooth="yes"/>
      <point x="438" y="1361"/>
      <point x="479" y="1428"/>
      <point x="627" y="1430" type="curve"/>
      <point x="627" y="1548" type="line"/>
      <point x="411" y="1548"/>
      <point x="291" y="1435"/>
      <point x="291" y="1233" type="curve" smooth="yes"/>
      <point x="291" y="1005" type="line" smooth="yes"/>
      <point x="291" y="810"/>
      <point x="297" y="699"/>
      <point x="80" y="695" type="curve"/>
      <point x="80" y="572" type="line"/>
      <point x="268" y="572"/>
      <point x="291" y="438"/>
      <point x="291" y="262" type="curve" smooth="yes"/>
      <point x="291" y="78" type="line" smooth="yes"/>
      <point x="291" y="-153"/>
      <point x="383" y="-278"/>
    </contour>
  </outline>
</glyph>
<glyph name="bar" format="1">
  <advance width="808"/>
  <unicode hex="007C"/>
  <outline>
    <contour>
      <point x="338" y="-406" type="line"/>
      <point x="470" y="-406" type="line"/>
      <point x="470" y="1592" type="line"/>
      <point x="338" y="1592" type="line"/>
    </contour>
  </outline>
</glyph>
<glyph name="braceright" format="1">
  <advance width="727"/>
  <unicode hex="007D"/>
  <outline>
    <contour>
      <point x="97" y="-279" type="line"/>
      <point x="319" y="-278"/>
      <point x="433" y="-165"/>
      <point x="433" y="34" type="curve" smooth="yes"/>
      <point x="433" y="262" type="line" smooth="yes"/>
      <point x="433" y="437"/>
      <point x="456" y="572"/>
      <point x="646" y="572" type="curve"/>
      <point x="646" y="695" type="line"/>
      <point x="451" y="698"/>
      <point x="433" y="828"/>
      <point x="433" y="1005" type="curve" smooth="yes"/>
      <point x="433" y="1190" type="line" smooth="yes"/>
      <point x="433" y="1418"/>
      <point x="338" y="1548"/>
      <point x="97" y="1548" type="curve"/>
      <point x="97" y="1430" type="line"/>
      <point x="244" y="1428"/>
      <point x="287" y="1361"/>
      <point x="287" y="1185" type="curve" smooth="yes"/>
      <point x="287" y="921" type="line"/>
      <point x="287" y="808"/>
      <point x="333" y="680"/>
      <point x="465" y="639" type="curve"/>
      <point x="326" y="530"/>
      <point x="287" y="469"/>
      <point x="287" y="346" type="curve" smooth="yes"/>
      <point x="287" y="83" type="line" smooth="yes"/>
      <point x="287" y="-98"/>
      <point x="242" y="-159"/>
      <point x="97" y="-161" type="curve"/>
    </contour>
  </outline>
</glyph>
<glyph name="asciitilde" format="1">
  <advance width="1246"/>
  <unicode hex="007E"/>
  <outline>
    <contour>
      <point x="164" y="513" type="line"/>
      <point x="211" y="604"/>
      <point x="293" y="677"/>
      <point x="382" y="677" type="curve" smooth="yes"/>
      <point x="452" y="677"/>
      <point x="530" y="640"/>
      <point x="636" y="590" type="curve"/>
      <point x="720" y="553"/>
      <point x="793" y="527"/>
      <point x="865" y="527" type="curve" smooth="yes"/>
      <point x="992" y="527"/>
      <point x="1073" y="601"/>
      <point x="1122" y="731" type="curve"/>
      <point x="1069" y="815" type="line"/>
      <point x="1031" y="729"/>
      <point x="949" y="652"/>
      <point x="867" y="652" type="curve" smooth="yes"/>
      <point x="807" y="652"/>
      <point x="726" y="693"/>
      <point x="628" y="737" type="curve"/>
      <point x="527" y="783"/>
      <point x="466" y="805"/>
      <point x="385" y="805" type="curve" smooth="yes"/>
      <point x="254" y="805"/>
      <point x="164" y="718"/>
      <point x="118" y="606" type="curve"/>
    </contour>
  </outline>
</glyph>
<glyph name="exclamdown" format="1">
  <advance width="617"/>
  <unicode hex="00A1"/>
  <outline>
    <contour>
      <point x="214" y="-193" type="line"/>
      <point x="402" y="-193" type="line"/>
      <point x="402" y="-76" type="line"/>
      <point x="340" y="885" type="line"/>
      <point x="267" y="885" type="line"/>
      <point x="214" y="-76" type="line"/>
    </contour>
    <contour>
      <point x="308" y="1075" type="curve" smooth="yes"/>
      <point x="396" y="1075"/>
      <point x="437" y="1139"/>
      <point x="437" y="1200" type="curve" smooth="yes"/>
      <point x="437" y="1260"/>
      <point x="396" y="1325"/>
      <point x="308" y="1325" type="curve" smooth="yes"/>
      <point x="219" y="1325"/>
      <point x="180" y="1260"/>
      <point x="180" y="1200" type="curve" smooth="yes"/>
      <point x="180" y="1139"/>
      <point x="219" y="1075"/>
    </contour>
  </outline>
</glyph>
<glyph name="cent" format="1">
  <advance width="1046"/>
  <unicode hex="00A2"/>
  <outline>
    <contour>
      <point x="557" y="-78" type="line"/>
      <point x="643" y="-78" type="line"/>
      <point x="643" y="74" type="line"/>
      <point x="739" y="81"/>
      <point x="841" y="115"/>
      <point x="902" y="174" type="curve"/>
      <point x="862" y="276" type="line"/>
      <point x="806" y="238"/>
      <point x="730" y="204"/>
      <point x="643" y="195" type="curve"/>
      <point x="643" y="1102" type="line"/>
      <point x="712" y="1097"/>
      <point x="787" y="1079"/>
      <point x="862" y="1029" type="curve"/>
      <point x="903" y="1130" type="line"/>
      <point x="850" y="1182"/>
      <point x="754" y="1218"/>
      <point x="643" y="1224" type="curve"/>
      <point x="643" y="1392" type="line"/>
      <point x="557" y="1392" type="line"/>
      <point x="557" y="1223" type="line"/>
      <point x="253" y="1194"/>
      <point x="85" y="912"/>
      <point x="83" y="643" type="curve" smooth="yes"/>
      <point x="83" y="373"/>
      <point x="245" y="102"/>
      <point x="557" y="74" type="curve"/>
    </contour>
    <contour>
      <point x="557" y="198" type="line"/>
      <point x="362" y="228"/>
      <point x="237" y="413"/>
      <point x="237" y="640" type="curve" smooth="yes"/>
      <point x="237" y="876"/>
      <point x="371" y="1073"/>
      <point x="557" y="1101" type="curve"/>
    </contour>
  </outline>
</glyph>
<glyph name="sterling" format="1">
  <advance width="1128"/>
  <unicode hex="00A3"/>
  <outline>
    <contour>
      <point x="98" y="0" type="line"/>
      <point x="1062" y="0" type="line"/>
      <point x="1055" y="137" type="line"/>
      <point x="463" y="137" type="line"/>
      <point x="386" y="137"/>
      <point x="368" y="130"/>
      <point x="289" y="125" type="curve"/>
      <point x="409" y="212"/>
      <point x="424" y="347"/>
      <point x="424" y="522" type="curve" smooth="yes"/>
      <point x="424" y="688" type="line"/>
      <point x="842" y="688" type="line"/>
      <point x="842" y="808" type="line"/>
      <point x="424" y="808" type="line"/>
      <point x="424" y="985" type="line" smooth="yes"/>
      <point x="424" y="1224"/>
      <point x="486" y="1381"/>
      <point x="694" y="1381" type="curve" smooth="yes"/>
      <point x="797" y="1381"/>
      <point x="885" y="1346"/>
      <point x="973" y="1277" type="curve"/>
      <point x="1045" y="1381" type="line"/>
      <point x="958" y="1455"/>
      <point x="843" y="1509"/>
      <point x="695" y="1509" type="curve" smooth="yes"/>
      <point x="331" y="1509"/>
      <point x="273" y="1204"/>
      <point x="273" y="901" type="curve" smooth="yes"/>
      <point x="273" y="808" type="line"/>
      <point x="87" y="808" type="line"/>
      <point x="87" y="688" type="line"/>
      <point x="273" y="688" type="line"/>
      <point x="273" y="443" type="line" smooth="yes"/>
      <point x="273" y="283"/>
      <point x="225" y="172"/>
      <point x="88" y="123" type="curve"/>
    </contour>
  </outline>
</glyph>
<glyph name="currency" format="1">
  <advance width="1149"/>
  <unicode hex="00A4"/>
  <outline>
    <contour>
      <point x="1026" y="233" type="line"/>
      <point x="1091" y="301" type="line"/>
      <point x="909" y="478" type="line"/>
      <point x="963" y="550"/>
      <point x="992" y="636"/>
      <point x="992" y="732" type="curve" smooth="yes"/>
      <point x="992" y="821"/>
      <point x="962" y="908"/>
      <point x="908" y="985" type="curve"/>
      <point x="1092" y="1163" type="line"/>
      <point x="1026" y="1231" type="line"/>
      <point x="839" y="1055" type="line"/>
      <point x="765" y="1116"/>
      <point x="676" y="1150"/>
      <point x="575" y="1150" type="curve" smooth="yes"/>
      <point x="475" y="1150"/>
      <point x="383" y="1117"/>
      <point x="310" y="1055" type="curve"/>
      <point x="125" y="1231" type="line"/>
      <point x="56" y="1165" type="line"/>
      <point x="242" y="985" type="line"/>
      <point x="188" y="911"/>
      <point x="158" y="824"/>
      <point x="158" y="732" type="curve" smooth="yes"/>
      <point x="158" y="639"/>
      <point x="188" y="551"/>
      <point x="242" y="478" type="curve"/>
      <point x="57" y="300" type="line"/>
      <point x="125" y="234" type="line"/>
      <point x="310" y="410" type="line"/>
      <point x="383" y="348"/>
      <point x="473" y="315"/>
      <point x="575" y="315" type="curve" smooth="yes"/>
      <point x="676" y="315"/>
      <point x="765" y="349"/>
      <point x="839" y="410" type="curve"/>
    </contour>
    <contour>
      <point x="575" y="413" type="curve" smooth="yes"/>
      <point x="401" y="413"/>
      <point x="260" y="555"/>
      <point x="260" y="732" type="curve" smooth="yes"/>
      <point x="260" y="908"/>
      <point x="400" y="1052"/>
      <point x="575" y="1052" type="curve" smooth="yes"/>
      <point x="749" y="1052"/>
      <point x="891" y="907"/>
      <point x="891" y="732" type="curve" smooth="yes"/>
      <point x="891" y="557"/>
      <point x="750" y="413"/>
    </contour>
  </outline>
</glyph>
<glyph name="yen" format="1">
  <advance width="1150"/>
  <unicode hex="00A5"/>
  <outline>
    <contour>
      <point x="494" y="0" type="line"/>
      <point x="639" y="0" type="line"/>
      <point x="639" y="318" type="line"/>
      <point x="1013" y="318" type="line"/>
      <point x="1013" y="435" type="line"/>
      <point x="639" y="435" type="line"/>
      <point x="639" y="617" type="line"/>
      <point x="1013" y="617" type="line"/>
      <point x="1013" y="735" type="line"/>
      <point x="702" y="735" type="line"/>
      <point x="1134" y="1483" type="line"/>
      <point x="977" y="1483" type="line"/>
      <point x="571" y="757" type="line"/>
      <point x="175" y="1483" type="line"/>
      <point x="15" y="1483" type="line"/>
      <point x="435" y="735" type="line"/>
      <point x="116" y="735" type="line"/>
      <point x="116" y="617" type="line"/>
      <point x="494" y="617" type="line"/>
      <point x="494" y="435" type="line"/>
      <point x="116" y="435" type="line"/>
      <point x="116" y="318" type="line"/>
      <point x="494" y="318" type="line"/>
    </contour>
  </outline>
</glyph>
<glyph name="brokenbar" format="1">
  <advance width="782"/>
  <unicode hex="00A6"/>
  <outline>
    <contour>
      <point x="325" y="-303" type="line"/>
      <point x="459" y="-303" type="line"/>
      <point x="459" y="403" type="line"/>
      <point x="325" y="403" type="line"/>
    </contour>
    <contour>
      <point x="325" y="861" type="line"/>
      <point x="459" y="861" type="line"/>
      <point x="459" y="1565" type="line"/>
      <point x="325" y="1565" type="line"/>
    </contour>
  </outline>
</glyph>
<glyph name="dieresis" format="1">
  <advance width="770"/>
  <unicode hex="00A8"/>
  <outline>
    <contour>
      <point x="127" y="1260" type="line"/>
      <point x="272" y="1260" type="line"/>
      <point x="272" y="1455" type="line"/>
      <point x="127" y="1455" type="line"/>
    </contour>
    <contour>
      <point x="510" y="1260" type="line"/>
      <point x="656" y="1260" type="line"/>
      <point x="656" y="1455" type="line"/>
      <point x="510" y="1455" type="line"/>
    </contour>
  </outline>
</glyph>
<glyph name="copyright" format="1">
  <advance width="1863"/>
  <unicode hex="00A9"/>
  <outline>
    <contour>
      <point x="919" y="224" type="curve" smooth="yes"/>
      <point x="1044" y="224"/>
      <point x="1176" y="264"/>
      <point x="1244" y="306" type="curve"/>
      <point x="1206" y="411" type="line"/>
      <point x="1154" y="374"/>
      <point x="1039" y="335"/>
      <point x="944" y="335" type="curve" smooth="yes"/>
      <point x="691" y="335"/>
      <point x="576" y="518"/>
      <point x="576" y="753" type="curve" smooth="yes"/>
      <point x="576" y="964"/>
      <point x="685" y="1157"/>
      <point x="925" y="1157" type="curve" smooth="yes"/>
      <point x="1024" y="1157"/>
      <point x="1137" y="1123"/>
      <point x="1198" y="1074" type="curve"/>
      <point x="1240" y="1178" type="line"/>
      <point x="1158" y="1235"/>
      <point x="1052" y="1270"/>
      <point x="932" y="1270" type="curve" smooth="yes"/>
      <point x="635" y="1270"/>
      <point x="441" y="1050"/>
      <point x="441" y="747" type="curve" smooth="yes"/>
      <point x="441" y="447"/>
      <point x="641" y="224"/>
    </contour>
    <contour>
      <point x="914" y="23" type="curve" smooth="yes"/>
      <point x="525" y="23"/>
      <point x="235" y="305"/>
      <point x="235" y="743" type="curve" smooth="yes"/>
      <point x="235" y="1178"/>
      <point x="520" y="1460"/>
      <point x="906" y="1460" type="curve" smooth="yes"/>
      <point x="1308" y="1460"/>
      <point x="1601" y="1172"/>
      <point x="1601" y="737" type="curve" smooth="yes"/>
      <point x="1601" y="305"/>
      <point x="1314" y="24"/>
    </contour>
    <contour>
      <point x="913" y="-69" type="curve" smooth="yes"/>
      <point x="1321" y="-69"/>
      <point x="1713" y="201"/>
      <point x="1713" y="741" type="curve" smooth="yes"/>
      <point x="1713" y="1278"/>
      <point x="1316" y="1551"/>
      <point x="907" y="1551" type="curve" smooth="yes"/>
      <point x="513" y="1551"/>
      <point x="123" y="1283"/>
      <point x="123" y="741" type="curve" smooth="yes"/>
      <point x="123" y="200"/>
      <point x="518" y="-69"/>
    </contour>
  </outline>
</glyph>
<glyph name="ordfeminine" format="1">
  <advance width="839"/>
  <unicode hex="00AA"/>
  <outline>
    <contour>
      <point x="383" y="875" type="curve" smooth="yes"/>
      <point x="475" y="875"/>
      <point x="521" y="915"/>
      <point x="559" y="976" type="curve"/>
      <point x="553" y="901" type="line"/>
      <point x="660" y="901" type="line"/>
      <point x="653" y="1036"/>
      <point x="651" y="1027"/>
      <point x="651" y="1046" type="curve"/>
      <point x="654" y="1370" type="line" smooth="yes"/>
      <point x="654" y="1559"/>
      <point x="551" y="1639"/>
      <point x="432" y="1639" type="curve" smooth="yes"/>
      <point x="317" y="1639"/>
      <point x="231" y="1609"/>
      <point x="167" y="1480" type="curve"/>
      <point x="240" y="1423" type="line"/>
      <point x="294" y="1532"/>
      <point x="355" y="1530"/>
      <point x="433" y="1530" type="curve" smooth="yes"/>
      <point x="540" y="1530"/>
      <point x="563" y="1474"/>
      <point x="567" y="1348" type="curve" smooth="yes"/>
      <point x="567" y="1339"/>
      <point x="567" y="1348"/>
      <point x="567" y="1339" type="curve"/>
      <point x="296" y="1328"/>
      <point x="162" y="1286"/>
      <point x="162" y="1106" type="curve" smooth="yes"/>
      <point x="162" y="971"/>
      <point x="252" y="875"/>
    </contour>
    <contour>
      <point x="148" y="699" type="line"/>
      <point x="683" y="699" type="line"/>
      <point x="683" y="796" type="line"/>
      <point x="148" y="796" type="line"/>
    </contour>
    <contour>
      <point x="402" y="975" type="curve" smooth="yes"/>
      <point x="315" y="975"/>
      <point x="257" y="1007"/>
      <point x="257" y="1100" type="curve" smooth="yes"/>
      <point x="257" y="1265"/>
      <point x="469" y="1245"/>
      <point x="567" y="1252" type="curve"/>
      <point x="567" y="1280" type="line"/>
      <point x="591" y="1128"/>
      <point x="554" y="975"/>
    </contour>
  </outline>
</glyph>
<glyph name="guillemotleft" format="1">
  <advance width="982"/>
  <unicode hex="00AB"/>
  <outline>
    <contour>
      <point x="390" y="153" type="line"/>
      <point x="517" y="184" type="line"/>
      <point x="250" y="561" type="line"/>
      <point x="522" y="935" type="line"/>
      <point x="393" y="965" type="line"/>
      <point x="103" y="560" type="line"/>
      <point x="130" y="512" type="line"/>
    </contour>
    <contour>
      <point x="762" y="153" type="curve"/>
      <point x="873" y="184" type="line"/>
      <point x="620" y="561" type="line"/>
      <point x="876" y="935" type="line"/>
      <point x="764" y="965" type="line"/>
      <point x="465" y="570" type="line"/>
      <point x="465" y="570"/>
      <point x="714" y="217"/>
    </contour>
  </outline>
</glyph>
<glyph name="logicalnot" format="1">
  <advance width="1211"/>
  <unicode hex="00AC"/>
  <outline>
    <contour>
      <point x="966" y="264" type="line"/>
      <point x="1088" y="264" type="line"/>
      <point x="1088" y="821" type="line"/>
      <point x="104" y="821" type="line"/>
      <point x="104" y="694" type="line"/>
      <point x="966" y="694" type="line"/>
    </contour>
  </outline>
</glyph>
<glyph name="uni00AD" format="1">
  <advance width="990"/>
  <unicode hex="00AD"/>
  <outline>
    <contour>
      <point x="115" y="190" type="line"/>
      <point x="881" y="190" type="line"/>
      <point x="881" y="323" type="line"/>
      <point x="115" y="323" type="line"/>
    </contour>
  </outline>
</glyph>
<glyph name="registered" format="1">
  <advance width="1844"/>
  <unicode hex="00AE"/>
  <outline>
    <contour>
      <point x="611" y="258" type="line"/>
      <point x="733" y="258" type="line"/>
      <point x="733" y="688" type="line"/>
      <point x="927" y="688" type="line" smooth="yes"/>
      <point x="1010" y="601"/>
      <point x="1118" y="387"/>
      <point x="1192" y="258" type="curve"/>
      <point x="1334" y="258" type="line"/>
      <point x="1186" y="502"/>
      <point x="1127" y="627"/>
      <point x="1049" y="707" type="curve"/>
      <point x="1241" y="728"/>
      <point x="1301" y="852"/>
      <point x="1301" y="973" type="curve" smooth="yes"/>
      <point x="1301" y="1143"/>
      <point x="1189" y="1241"/>
      <point x="939" y="1241" type="curve" smooth="yes"/>
      <point x="611" y="1241" type="line"/>
    </contour>
    <contour>
      <point x="733" y="800" type="line"/>
      <point x="733" y="1129" type="line"/>
      <point x="917" y="1129" type="line" smooth="yes"/>
      <point x="1094" y="1129"/>
      <point x="1165" y="1104"/>
      <point x="1165" y="963" type="curve" smooth="yes"/>
      <point x="1165" y="831"/>
      <point x="1082" y="800"/>
      <point x="927" y="800" type="curve" smooth="yes"/>
    </contour>
    <contour>
      <point x="914" y="23" type="curve" smooth="yes"/>
      <point x="525" y="23"/>
      <point x="235" y="305"/>
      <point x="235" y="743" type="curve" smooth="yes"/>
      <point x="235" y="1178"/>
      <point x="520" y="1460"/>
      <point x="906" y="1460" type="curve" smooth="yes"/>
      <point x="1308" y="1460"/>
      <point x="1601" y="1172"/>
      <point x="1601" y="737" type="curve" smooth="yes"/>
      <point x="1601" y="305"/>
      <point x="1314" y="24"/>
    </contour>
    <contour>
      <point x="913" y="-69" type="curve" smooth="yes"/>
      <point x="1321" y="-69"/>
      <point x="1713" y="201"/>
      <point x="1713" y="741" type="curve" smooth="yes"/>
      <point x="1713" y="1278"/>
      <point x="1316" y="1551"/>
      <point x="907" y="1551" type="curve" smooth="yes"/>
      <point x="513" y="1551"/>
      <point x="123" y="1283"/>
      <point x="123" y="741" type="curve" smooth="yes"/>
      <point x="123" y="200"/>
      <point x="518" y="-69"/>
    </contour>
  </outline>
</glyph>
<glyph name="degree" format="1">
  <advance width="845"/>
  <unicode hex="00B0"/>
  <outline>
    <contour>
      <point x="423" y="1010" type="curve" smooth="yes"/>
      <point x="321" y="1010"/>
      <point x="227" y="1090"/>
      <point x="227" y="1218" type="curve" smooth="yes"/>
      <point x="227" y="1346"/>
      <point x="321" y="1425"/>
      <point x="423" y="1425" type="curve" smooth="yes"/>
      <point x="526" y="1425"/>
      <point x="620" y="1345"/>
      <point x="620" y="1218" type="curve" smooth="yes"/>
      <point x="620" y="1091"/>
      <point x="526" y="1010"/>
    </contour>
    <contour>
      <point x="421" y="910" type="curve" smooth="yes"/>
      <point x="587" y="910"/>
      <point x="734" y="1035"/>
      <point x="734" y="1218" type="curve" smooth="yes"/>
      <point x="734" y="1404"/>
      <point x="586" y="1526"/>
      <point x="423" y="1526" type="curve" smooth="yes"/>
      <point x="260" y="1526"/>
      <point x="112" y="1404"/>
      <point x="112" y="1218" type="curve" smooth="yes"/>
      <point x="112" y="1031"/>
      <point x="259" y="910"/>
    </contour>
  </outline>
</glyph>
<glyph name="plusminus" format="1">
  <advance width="1183"/>
  <unicode hex="00B1"/>
  <outline>
    <contour>
      <point x="530" y="224" type="line"/>
      <point x="653" y="224" type="line"/>
      <point x="653" y="650" type="line"/>
      <point x="1077" y="650" type="line"/>
      <point x="1077" y="778" type="line"/>
      <point x="651" y="778" type="line"/>
      <point x="651" y="1209" type="line"/>
      <point x="529" y="1209" type="line"/>
      <point x="529" y="778" type="line"/>
      <point x="107" y="778" type="line"/>
      <point x="107" y="650" type="line"/>
      <point x="530" y="650" type="line"/>
    </contour>
    <contour>
      <point x="107" y="0" type="line"/>
      <point x="1079" y="0" type="line"/>
      <point x="1079" y="132" type="line"/>
      <point x="107" y="132" type="line"/>
    </contour>
  </outline>
</glyph>
<glyph name="uni00B3" format="1">
  <advance width="728"/>
  <unicode hex="00B3"/>
  <outline>
    <contour>
      <point x="331" y="649" type="curve" smooth="yes"/>
      <point x="462" y="649"/>
      <point x="568" y="757"/>
      <point x="568" y="914" type="curve" smooth="yes"/>
      <point x="568" y="1022"/>
      <point x="542" y="1085"/>
      <point x="472" y="1132" type="curve"/>
      <point x="517" y="1180"/>
      <point x="549" y="1254"/>
      <point x="547" y="1346" type="curve"/>
      <point x="547" y="1500"/>
      <point x="440" y="1607"/>
      <point x="330" y="1607" type="curve" smooth="yes"/>
      <point x="255" y="1607"/>
      <point x="177" y="1550"/>
      <point x="132" y="1482" type="curve"/>
      <point x="189" y="1383" type="line"/>
      <point x="246" y="1447"/>
      <point x="274" y="1482"/>
      <point x="333" y="1482" type="curve" smooth="yes"/>
      <point x="402" y="1482"/>
      <point x="467" y="1448"/>
      <point x="467" y="1345" type="curve" smooth="yes"/>
      <point x="467" y="1224"/>
      <point x="376" y="1196"/>
      <point x="282" y="1196" type="curve" smooth="yes"/>
      <point x="260" y="1196" type="line"/>
      <point x="260" y="1073" type="line"/>
      <point x="290" y="1073" type="line"/>
      <point x="410" y="1073"/>
      <point x="481" y="1037"/>
      <point x="481" y="920" type="curve" smooth="yes"/>
      <point x="481" y="828"/>
      <point x="406" y="762"/>
      <point x="325" y="762" type="curve" smooth="yes"/>
      <point x="275" y="762"/>
      <point x="249" y="792"/>
      <point x="196" y="855" type="curve"/>
      <point x="137" y="767" type="line"/>
      <point x="183" y="691"/>
      <point x="250" y="649"/>
    </contour>
  </outline>
</glyph>
<glyph name="acute" format="1">
  <advance width="643"/>
  <unicode hex="00B4"/>
  <outline>
    <contour>
      <point x="127" y="1268" type="line"/>
      <point x="222" y="1268" type="line"/>
      <point x="522" y="1655" type="line"/>
      <point x="317" y="1655" type="line"/>
    </contour>
  </outline>
</glyph>
<glyph name="paragraph" format="1">
  <advance width="1039"/>
  <unicode hex="00B6"/>
  <outline>
    <contour>
      <point x="442" y="-82" type="curve"/>
      <point x="552" y="-82" type="line"/>
      <point x="552" y="1424" type="line"/>
      <point x="749" y="1424" type="line"/>
      <point x="749" y="-82" type="line"/>
      <point x="853" y="-82" type="line"/>
      <point x="853" y="1424" type="line"/>
      <point x="927" y="1424" type="line"/>
      <point x="927" y="1538" type="line"/>
      <point x="474" y="1538" type="line" smooth="yes"/>
      <point x="173" y="1538"/>
      <point x="46" y="1374"/>
      <point x="46" y="1207" type="curve" smooth="yes"/>
      <point x="46" y="1034"/>
      <point x="197" y="857"/>
      <point x="441" y="855" type="curve"/>
      <point x="441" y="855"/>
      <point x="442" y="-82"/>
    </contour>
  </outline>
</glyph>
<glyph name="periodcentered" format="1">
  <advance width="478"/>
  <unicode hex="00B7"/>
  <outline>
    <contour>
      <point x="159" y="585" type="line"/>
      <point x="319" y="585" type="line"/>
      <point x="319" y="765" type="line"/>
      <point x="159" y="765" type="line"/>
    </contour>
  </outline>
</glyph>
<glyph name="cedilla" format="1">
  <advance width="597"/>
  <unicode hex="00B8"/>
  <outline>
    <contour>
      <point x="126" y="-410" type="line"/>
      <point x="268" y="-410" type="line"/>
      <point x="308" y="14" type="line"/>
      <point x="235" y="14" type="line"/>
    </contour>
  </outline>
</glyph>
<glyph name="uni00B9" format="1">
  <advance width="628"/>
  <unicode hex="00B9"/>
  <outline>
    <contour>
      <point x="157" y="665" type="line"/>
      <point x="489" y="665" type="line"/>
      <point x="489" y="746" type="line"/>
      <point x="373" y="746" type="line"/>
      <point x="373" y="1526" type="line"/>
      <point x="282" y="1527" type="line"/>
      <point x="246" y="1489"/>
      <point x="186" y="1452"/>
      <point x="146" y="1431" type="curve"/>
      <point x="146" y="1339" type="line"/>
      <point x="197" y="1368"/>
      <point x="232" y="1387"/>
      <point x="268" y="1412" type="curve"/>
      <point x="268" y="746" type="line"/>
      <point x="157" y="746" type="line"/>
    </contour>
  </outline>
</glyph>
<glyph name="guillemotright" format="1">
  <advance width="978"/>
  <unicode hex="00BB"/>
  <outline>
    <contour>
      <point x="212" y="153" type="line"/>
      <point x="511" y="551" type="line"/>
      <point x="212" y="965" type="line"/>
      <point x="102" y="935" type="line"/>
      <point x="355" y="562" type="line"/>
      <point x="100" y="184" type="line"/>
    </contour>
    <contour>
      <point x="594" y="153" type="line"/>
      <point x="881" y="551" type="line"/>
      <point x="597" y="965" type="line"/>
      <point x="474" y="935" type="line"/>
      <point x="738" y="562" type="line"/>
      <point x="469" y="184" type="line"/>
    </contour>
  </outline>
</glyph>
<glyph name="onequarter" format="1">
  <advance width="1582"/>
  <unicode hex="00BC"/>
  <outline>
    <contour>
      <point x="142" y="665" type="line"/>
      <point x="473" y="665" type="line"/>
      <point x="473" y="746" type="line"/>
      <point x="357" y="746" type="line"/>
      <point x="357" y="1526" type="line"/>
      <point x="266" y="1527" type="line"/>
      <point x="231" y="1489"/>
      <point x="171" y="1452"/>
      <point x="130" y="1431" type="curve"/>
      <point x="130" y="1339" type="line"/>
      <point x="181" y="1368"/>
      <point x="216" y="1387"/>
      <point x="253" y="1412" type="curve"/>
      <point x="253" y="746" type="line"/>
      <point x="142" y="746" type="line"/>
    </contour>
    <contour>
      <point x="1292" y="21" type="line"/>
      <point x="1392" y="21" type="line"/>
      <point x="1392" y="229" type="line"/>
      <point x="1496" y="229" type="line"/>
      <point x="1487" y="330" type="line"/>
      <point x="1394" y="330" type="line"/>
      <point x="1394" y="881" type="line"/>
      <point x="1287" y="881" type="line"/>
      <point x="909" y="315" type="line"/>
      <point x="909" y="229" type="line"/>
      <point x="1292" y="229" type="line"/>
    </contour>
    <contour>
      <point x="262" y="0" type="line"/>
      <point x="380" y="0" type="line"/>
      <point x="1282" y="1531" type="line"/>
      <point x="1167" y="1531" type="line"/>
    </contour>
    <contour>
      <point x="1032" y="330" type="line"/>
      <point x="1292" y="721" type="line"/>
      <point x="1291" y="687"/>
      <point x="1292" y="330"/>
      <point x="1292" y="330" type="curve"/>
    </contour>
  </outline>
</glyph>
<glyph name="onehalf" format="1">
  <advance width="1544"/>
  <unicode hex="00BD"/>
  <outline>
    <contour>
      <point x="142" y="665" type="line"/>
      <point x="473" y="665" type="line"/>
      <point x="473" y="746" type="line"/>
      <point x="357" y="746" type="line"/>
      <point x="357" y="1526" type="line"/>
      <point x="266" y="1527" type="line"/>
      <point x="231" y="1489"/>
      <point x="171" y="1452"/>
      <point x="130" y="1431" type="curve"/>
      <point x="130" y="1339" type="line"/>
      <point x="181" y="1368"/>
      <point x="216" y="1387"/>
      <point x="253" y="1412" type="curve"/>
      <point x="253" y="746" type="line"/>
      <point x="142" y="746" type="line"/>
    </contour>
    <contour>
      <point x="914" y="-16" type="line"/>
      <point x="1466" y="-16" type="line"/>
      <point x="1462" y="75" type="line"/>
      <point x="1058" y="75" type="line"/>
      <point x="1292" y="306"/>
      <point x="1476" y="462"/>
      <point x="1476" y="649" type="curve" smooth="yes"/>
      <point x="1476" y="812"/>
      <point x="1350" y="893"/>
      <point x="1214" y="893" type="curve" smooth="yes"/>
      <point x="1096" y="893"/>
      <point x="976" y="832"/>
      <point x="927" y="716" type="curve"/>
      <point x="1006" y="668" type="line"/>
      <point x="1067" y="763"/>
      <point x="1143" y="795"/>
      <point x="1213" y="795" type="curve" smooth="yes"/>
      <point x="1287" y="795"/>
      <point x="1360" y="741"/>
      <point x="1360" y="647" type="curve" smooth="yes"/>
      <point x="1360" y="532"/>
      <point x="1213" y="381"/>
      <point x="914" y="70" type="curve"/>
    </contour>
    <contour>
      <point x="257" y="0" type="line"/>
      <point x="375" y="0" type="line"/>
      <point x="1276" y="1531" type="line"/>
      <point x="1162" y="1531" type="line"/>
    </contour>
  </outline>
</glyph>
<glyph name="threequarters" format="1">
  <advance width="1618"/>
  <unicode hex="00BE"/>
  <outline>
    <contour>
      <point x="346" y="628" type="curve" smooth="yes"/>
      <point x="487" y="628"/>
      <point x="613" y="721"/>
      <point x="613" y="885" type="curve" smooth="yes"/>
      <point x="613" y="992"/>
      <point x="563" y="1060"/>
      <point x="470" y="1095" type="curve"/>
      <point x="538" y="1132"/>
      <point x="593" y="1185"/>
      <point x="593" y="1290" type="curve"/>
      <point x="593" y="1445"/>
      <point x="462" y="1520"/>
      <point x="337" y="1520" type="curve" smooth="yes"/>
      <point x="255" y="1520"/>
      <point x="172" y="1483"/>
      <point x="124" y="1436" type="curve"/>
      <point x="170" y="1348" type="line"/>
      <point x="211" y="1387"/>
      <point x="274" y="1416"/>
      <point x="337" y="1416" type="curve" smooth="yes"/>
      <point x="417" y="1416"/>
      <point x="472" y="1369"/>
      <point x="474" y="1288" type="curve" smooth="yes"/>
      <point x="477" y="1178"/>
      <point x="400" y="1143"/>
      <point x="302" y="1143" type="curve" smooth="yes"/>
      <point x="240" y="1143" type="line"/>
      <point x="240" y="1041" type="line"/>
      <point x="308" y="1041" type="line"/>
      <point x="426" y="1041"/>
      <point x="500" y="997"/>
      <point x="500" y="884" type="curve" smooth="yes"/>
      <point x="500" y="790"/>
      <point x="424" y="729"/>
      <point x="341" y="729" type="curve" smooth="yes"/>
      <point x="287" y="729"/>
      <point x="234" y="746"/>
      <point x="168" y="806" type="curve"/>
      <point x="122" y="720" type="line"/>
      <point x="178" y="658"/>
      <point x="263" y="628"/>
    </contour>
    <contour>
      <point x="1337" y="23" type="line"/>
      <point x="1437" y="23" type="line"/>
      <point x="1437" y="232" type="line"/>
      <point x="1540" y="232" type="line"/>
      <point x="1532" y="332" type="line"/>
      <point x="1438" y="332" type="line"/>
      <point x="1438" y="883" type="line"/>
      <point x="1330" y="883" type="line"/>
      <point x="953" y="317" type="line"/>
      <point x="953" y="232" type="line"/>
      <point x="1337" y="232" type="line"/>
    </contour>
    <contour>
      <point x="341" y="0" type="line"/>
      <point x="458" y="0" type="line"/>
      <point x="1364" y="1531" type="line"/>
      <point x="1244" y="1531" type="line"/>
    </contour>
    <contour>
      <point x="1075" y="332" type="line"/>
      <point x="1337" y="724" type="line"/>
      <point x="1335" y="674"/>
      <point x="1335" y="459"/>
      <point x="1335" y="332" type="curve"/>
    </contour>
  </outline>
</glyph>
<glyph name="AE" format="1">
  <advance width="2007"/>
  <unicode hex="00C6"/>
  <outline>
    <contour>
      <point x="47" y="0" type="line"/>
      <point x="205" y="0" type="line"/>
      <point x="470" y="465" type="line"/>
      <point x="1085" y="465" type="line"/>
      <point x="1120" y="0" type="line"/>
      <point x="1881" y="0" type="line"/>
      <point x="1886" y="135" type="line"/>
      <point x="1253" y="135" type="line"/>
      <point x="1208" y="719" type="line"/>
      <point x="1830" y="719" type="line"/>
      <point x="1830" y="853" type="line"/>
      <point x="1194" y="853" type="line"/>
      <point x="1154" y="1394" type="line"/>
      <point x="1865" y="1394" type="line"/>
      <point x="1869" y="1529" type="line"/>
      <point x="948" y="1529" type="line"/>
    </contour>
    <contour>
      <point x="540" y="594" type="line"/>
      <point x="1012" y="1394" type="line"/>
      <point x="1070" y="594" type="line"/>
    </contour>
  </outline>
</glyph>
<glyph name="Eth" format="1">
  <advance width="1510"/>
  <unicode hex="00D0"/>
  <outline>
    <contour>
      <point x="317" y="132" type="line"/>
      <point x="317" y="716" type="line"/>
      <point x="559" y="716" type="line"/>
      <point x="559" y="832" type="line"/>
      <point x="317" y="832" type="line"/>
      <point x="317" y="1361" type="line"/>
      <point x="556" y="1361" type="line" smooth="yes"/>
      <point x="965" y="1361"/>
      <point x="1230" y="1205"/>
      <point x="1230" y="736" type="curve" smooth="yes"/>
      <point x="1230" y="332"/>
      <point x="1008" y="132"/>
      <point x="621" y="132" type="curve" smooth="yes"/>
    </contour>
    <contour>
      <point x="164" y="0" type="line"/>
      <point x="619" y="0" type="line" smooth="yes"/>
      <point x="1092" y="0"/>
      <point x="1397" y="244"/>
      <point x="1397" y="740" type="curve" smooth="yes"/>
      <point x="1397" y="1292"/>
      <point x="1048" y="1492"/>
      <point x="551" y="1492" type="curve" smooth="yes"/>
      <point x="164" y="1492" type="line"/>
      <point x="164" y="832" type="line"/>
      <point x="34" y="832" type="line"/>
      <point x="34" y="716" type="line"/>
      <point x="164" y="716" type="line"/>
    </contour>
  </outline>
</glyph>
<glyph name="multiply" format="1">
  <advance width="1045"/>
  <unicode hex="00D7"/>
  <outline>
    <contour>
      <point x="814" y="220" type="line"/>
      <point x="907" y="307" type="line"/>
      <point x="612" y="624" type="line"/>
      <point x="908" y="942" type="line"/>
      <point x="816" y="1028" type="line"/>
      <point x="525" y="718" type="line"/>
      <point x="236" y="1029" type="line"/>
      <point x="144" y="943" type="line"/>
      <point x="439" y="624" type="line"/>
      <point x="143" y="307" type="line"/>
      <point x="236" y="220" type="line"/>
      <point x="525" y="530" type="line"/>
    </contour>
  </outline>
</glyph>
<glyph name="Oslash" format="1">
  <advance width="1643"/>
  <unicode hex="00D8"/>
  <outline>
    <contour>
      <point x="502" y="-204" type="line"/>
      <point x="588" y="7" type="line"/>
      <point x="658" y="-14"/>
      <point x="736" y="-24"/>
      <point x="822" y="-24" type="curve" smooth="yes"/>
      <point x="1290" y="-24"/>
      <point x="1535" y="308"/>
      <point x="1535" y="761" type="curve" smooth="yes"/>
      <point x="1535" y="1093"/>
      <point x="1411" y="1344"/>
      <point x="1184" y="1468" type="curve"/>
      <point x="1273" y="1686" type="line"/>
      <point x="1159" y="1726" type="line"/>
      <point x="1074" y="1515" type="line"/>
      <point x="998" y="1540"/>
      <point x="914" y="1553"/>
      <point x="823" y="1553" type="curve" smooth="yes"/>
      <point x="365" y="1553"/>
      <point x="108" y="1240"/>
      <point x="108" y="762" type="curve" smooth="yes"/>
      <point x="108" y="432"/>
      <point x="234" y="170"/>
      <point x="480" y="49" type="curve"/>
      <point x="394" y="-164" type="line"/>
    </contour>
    <contour>
      <point x="537" y="190" type="line"/>
      <point x="360" y="293"/>
      <point x="274" y="505"/>
      <point x="274" y="766" type="curve" smooth="yes"/>
      <point x="274" y="1147"/>
      <point x="459" y="1409"/>
      <point x="823" y="1409" type="curve" smooth="yes"/>
      <point x="896" y="1409"/>
      <point x="961" y="1399"/>
      <point x="1019" y="1379" type="curve"/>
    </contour>
    <contour>
      <point x="822" y="118" type="curve" smooth="yes"/>
      <point x="756" y="118"/>
      <point x="697" y="127"/>
      <point x="643" y="143" type="curve"/>
      <point x="1126" y="1327" type="line"/>
      <point x="1287" y="1220"/>
      <point x="1368" y="1019"/>
      <point x="1368" y="766" type="curve" smooth="yes"/>
      <point x="1368" y="390"/>
      <point x="1193" y="118"/>
    </contour>
  </outline>
</glyph>
<glyph name="Thorn" format="1">
  <advance width="1283"/>
  <unicode hex="00DE"/>
  <outline>
    <contour>
      <point x="164" y="0" type="line"/>
      <point x="317" y="0" type="line"/>
      <point x="317" y="352" type="line"/>
      <point x="317" y="352"/>
      <point x="724" y="349"/>
      <point x="728" y="349" type="curve" smooth="yes"/>
      <point x="1088" y="349"/>
      <point x="1212" y="531"/>
      <point x="1212" y="778" type="curve" smooth="yes"/>
      <point x="1212" y="1097"/>
      <point x="1024" y="1204"/>
      <point x="663" y="1204" type="curve" smooth="yes"/>
      <point x="317" y="1204" type="line"/>
      <point x="317" y="1492" type="line"/>
      <point x="164" y="1492" type="line"/>
    </contour>
    <contour>
      <point x="317" y="476" type="line"/>
      <point x="317" y="1076" type="line"/>
      <point x="680" y="1076" type="line" smooth="yes"/>
      <point x="967" y="1076"/>
      <point x="1062" y="982"/>
      <point x="1062" y="779" type="curve" smooth="yes"/>
      <point x="1062" y="609"/>
      <point x="984" y="476"/>
      <point x="725" y="476" type="curve" smooth="yes"/>
    </contour>
  </outline>
</glyph>
<glyph name="germandbls" format="1">
  <advance width="1214"/>
  <unicode hex="00DF"/>
  <outline>
    <contour>
      <point x="120" y="0" type="line"/>
      <point x="269" y="0" type="line"/>
      <point x="269" y="1069" type="line" smooth="yes"/>
      <point x="269" y="1264"/>
      <point x="348" y="1410"/>
      <point x="568" y="1410" type="curve" smooth="yes"/>
      <point x="718" y="1410"/>
      <point x="817" y="1328"/>
      <point x="817" y="1199" type="curve" smooth="yes"/>
      <point x="817" y="1057"/>
      <point x="695" y="1024"/>
      <point x="575" y="939" type="curve" smooth="yes"/>
      <point x="522" y="901"/>
      <point x="510" y="863"/>
      <point x="510" y="834" type="curve" smooth="yes"/>
      <point x="510" y="790"/>
      <point x="544" y="764"/>
      <point x="593" y="729" type="curve"/>
      <point x="721" y="642"/>
      <point x="1001" y="519"/>
      <point x="1001" y="345" type="curve" smooth="yes"/>
      <point x="1001" y="219"/>
      <point x="924" y="129"/>
      <point x="788" y="129" type="curve" smooth="yes"/>
      <point x="444" y="129" type="line"/>
      <point x="430" y="0" type="line" smooth="yes"/>
      <point x="785" y="0" type="line" smooth="yes"/>
      <point x="997" y="0"/>
      <point x="1158" y="90"/>
      <point x="1158" y="349" type="curve" smooth="yes"/>
      <point x="1158" y="609"/>
      <point x="856" y="705"/>
      <point x="667" y="851" type="curve"/>
      <point x="825" y="951"/>
      <point x="973" y="1000"/>
      <point x="973" y="1193" type="curve" smooth="yes"/>
      <point x="973" y="1404"/>
      <point x="817" y="1536"/>
      <point x="565" y="1536" type="curve" smooth="yes"/>
      <point x="257" y="1536"/>
      <point x="120" y="1351"/>
      <point x="120" y="1053" type="curve" smooth="yes"/>
    </contour>
  </outline>
</glyph>
<glyph name="ae" format="1">
  <advance width="1671"/>
  <unicode hex="00E6"/>
  <outline>
    <contour>
      <point x="400" y="-28" type="curve" smooth="yes"/>
      <point x="532" y="-28"/>
      <point x="734" y="30"/>
      <point x="868" y="95" type="curve"/>
      <point x="949" y="13"/>
      <point x="1045" y="-27"/>
      <point x="1162" y="-27" type="curve" smooth="yes"/>
      <point x="1334" y="-27"/>
      <point x="1478" y="47"/>
      <point x="1555" y="122" type="curve"/>
      <point x="1516" y="216" type="line"/>
      <point x="1433" y="161"/>
      <point x="1298" y="88"/>
      <point x="1169" y="88" type="curve"/>
      <point x="939" y="87"/>
      <point x="865" y="267"/>
      <point x="844" y="515" type="curve"/>
      <point x="781" y="510"/>
      <point x="1353" y="534"/>
      <point x="1329" y="532" type="curve"/>
      <point x="1529" y="543"/>
      <point x="1536" y="603"/>
      <point x="1536" y="722" type="curve" smooth="yes"/>
      <point x="1536" y="918"/>
      <point x="1443" y="1117"/>
      <point x="1181" y="1117" type="curve" smooth="yes"/>
      <point x="1045" y="1117"/>
      <point x="904" y="1065"/>
      <point x="830" y="915" type="curve"/>
      <point x="806" y="1054"/>
      <point x="675" y="1116"/>
      <point x="524" y="1117" type="curve"/>
      <point x="388" y="1120"/>
      <point x="201" y="1066"/>
      <point x="131" y="1019" type="curve"/>
      <point x="158" y="908" type="line"/>
      <point x="258" y="965"/>
      <point x="393" y="993"/>
      <point x="535" y="993" type="curve"/>
      <point x="672" y="997"/>
      <point x="728" y="937"/>
      <point x="728" y="803" type="curve" smooth="yes"/>
      <point x="728" y="607" type="line"/>
      <point x="679" y="607" type="line"/>
      <point x="392" y="602"/>
      <point x="85" y="567"/>
      <point x="85" y="289" type="curve" smooth="yes"/>
      <point x="85" y="17"/>
      <point x="247" y="-28"/>
    </contour>
    <contour>
      <point x="395" y="89" type="curve" smooth="yes"/>
      <point x="297" y="89"/>
      <point x="211" y="128"/>
      <point x="211" y="282" type="curve" smooth="yes"/>
      <point x="211" y="408"/>
      <point x="273" y="491"/>
      <point x="673" y="515" type="curve" smooth="yes"/>
      <point x="703" y="518"/>
      <point x="687" y="513"/>
      <point x="720" y="514" type="curve"/>
      <point x="729" y="379"/>
      <point x="748" y="287"/>
      <point x="815" y="166" type="curve"/>
      <point x="683" y="146"/>
      <point x="510" y="89"/>
    </contour>
    <contour>
      <point x="852" y="596" type="line"/>
      <point x="860" y="787"/>
      <point x="923" y="1010"/>
      <point x="1177" y="1010" type="curve" smooth="yes"/>
      <point x="1326" y="1010"/>
      <point x="1416" y="922"/>
      <point x="1418" y="615" type="curve" smooth="yes"/>
      <point x="1418" y="626"/>
      <point x="1419" y="619"/>
      <point x="1419" y="619" type="curve"/>
    </contour>
  </outline>
</glyph>
<glyph name="eth" format="1">
  <advance width="1199"/>
  <unicode hex="00F0"/>
  <outline>
    <contour>
      <point x="598" y="-26" type="curve" smooth="yes"/>
      <point x="940" y="-26"/>
      <point x="1107" y="207"/>
      <point x="1107" y="492" type="curve"/>
      <point x="1107" y="566"/>
      <point x="1090" y="630"/>
      <point x="1054" y="698" type="curve" smooth="yes"/>
      <point x="1016" y="951"/>
      <point x="849" y="1109"/>
      <point x="661" y="1310" type="curve"/>
      <point x="906" y="1411" type="line"/>
      <point x="868" y="1522" type="line"/>
      <point x="579" y="1402" type="line"/>
      <point x="412" y="1568" type="line"/>
      <point x="221" y="1568" type="line"/>
      <point x="464" y="1345" type="line"/>
      <point x="236" y="1254" type="line"/>
      <point x="270" y="1139" type="line"/>
      <point x="547" y="1255" type="line"/>
      <point x="691" y="1114"/>
      <point x="829" y="951"/>
      <point x="885" y="848" type="curve"/>
      <point x="817" y="904"/>
      <point x="729" y="971"/>
      <point x="577" y="971" type="curve" smooth="yes"/>
      <point x="287" y="971"/>
      <point x="94" y="776"/>
      <point x="94" y="486" type="curve" smooth="yes"/>
      <point x="94" y="220"/>
      <point x="268" y="-26"/>
    </contour>
    <contour>
      <point x="604" y="94" type="curve" smooth="yes"/>
      <point x="365" y="94"/>
      <point x="251" y="291"/>
      <point x="251" y="487" type="curve" smooth="yes"/>
      <point x="251" y="681"/>
      <point x="378" y="852"/>
      <point x="598" y="852" type="curve" smooth="yes"/>
      <point x="833" y="852"/>
      <point x="959" y="654"/>
      <point x="959" y="472" type="curve" smooth="yes"/>
      <point x="959" y="263"/>
      <point x="833" y="94"/>
    </contour>
  </outline>
</glyph>
<glyph name="divide" format="1">
  <advance width="1157"/>
  <unicode hex="00F7"/>
  <outline>
    <contour>
      <point x="469" y="51" type="line"/>
      <point x="660" y="51" type="line"/>
      <point x="660" y="266" type="line"/>
      <point x="469" y="266" type="line"/>
    </contour>
    <contour>
      <point x="79" y="538" type="line"/>
      <point x="1059" y="538" type="line"/>
      <point x="1059" y="673" type="line"/>
      <point x="79" y="673" type="line"/>
    </contour>
    <contour>
      <point x="469" y="927" type="line"/>
      <point x="678" y="927" type="line"/>
      <point x="678" y="1142" type="line"/>
      <point x="469" y="1142" type="line"/>
    </contour>
  </outline>
</glyph>
<glyph name="oslash" format="1">
  <advance width="1184"/>
  <unicode hex="00F8"/>
  <outline>
    <contour>
      <point x="285" y="-292" type="line"/>
      <point x="410" y="7" type="line"/>
      <point x="465" y="-14"/>
      <point x="526" y="-25"/>
      <point x="593" y="-25" type="curve" smooth="yes"/>
      <point x="917" y="-25"/>
      <point x="1098" y="234"/>
      <point x="1098" y="548" type="curve" smooth="yes"/>
      <point x="1098" y="771"/>
      <point x="1012" y="964"/>
      <point x="849" y="1058" type="curve"/>
      <point x="975" y="1360" type="line"/>
      <point x="902" y="1388" type="line"/>
      <point x="779" y="1090" type="line"/>
      <point x="725" y="1109"/>
      <point x="664" y="1120"/>
      <point x="598" y="1120" type="curve" smooth="yes"/>
      <point x="275" y="1120"/>
      <point x="87" y="865"/>
      <point x="87" y="546" type="curve" smooth="yes"/>
      <point x="87" y="324"/>
      <point x="178" y="134"/>
      <point x="342" y="40" type="curve"/>
      <point x="217" y="-259" type="line"/>
    </contour>
    <contour>
      <point x="392" y="161" type="line"/>
      <point x="289" y="242"/>
      <point x="240" y="386"/>
      <point x="240" y="543" type="curve" smooth="yes"/>
      <point x="240" y="786"/>
      <point x="354" y="1000"/>
      <point x="595" y="1000" type="curve" smooth="yes"/>
      <point x="647" y="1000"/>
      <point x="692" y="992"/>
      <point x="731" y="976" type="curve"/>
    </contour>
    <contour>
      <point x="599" y="95" type="curve" smooth="yes"/>
      <point x="546" y="95"/>
      <point x="499" y="104"/>
      <point x="458" y="122" type="curve"/>
      <point x="798" y="937" type="line"/>
      <point x="901" y="858"/>
      <point x="944" y="712"/>
      <point x="944" y="546" type="curve" smooth="yes"/>
      <point x="944" y="303"/>
      <point x="841" y="95"/>
    </contour>
  </outline>
</glyph>
<glyph name="gcommaaccent" format="1">
  <advance width="1169"/>
  <unicode hex="0123"/>
  <outline>
    <contour>
      <point x="498" y="1262" type="line"/>
      <point x="672" y="1262" type="line"/>
      <point x="782" y="1755" type="line"/>
      <point x="663" y="1755" type="line"/>
    </contour>
    <component base="g"/>
  </outline>
</glyph>
<glyph name="Hbar" format="1">
  <advance width="1457"/>
  <unicode hex="0126"/>
  <outline>
    <contour>
      <point x="151" y="0" type="line"/>
      <point x="308" y="0" type="line"/>
      <point x="308" y="708" type="line"/>
      <point x="1151" y="708" type="line"/>
      <point x="1151" y="0" type="line"/>
      <point x="1308" y="0" type="line"/>
      <point x="1308" y="1136" type="line"/>
      <point x="1399" y="1136" type="line"/>
      <point x="1399" y="1232" type="line"/>
      <point x="1308" y="1232" type="line"/>
      <point x="1308" y="1508" type="line"/>
      <point x="1151" y="1508" type="line"/>
      <point x="1151" y="1232" type="line"/>
      <point x="308" y="1232" type="line"/>
      <point x="308" y="1508" type="line"/>
      <point x="151" y="1508" type="line"/>
      <point x="151" y="1232" type="line"/>
      <point x="59" y="1232" type="line"/>
      <point x="59" y="1136" type="line"/>
      <point x="151" y="1136" type="line"/>
    </contour>
    <contour>
      <point x="308" y="847" type="line"/>
      <point x="308" y="1136" type="line"/>
      <point x="1151" y="1136" type="line"/>
      <point x="1151" y="847" type="line"/>
    </contour>
  </outline>
</glyph>
<glyph name="hbar" format="1">
  <advance width="1095"/>
  <unicode hex="0127"/>
  <outline>
    <contour>
      <point x="115" y="0" type="line"/>
      <point x="265" y="0" type="line"/>
      <point x="265" y="749" type="line"/>
      <point x="287" y="855"/>
      <point x="431" y="997"/>
      <point x="610" y="997" type="curve" smooth="yes"/>
      <point x="806" y="997"/>
      <point x="839" y="874"/>
      <point x="839" y="605" type="curve" smooth="yes"/>
      <point x="839" y="0" type="line"/>
      <point x="988" y="0" type="line"/>
      <point x="988" y="663" type="line" smooth="yes"/>
      <point x="988" y="937"/>
      <point x="897" y="1125"/>
      <point x="663" y="1125" type="curve" smooth="yes"/>
      <point x="493" y="1125"/>
      <point x="358" y="1059"/>
      <point x="265" y="941" type="curve"/>
      <point x="265" y="1284" type="line"/>
      <point x="536" y="1284" type="line"/>
      <point x="536" y="1394" type="line"/>
      <point x="265" y="1394" type="line"/>
      <point x="265" y="1509" type="line"/>
      <point x="115" y="1488" type="line"/>
      <point x="115" y="1394" type="line"/>
      <point x="24" y="1394" type="line"/>
      <point x="24" y="1284" type="line"/>
      <point x="115" y="1284" type="line"/>
    </contour>
  </outline>
</glyph>
<glyph name="dotlessi" format="1">
  <advance width="404"/>
  <unicode hex="0131"/>
  <outline>
    <contour>
      <point x="136" y="0" type="line"/>
      <point x="284" y="0" type="line"/>
      <point x="284" y="1097" type="line"/>
      <point x="136" y="1097" type="line"/>
    </contour>
  </outline>
</glyph>
<glyph name="Lslash" format="1">
  <advance width="948"/>
  <unicode hex="0141"/>
  <outline>
    <contour>
      <point x="152" y="0" type="line"/>
      <point x="963" y="0" type="line"/>
      <point x="974" y="140" type="line"/>
      <point x="309" y="140" type="line"/>
      <point x="309" y="687" type="line"/>
      <point x="664" y="876" type="line"/>
      <point x="664" y="1022" type="line"/>
      <point x="309" y="828" type="line"/>
      <point x="309" y="1507" type="line"/>
      <point x="152" y="1507" type="line"/>
      <point x="152" y="750" type="line"/>
      <point x="4" y="672" type="line"/>
      <point x="4" y="536" type="line"/>
      <point x="152" y="612" type="line"/>
    </contour>
  </outline>
</glyph>
<glyph name="lslash" format="1">
  <advance width="569"/>
  <unicode hex="0142"/>
  <outline>
    <contour>
      <point x="415" y="-23" type="curve" smooth="yes"/>
      <point x="428" y="-23"/>
      <point x="537" y="-16"/>
      <point x="596" y="-10" type="curve"/>
      <point x="581" y="109" type="line"/>
      <point x="524" y="104"/>
      <point x="465" y="98"/>
      <point x="435" y="98" type="curve" smooth="yes"/>
      <point x="295" y="98"/>
      <point x="292" y="176"/>
      <point x="292" y="429" type="curve" smooth="yes"/>
      <point x="292" y="657" type="line"/>
      <point x="472" y="806" type="line"/>
      <point x="472" y="940" type="line"/>
      <point x="292" y="791" type="line"/>
      <point x="292" y="1509" type="line"/>
      <point x="143" y="1489" type="line"/>
      <point x="143" y="667" type="line"/>
      <point x="31" y="575" type="line"/>
      <point x="31" y="442" type="line"/>
      <point x="143" y="534" type="line"/>
      <point x="143" y="471" type="line" smooth="yes"/>
      <point x="143" y="97"/>
      <point x="159" y="-23"/>
    </contour>
  </outline>
</glyph>
<glyph name="Eng" format="1">
  <advance width="1420"/>
  <unicode hex="014A"/>
  <outline>
    <contour>
      <point x="843" y="-334" type="curve"/>
      <point x="1199" y="-334"/>
      <point x="1260" y="-133"/>
      <point x="1260" y="171" type="curve" smooth="yes"/>
      <point x="1260" y="1025" type="line" smooth="yes"/>
      <point x="1260" y="1357"/>
      <point x="1119" y="1530"/>
      <point x="859" y="1530" type="curve" smooth="yes"/>
      <point x="683" y="1530"/>
      <point x="505" y="1503"/>
      <point x="307" y="1284" type="curve"/>
      <point x="291" y="1507" type="line"/>
      <point x="147" y="1507" type="line"/>
      <point x="149" y="0" type="line"/>
      <point x="305" y="0" type="line"/>
      <point x="305" y="1100" type="line"/>
      <point x="401" y="1238"/>
      <point x="566" y="1384"/>
      <point x="804" y="1384" type="curve" smooth="yes"/>
      <point x="1029" y="1384"/>
      <point x="1106" y="1297"/>
      <point x="1106" y="1022" type="curve" smooth="yes"/>
      <point x="1106" y="181" type="line" smooth="yes"/>
      <point x="1106" y="-118"/>
      <point x="1084" y="-196"/>
      <point x="787" y="-196" type="curve" smooth="yes"/>
      <point x="762" y="-196"/>
      <point x="752" y="-194"/>
      <point x="594" y="-184" type="curve"/>
      <point x="617" y="-316" type="line"/>
      <point x="760" y="-331"/>
      <point x="810" y="-334"/>
    </contour>
  </outline>
</glyph>
<glyph name="eng" format="1">
  <advance width="1103"/>
  <unicode hex="014B"/>
  <outline>
    <contour>
      <point x="619" y="-255" type="line"/>
      <point x="691" y="-255" type="line" smooth="yes"/>
      <point x="975" y="-255"/>
      <point x="993" y="-127"/>
      <point x="993" y="174" type="curve" smooth="yes"/>
      <point x="993" y="654" type="line" smooth="yes"/>
      <point x="993" y="971"/>
      <point x="889" y="1122"/>
      <point x="651" y="1121" type="curve" smooth="yes"/>
      <point x="501" y="1120"/>
      <point x="345" y="1051"/>
      <point x="261" y="930" type="curve"/>
      <point x="245" y="1098" type="line"/>
      <point x="117" y="1098" type="line"/>
      <point x="120" y="-1" type="line"/>
      <point x="269" y="-1" type="line"/>
      <point x="269" y="749" type="line"/>
      <point x="293" y="850"/>
      <point x="428" y="992"/>
      <point x="624" y="992" type="curve" smooth="yes"/>
      <point x="832" y="992"/>
      <point x="843" y="845"/>
      <point x="843" y="528" type="curve" smooth="yes"/>
      <point x="843" y="123" type="line" smooth="yes"/>
      <point x="843" y="-102"/>
      <point x="824" y="-128"/>
      <point x="650" y="-128" type="curve" smooth="yes"/>
      <point x="609" y="-128" type="line"/>
    </contour>
  </outline>
</glyph>
<glyph name="OE" format="1">
  <advance width="1965"/>
  <unicode hex="0152"/>
  <outline>
    <contour>
      <point x="820" y="-23" type="curve" smooth="yes"/>
      <point x="934" y="-23"/>
      <point x="1110" y="33"/>
      <point x="1144" y="71" type="curve"/>
      <point x="1144" y="0" type="line"/>
      <point x="1853" y="0" type="line"/>
      <point x="1868" y="132" type="line"/>
      <point x="1297" y="132" type="line"/>
      <point x="1297" y="702" type="line"/>
      <point x="1791" y="702" type="line"/>
      <point x="1791" y="834" type="line"/>
      <point x="1297" y="834" type="line"/>
      <point x="1297" y="1361" type="line"/>
      <point x="1828" y="1361" type="line"/>
      <point x="1845" y="1492" type="line"/>
      <point x="1144" y="1492" type="line"/>
      <point x="1144" y="1424" type="line"/>
      <point x="1073" y="1479"/>
      <point x="948" y="1519"/>
      <point x="800" y="1519" type="curve" smooth="yes"/>
      <point x="402" y="1519"/>
      <point x="114" y="1218"/>
      <point x="109" y="778" type="curve" smooth="yes"/>
      <point x="109" y="298"/>
      <point x="342" y="-23"/>
    </contour>
    <contour>
      <point x="822" y="106" type="curve" smooth="yes"/>
      <point x="408" y="108"/>
      <point x="275" y="411"/>
      <point x="275" y="772" type="curve" smooth="yes"/>
      <point x="279" y="1152"/>
      <point x="483" y="1389"/>
      <point x="811" y="1389" type="curve" smooth="yes"/>
      <point x="948" y="1389"/>
      <point x="1064" y="1346"/>
      <point x="1144" y="1287" type="curve"/>
      <point x="1144" y="199" type="line"/>
      <point x="1101" y="173"/>
      <point x="978" y="106"/>
    </contour>
  </outline>
</glyph>
<glyph name="oe" format="1">
  <advance width="1923"/>
  <unicode hex="0153"/>
  <outline>
    <contour>
      <point x="587" y="-25" type="curve" smooth="yes"/>
      <point x="792" y="-25"/>
      <point x="934" y="80"/>
      <point x="1009" y="237" type="curve"/>
      <point x="1086" y="72"/>
      <point x="1233" y="-25"/>
      <point x="1435" y="-25" type="curve" smooth="yes"/>
      <point x="1602" y="-25"/>
      <point x="1716" y="22"/>
      <point x="1814" y="93" type="curve"/>
      <point x="1777" y="205" type="line"/>
      <point x="1690" y="154"/>
      <point x="1600" y="98"/>
      <point x="1439" y="98" type="curve" smooth="yes"/>
      <point x="1234" y="98"/>
      <point x="1089" y="261"/>
      <point x="1088" y="526" type="curve"/>
      <point x="1833" y="526" type="line"/>
      <point x="1833" y="546"/>
      <point x="1835" y="584"/>
      <point x="1835" y="601" type="curve" smooth="yes"/>
      <point x="1835" y="918"/>
      <point x="1681" y="1120"/>
      <point x="1416" y="1120" type="curve" smooth="yes"/>
      <point x="1236" y="1116"/>
      <point x="1088" y="1018"/>
      <point x="1012" y="860" type="curve"/>
      <point x="939" y="1017"/>
      <point x="800" y="1120"/>
      <point x="592" y="1120" type="curve" smooth="yes"/>
      <point x="268" y="1120"/>
      <point x="89" y="865"/>
      <point x="89" y="546" type="curve" smooth="yes"/>
      <point x="89" y="227"/>
      <point x="268" y="-25"/>
    </contour>
    <contour>
      <point x="592" y="95" type="curve" smooth="yes"/>
      <point x="347" y="95"/>
      <point x="243" y="304"/>
      <point x="243" y="543" type="curve" smooth="yes"/>
      <point x="243" y="786"/>
      <point x="347" y="1000"/>
      <point x="589" y="1000" type="curve" smooth="yes"/>
      <point x="841" y="1000"/>
      <point x="935" y="795"/>
      <point x="935" y="546" type="curve" smooth="yes"/>
      <point x="935" y="303"/>
      <point x="835" y="95"/>
    </contour>
    <contour>
      <point x="1093" y="634" type="line"/>
      <point x="1113" y="851"/>
      <point x="1231" y="999"/>
      <point x="1409" y="999" type="curve" smooth="yes"/>
      <point x="1578" y="999"/>
      <point x="1682" y="878"/>
      <point x="1686" y="645" type="curve" smooth="yes"/>
      <point x="1686" y="641"/>
      <point x="1686" y="637"/>
      <point x="1686" y="634" type="curve"/>
    </contour>
  </outline>
</glyph>
<glyph name="uni018F" format="1">
  <advance width="1427"/>
  <unicode hex="018F"/>
  <outline>
    <contour>
      <point x="664" y="-23" type="curve" smooth="yes"/>
      <point x="1068" y="-23"/>
      <point x="1317" y="319"/>
      <point x="1317" y="763" type="curve" smooth="yes"/>
      <point x="1317" y="1177"/>
      <point x="1077" y="1520"/>
      <point x="612" y="1520" type="curve" smooth="yes"/>
      <point x="404" y="1520"/>
      <point x="287" y="1473"/>
      <point x="157" y="1379" type="curve"/>
      <point x="217" y="1262" type="line"/>
      <point x="321" y="1329"/>
      <point x="428" y="1389"/>
      <point x="602" y="1389" type="curve" smooth="yes"/>
      <point x="1002" y="1389"/>
      <point x="1147" y="1078"/>
      <point x="1150" y="775" type="curve"/>
      <point x="39" y="775" type="line"/>
      <point x="39" y="775"/>
      <point x="37" y="685"/>
      <point x="37" y="641" type="curve" smooth="yes"/>
      <point x="50" y="388"/>
      <point x="174" y="-23"/>
    </contour>
    <contour>
      <point x="665" y="106" type="curve" smooth="yes"/>
      <point x="274" y="106"/>
      <point x="201" y="438"/>
      <point x="188" y="650" type="curve"/>
      <point x="1145" y="650" type="line"/>
      <point x="1120" y="335"/>
      <point x="940" y="106"/>
    </contour>
  </outline>
</glyph>
<glyph name="florin" format="1">
  <advance width="961"/>
  <unicode hex="0192"/>
  <outline>
    <contour>
      <point x="110" y="-358" type="curve" smooth="yes"/>
      <point x="328" y="-358"/>
      <point x="380" y="-159"/>
      <point x="428" y="108" type="curve" smooth="yes"/>
      <point x="566" y="909" type="line"/>
      <point x="770" y="909" type="line"/>
      <point x="781" y="1030" type="line"/>
      <point x="587" y="1030" type="line"/>
      <point x="625" y="1256" type="line" smooth="yes"/>
      <point x="642" y="1366"/>
      <point x="685" y="1440"/>
      <point x="786" y="1440" type="curve" smooth="yes"/>
      <point x="814" y="1440"/>
      <point x="845" y="1433"/>
      <point x="881" y="1418" type="curve"/>
      <point x="889" y="1546" type="line"/>
      <point x="839" y="1561"/>
      <point x="805" y="1567"/>
      <point x="768" y="1567" type="curve" smooth="yes"/>
      <point x="554" y="1567"/>
      <point x="488" y="1392"/>
      <point x="460" y="1204" type="curve" smooth="yes"/>
      <point x="435" y="1030" type="line"/>
      <point x="258" y="1030" type="line"/>
      <point x="248" y="908" type="line"/>
      <point x="411" y="908" type="line"/>
      <point x="384" y="763"/>
      <point x="289" y="158"/>
      <point x="253" y="-2" type="curve" smooth="yes"/>
      <point x="228" y="-125"/>
      <point x="188" y="-234"/>
      <point x="102" y="-234" type="curve" smooth="yes"/>
      <point x="76" y="-234"/>
      <point x="51" y="-224"/>
      <point x="37" y="-219" type="curve"/>
      <point x="20" y="-337" type="line"/>
      <point x="50" y="-350"/>
      <point x="87" y="-358"/>
    </contour>
  </outline>
</glyph>
<glyph name="uni0237" format="1">
  <advance width="426"/>
  <unicode hex="0237"/>
  <outline>
    <contour>
      <point x="-59" y="-546" type="line"/>
      <point x="-4" y="-546" type="line" smooth="yes"/>
      <point x="256" y="-546"/>
      <point x="313" y="-468"/>
      <point x="313" y="-215" type="curve" smooth="yes"/>
      <point x="313" y="1101" type="line"/>
      <point x="160" y="1101" type="line"/>
      <point x="160" y="-177" type="line" smooth="yes"/>
      <point x="160" y="-341"/>
      <point x="157" y="-410"/>
      <point x="-29" y="-410" type="curve" smooth="yes"/>
      <point x="-84" y="-410" type="line"/>
    </contour>
  </outline>
</glyph>
<glyph name="uni0259" format="1">
  <advance width="1086"/>
  <unicode hex="0259"/>
  <outline>
    <contour>
      <point x="515" y="-26" type="curve" smooth="yes"/>
      <point x="664" y="-26"/>
      <point x="998" y="216"/>
      <point x="998" y="545" type="curve" smooth="yes"/>
      <point x="998" y="898"/>
      <point x="809" y="1121"/>
      <point x="506" y="1121" type="curve" smooth="yes"/>
      <point x="332" y="1121"/>
      <point x="190" y="1066"/>
      <point x="101" y="987" type="curve"/>
      <point x="148" y="879" type="line"/>
      <point x="229" y="932"/>
      <point x="343" y="991"/>
      <point x="502" y="991" type="curve" smooth="yes"/>
      <point x="696" y="991"/>
      <point x="845" y="826"/>
      <point x="844" y="569" type="curve"/>
      <point x="89" y="569" type="line"/>
      <point x="89" y="552"/>
      <point x="87" y="511"/>
      <point x="87" y="498" type="curve" smooth="yes"/>
      <point x="87" y="167"/>
      <point x="251" y="-26"/>
    </contour>
    <contour>
      <point x="524" y="93" type="curve" smooth="yes"/>
      <point x="354" y="93"/>
      <point x="233" y="216"/>
      <point x="233" y="462" type="curve"/>
      <point x="838" y="462" type="line"/>
      <point x="822" y="246"/>
      <point x="702" y="93"/>
    </contour>
  </outline>
</glyph>
<glyph name="afii57929" format="1">
  <advance width="530"/>
  <unicode hex="02BC"/>
  <outline>
    <contour>
      <point x="138" y="1142" type="line"/>
      <point x="249" y="1142" type="line"/>
      <point x="400" y="1603" type="line"/>
      <point x="253" y="1603" type="line"/>
    </contour>
  </outline>
</glyph>
<glyph name="circumflex" format="1">
  <advance width="806"/>
  <unicode hex="02C6"/>
  <outline>
    <contour>
      <point x="122" y="1279" type="line"/>
      <point x="232" y="1279" type="line"/>
      <point x="400" y="1563" type="line"/>
      <point x="568" y="1279" type="line"/>
      <point x="681" y="1279" type="line"/>
      <point x="502" y="1653" type="line"/>
      <point x="299" y="1653" type="line"/>
    </contour>
  </outline>
</glyph>
<glyph name="caron" format="1">
  <advance width="806"/>
  <unicode hex="02C7"/>
  <outline>
    <contour>
      <point x="301" y="1279" type="line"/>
      <point x="504" y="1279" type="line"/>
      <point x="681" y="1653" type="line"/>
      <point x="569" y="1653" type="line"/>
      <point x="401" y="1350" type="line"/>
      <point x="233" y="1653" type="line"/>
      <point x="122" y="1653" type="line"/>
    </contour>
  </outline>
</glyph>
<glyph name="breve" format="1">
  <advance width="764"/>
  <unicode hex="02D8"/>
  <outline>
    <contour>
      <point x="383" y="1327" type="curve" smooth="yes"/>
      <point x="507" y="1327"/>
      <point x="627" y="1413"/>
      <point x="627" y="1582" type="curve"/>
      <point x="521" y="1582" type="line"/>
      <point x="521" y="1475"/>
      <point x="462" y="1425"/>
      <point x="383" y="1425" type="curve" smooth="yes"/>
      <point x="303" y="1425"/>
      <point x="247" y="1475"/>
      <point x="247" y="1582" type="curve"/>
      <point x="143" y="1582" type="line"/>
      <point x="143" y="1413"/>
      <point x="260" y="1326"/>
    </contour>
  </outline>
</glyph>
<glyph name="dotaccent" format="1">
  <advance width="383"/>
  <unicode hex="02D9"/>
  <outline>
    <contour>
      <point x="114" y="1314" type="line"/>
      <point x="275" y="1314" type="line"/>
      <point x="275" y="1506" type="line"/>
      <point x="114" y="1506" type="line"/>
    </contour>
  </outline>
</glyph>
<glyph name="ring" format="1">
  <advance width="628"/>
  <unicode hex="02DA"/>
  <outline>
    <contour>
      <point x="317" y="1358" type="curve" smooth="yes"/>
      <point x="263" y="1358"/>
      <point x="221" y="1398"/>
      <point x="221" y="1467" type="curve" smooth="yes"/>
      <point x="221" y="1533"/>
      <point x="268" y="1579"/>
      <point x="317" y="1579" type="curve" smooth="yes"/>
      <point x="368" y="1579"/>
      <point x="411" y="1533"/>
      <point x="412" y="1467" type="curve" smooth="yes"/>
      <point x="412" y="1402"/>
      <point x="366" y="1358"/>
    </contour>
    <contour>
      <point x="319" y="1286" type="curve" smooth="yes"/>
      <point x="413" y="1286"/>
      <point x="505" y="1350"/>
      <point x="505" y="1467" type="curve" smooth="yes"/>
      <point x="505" y="1582"/>
      <point x="414" y="1655"/>
      <point x="316" y="1655" type="curve" smooth="yes"/>
      <point x="220" y="1655"/>
      <point x="127" y="1587"/>
      <point x="127" y="1467" type="curve" smooth="yes"/>
      <point x="127" y="1352"/>
      <point x="220" y="1286"/>
    </contour>
  </outline>
</glyph>
<glyph name="ogonek" format="1">
  <advance width="593"/>
  <unicode hex="02DB"/>
  <outline>
    <contour>
      <point x="309" y="-428" type="curve" smooth="yes"/>
      <point x="361" y="-428"/>
      <point x="425" y="-411"/>
      <point x="458" y="-397" type="curve"/>
      <point x="458" y="-288" type="line"/>
      <point x="399" y="-314"/>
      <point x="374" y="-319"/>
      <point x="322" y="-319" type="curve" smooth="yes"/>
      <point x="284" y="-319"/>
      <point x="233" y="-286"/>
      <point x="233" y="-229" type="curve" smooth="yes"/>
      <point x="233" y="-160"/>
      <point x="317" y="-86"/>
      <point x="425" y="-4" type="curve"/>
      <point x="310" y="-4" type="line"/>
      <point x="211" y="-64"/>
      <point x="119" y="-148"/>
      <point x="119" y="-250" type="curve" smooth="yes"/>
      <point x="119" y="-363"/>
      <point x="202" y="-428"/>
    </contour>
  </outline>
</glyph>
<glyph name="tilde" format="1">
  <advance width="907"/>
  <unicode hex="02DC"/>
  <outline>
    <contour>
      <point x="132" y="1313" type="curve"/>
      <point x="231" y="1313" type="line"/>
      <point x="234" y="1366"/>
      <point x="251" y="1412"/>
      <point x="289" y="1413" type="curve" smooth="yes"/>
      <point x="314" y="1413"/>
      <point x="499" y="1313"/>
      <point x="584" y="1313" type="curve" smooth="yes"/>
      <point x="680" y="1313"/>
      <point x="726" y="1377"/>
      <point x="729" y="1516" type="curve"/>
      <point x="629" y="1516" type="line"/>
      <point x="626" y="1477"/>
      <point x="621" y="1422"/>
      <point x="578" y="1421" type="curve" smooth="yes"/>
      <point x="551" y="1421"/>
      <point x="402" y="1516"/>
      <point x="298" y="1516" type="curve" smooth="yes"/>
      <point x="201" y="1516"/>
      <point x="134" y="1465"/>
    </contour>
  </outline>
</glyph>
<glyph name="hungarumlaut" format="1">
  <advance width="780"/>
  <unicode hex="02DD"/>
  <outline>
    <contour>
      <point x="123" y="1292" type="line"/>
      <point x="214" y="1292" type="line"/>
      <point x="448" y="1619" type="line"/>
      <point x="311" y="1619" type="line"/>
    </contour>
    <contour>
      <point x="339" y="1292" type="line"/>
      <point x="434" y="1292" type="line"/>
      <point x="664" y="1619" type="line"/>
      <point x="531" y="1619" type="line"/>
    </contour>
  </outline>
</glyph>
<glyph name="uni0307" format="1">
  <advance width="388"/>
  <unicode hex="0307"/>
  <outline>
    <contour>
      <point x="119" y="1326" type="line"/>
      <point x="286" y="1326" type="line"/>
      <point x="286" y="1510" type="line"/>
      <point x="119" y="1510" type="line"/>
    </contour>
  </outline>
</glyph>
<glyph name="uni030F" format="1">
  <advance width="827"/>
  <unicode hex="030F"/>
  <outline>
    <contour>
      <point x="369" y="1279" type="line"/>
      <point x="455" y="1279" type="line"/>
      <point x="255" y="1613" type="line"/>
      <point x="133" y="1613" type="line"/>
    </contour>
    <contour>
      <point x="615" y="1279" type="line"/>
      <point x="698" y="1279" type="line"/>
      <point x="507" y="1613" type="line"/>
      <point x="380" y="1613" type="line"/>
    </contour>
  </outline>
</glyph>
<glyph name="uni0311" format="1">
  <advance width="779"/>
  <unicode hex="0311"/>
  <outline>
    <contour>
      <point x="150" y="1321" type="curve"/>
      <point x="254" y="1321" type="line"/>
      <point x="254" y="1417"/>
      <point x="319" y="1464"/>
      <point x="390" y="1464" type="curve" smooth="yes"/>
      <point x="462" y="1464"/>
      <point x="528" y="1417"/>
      <point x="528" y="1321" type="curve"/>
      <point x="634" y="1321" type="line"/>
      <point x="634" y="1485"/>
      <point x="511" y="1567"/>
      <point x="390" y="1567" type="curve" smooth="yes"/>
      <point x="271" y="1567"/>
      <point x="150" y="1485"/>
    </contour>
  </outline>
</glyph>
<glyph name="uni0326" format="1">
  <advance width="554"/>
  <unicode hex="0326"/>
  <outline>
    <contour>
      <point x="157" y="-672" type="line"/>
      <point x="262" y="-672" type="line"/>
      <point x="400" y="-179" type="line"/>
      <point x="247" y="-179" type="line"/>
    </contour>
  </outline>
</glyph>
<glyph name="Delta" format="1">
  <advance width="1265"/>
  <unicode hex="0394"/>
  <outline>
    <contour>
      <point x="-10" y="0" type="line"/>
      <point x="1275" y="0" type="line"/>
      <point x="707" y="1492" type="line"/>
      <point x="553" y="1492" type="line"/>
    </contour>
    <contour>
      <point x="202" y="134" type="line"/>
      <point x="632" y="1322" type="line"/>
      <point x="1064" y="134" type="line"/>
    </contour>
  </outline>
</glyph>
<glyph name="pi" format="1">
  <advance width="1464"/>
  <unicode hex="03C0"/>
  <outline>
    <contour>
      <point x="1161" y="-8" type="curve" smooth="yes"/>
      <point x="1194" y="-8"/>
      <point x="1238" y="-2"/>
      <point x="1283" y="6" type="curve"/>
      <point x="1277" y="140" type="line"/>
      <point x="1253" y="134"/>
      <point x="1209" y="128"/>
      <point x="1194" y="128" type="curve" smooth="yes"/>
      <point x="1115" y="128"/>
      <point x="1112" y="208"/>
      <point x="1112" y="290" type="curve" smooth="yes"/>
      <point x="1112" y="982" type="line"/>
      <point x="1291" y="982" type="line"/>
      <point x="1291" y="1108" type="line"/>
      <point x="480" y="1108" type="line" smooth="yes"/>
      <point x="327" y="1108"/>
      <point x="236" y="1090"/>
      <point x="183" y="1044" type="curve"/>
      <point x="196" y="912" type="line"/>
      <point x="259" y="955"/>
      <point x="341" y="980"/>
      <point x="445" y="982" type="curve"/>
      <point x="436" y="594"/>
      <point x="386" y="180"/>
      <point x="302" y="0" type="curve"/>
      <point x="445" y="0" type="line"/>
      <point x="513" y="124"/>
      <point x="567" y="550"/>
      <point x="584" y="982" type="curve"/>
      <point x="981" y="982" type="line"/>
      <point x="981" y="288" type="line" smooth="yes"/>
      <point x="981" y="55"/>
      <point x="1033" y="-8"/>
    </contour>
  </outline>
</glyph>
<glyph name="afii10053" format="1">
  <advance width="1310"/>
  <unicode hex="0404"/>
  <outline>
    <contour>
      <point x="767" y="-24" type="curve" smooth="yes"/>
      <point x="973" y="-24"/>
      <point x="1118" y="29"/>
      <point x="1211" y="113" type="curve"/>
      <point x="1151" y="229" type="line"/>
      <point x="1074" y="167"/>
      <point x="933" y="110"/>
      <point x="774" y="110" type="curve" smooth="yes"/>
      <point x="439" y="110"/>
      <point x="271" y="373"/>
      <point x="243" y="669" type="curve"/>
      <point x="936" y="669" type="line"/>
      <point x="936" y="808" type="line"/>
      <point x="240" y="808" type="line"/>
      <point x="252" y="1113"/>
      <point x="394" y="1402"/>
      <point x="787" y="1402" type="curve" smooth="yes"/>
      <point x="942" y="1402"/>
      <point x="1076" y="1343"/>
      <point x="1152" y="1281" type="curve"/>
      <point x="1205" y="1409" type="line"/>
      <point x="1115" y="1495"/>
      <point x="975" y="1536"/>
      <point x="773" y="1536" type="curve" smooth="yes"/>
      <point x="288" y="1536"/>
      <point x="66" y="1177"/>
      <point x="66" y="763" type="curve" smooth="yes"/>
      <point x="66" y="324"/>
      <point x="294" y="-24"/>
    </contour>
  </outline>
</glyph>
<glyph name="afii10058" format="1">
  <advance width="1813"/>
  <unicode hex="0409"/>
  <outline>
    <contour>
      <point x="40" y="-28" type="line"/>
      <point x="62" y="-28" type="line" smooth="yes"/>
      <point x="410" y="-28"/>
      <point x="431" y="126"/>
      <point x="431" y="431" type="curve"/>
      <point x="434" y="1369" type="line"/>
      <point x="833" y="1369" type="line"/>
      <point x="826" y="-1" type="line"/>
      <point x="1271" y="-1" type="line" smooth="yes"/>
      <point x="1544" y="-1"/>
      <point x="1713" y="141"/>
      <point x="1713" y="425" type="curve" smooth="yes"/>
      <point x="1713" y="739"/>
      <point x="1538" y="869"/>
      <point x="1272" y="869" type="curve" smooth="yes"/>
      <point x="995" y="869" type="line"/>
      <point x="995" y="1510" type="line"/>
      <point x="272" y="1510" type="line"/>
      <point x="272" y="382" type="line" smooth="yes"/>
      <point x="272" y="236"/>
      <point x="265" y="117"/>
      <point x="80" y="117" type="curve" smooth="yes"/>
      <point x="40" y="118" type="line"/>
    </contour>
    <contour>
      <point x="991" y="136" type="line"/>
      <point x="991" y="730" type="line"/>
      <point x="1268" y="730" type="line" smooth="yes"/>
      <point x="1429" y="730"/>
      <point x="1541" y="608"/>
      <point x="1541" y="427" type="curve" smooth="yes"/>
      <point x="1541" y="245"/>
      <point x="1424" y="136"/>
      <point x="1268" y="136" type="curve" smooth="yes"/>
    </contour>
  </outline>
</glyph>
<glyph name="afii10018" format="1">
  <advance width="1165"/>
  <unicode hex="0411"/>
  <outline>
    <contour>
      <point x="151" y="0" type="line"/>
      <point x="631" y="0" type="line" smooth="yes"/>
      <point x="909" y="0"/>
      <point x="1079" y="142"/>
      <point x="1079" y="426" type="curve" smooth="yes"/>
      <point x="1079" y="742"/>
      <point x="897" y="872"/>
      <point x="626" y="872" type="curve" smooth="yes"/>
      <point x="308" y="872" type="line"/>
      <point x="308" y="1369" type="line"/>
      <point x="1013" y="1369" type="line"/>
      <point x="1013" y="1508" type="line"/>
      <point x="151" y="1508" type="line"/>
    </contour>
    <contour>
      <point x="308" y="140" type="line"/>
      <point x="308" y="732" type="line"/>
      <point x="628" y="732" type="line" smooth="yes"/>
      <point x="821" y="732"/>
      <point x="915" y="610"/>
      <point x="915" y="428" type="curve" smooth="yes"/>
      <point x="915" y="246"/>
      <point x="816" y="140"/>
      <point x="628" y="140" type="curve" smooth="yes"/>
    </contour>
  </outline>
</glyph>
<glyph name="afii10020" format="1">
  <advance width="909"/>
  <unicode hex="0413"/>
  <outline>
    <contour>
      <point x="149" y="0" type="line"/>
      <point x="307" y="0" type="line"/>
      <point x="307" y="1369" type="line"/>
      <point x="993" y="1369" type="line"/>
      <point x="1006" y="1508" type="line"/>
      <point x="149" y="1508" type="line"/>
    </contour>
  </outline>
</glyph>
<glyph name="afii10025" format="1">
  <advance width="1379"/>
  <unicode hex="0417"/>
  <outline>
    <contour>
      <point x="515" y="-23" type="curve" smooth="yes"/>
      <point x="856" y="-23"/>
      <point x="1030" y="146"/>
      <point x="1030" y="394" type="curve" smooth="yes"/>
      <point x="1030" y="590"/>
      <point x="886" y="742"/>
      <point x="745" y="767" type="curve"/>
      <point x="879" y="801"/>
      <point x="994" y="964"/>
      <point x="994" y="1134" type="curve" smooth="yes"/>
      <point x="994" y="1274"/>
      <point x="872" y="1519"/>
      <point x="553" y="1519" type="curve" smooth="yes"/>
      <point x="376" y="1519"/>
      <point x="221" y="1484"/>
      <point x="111" y="1405" type="curve"/>
      <point x="171" y="1287" type="line"/>
      <point x="263" y="1338"/>
      <point x="401" y="1389"/>
      <point x="542" y="1389" type="curve" smooth="yes"/>
      <point x="691" y="1389"/>
      <point x="824" y="1301"/>
      <point x="835" y="1120" type="curve" smooth="yes"/>
      <point x="835" y="1044"/>
      <point x="749" y="823"/>
      <point x="526" y="823" type="curve" smooth="yes"/>
      <point x="414" y="823" type="line"/>
      <point x="414" y="680" type="line"/>
      <point x="516" y="680" type="line" smooth="yes"/>
      <point x="783" y="680"/>
      <point x="867" y="535"/>
      <point x="867" y="392" type="curve" smooth="yes"/>
      <point x="867" y="181"/>
      <point x="685" y="106"/>
      <point x="511" y="106" type="curve" smooth="yes"/>
      <point x="362" y="106"/>
      <point x="216" y="159"/>
      <point x="131" y="222" type="curve"/>
      <point x="75" y="94" type="line"/>
      <point x="175" y="34"/>
      <point x="318" y="-23"/>
    </contour>
  </outline>
</glyph>
<glyph name="afii10026" format="1">
  <advance width="1492"/>
  <unicode hex="0418"/>
  <outline>
    <contour>
      <point x="151" y="0" type="line"/>
      <point x="342" y="0" type="line"/>
      <point x="1198" y="1315" type="line"/>
      <point x="1198" y="0" type="line"/>
      <point x="1340" y="0" type="line"/>
      <point x="1340" y="1510" type="line"/>
      <point x="1157" y="1510" type="line"/>
      <point x="1142" y="1485"/>
      <point x="1129" y="1491"/>
      <point x="1114" y="1467" type="curve"/>
      <point x="803" y="980"/>
      <point x="599" y="704"/>
      <point x="296" y="211" type="curve"/>
      <point x="296" y="1510" type="line"/>
      <point x="151" y="1510" type="line"/>
    </contour>
  </outline>
</glyph>
<glyph name="afii10033" format="1">
  <advance width="1464"/>
  <unicode hex="041F"/>
  <outline>
    <contour>
      <point x="151" y="0" type="line"/>
      <point x="308" y="0" type="line"/>
      <point x="308" y="1368" type="line"/>
      <point x="1155" y="1368" type="line"/>
      <point x="1155" y="0" type="line"/>
      <point x="1313" y="0" type="line"/>
      <point x="1313" y="1508" type="line"/>
      <point x="151" y="1508" type="line"/>
    </contour>
  </outline>
</glyph>
<glyph name="afii10038" format="1">
  <advance width="1708"/>
  <unicode hex="0424"/>
  <outline>
    <contour>
      <point x="773" y="0" type="line"/>
      <point x="915" y="0" type="line"/>
      <point x="915" y="115" type="line"/>
      <point x="1346" y="151"/>
      <point x="1602" y="358"/>
      <point x="1602" y="742" type="curve" smooth="yes"/>
      <point x="1602" y="1129"/>
      <point x="1346" y="1339"/>
      <point x="915" y="1375" type="curve"/>
      <point x="915" y="1508" type="line"/>
      <point x="773" y="1508" type="line"/>
      <point x="774" y="1373" type="line"/>
      <point x="336" y="1326"/>
      <point x="105" y="1103"/>
      <point x="105" y="742" type="curve" smooth="yes"/>
      <point x="105" y="384"/>
      <point x="336" y="164"/>
      <point x="774" y="117" type="curve"/>
    </contour>
    <contour>
      <point x="774" y="258" type="line"/>
      <point x="433" y="302"/>
      <point x="278" y="470"/>
      <point x="278" y="744" type="curve" smooth="yes"/>
      <point x="278" y="1019"/>
      <point x="433" y="1188"/>
      <point x="774" y="1232" type="curve"/>
    </contour>
    <contour>
      <point x="915" y="257" type="curve"/>
      <point x="915" y="1235" type="line"/>
      <point x="1273" y="1195"/>
      <point x="1429" y="1020"/>
      <point x="1429" y="744" type="curve" smooth="yes"/>
      <point x="1429" y="470"/>
      <point x="1273" y="296"/>
    </contour>
  </outline>
</glyph>
<glyph name="afii10040" format="1">
  <advance width="1476"/>
  <unicode hex="0426"/>
  <outline>
    <contour>
      <point x="1254" y="-241" type="line"/>
      <point x="1415" y="-241" type="line"/>
      <point x="1415" y="171" type="line"/>
      <point x="1306" y="171" type="line"/>
      <point x="1306" y="1508" type="line"/>
      <point x="1149" y="1508" type="line"/>
      <point x="1149" y="142" type="line"/>
      <point x="308" y="142" type="line"/>
      <point x="308" y="1508" type="line"/>
      <point x="151" y="1508" type="line"/>
      <point x="151" y="0" type="line"/>
      <point x="1254" y="0" type="line"/>
    </contour>
  </outline>
</glyph>
<glyph name="afii10041" format="1">
  <advance width="1112"/>
  <unicode hex="0427"/>
  <outline>
    <contour>
      <point x="880" y="-3" type="line"/>
      <point x="1043" y="-3" type="line"/>
      <point x="1043" y="1510" type="line"/>
      <point x="880" y="1510" type="line"/>
      <point x="880" y="892" type="line"/>
      <point x="880" y="809"/>
      <point x="703" y="643"/>
      <point x="535" y="643" type="curve" smooth="yes"/>
      <point x="362" y="643"/>
      <point x="278" y="765"/>
      <point x="278" y="1015" type="curve" smooth="yes"/>
      <point x="278" y="1510" type="line"/>
      <point x="111" y="1510" type="line"/>
      <point x="111" y="894" type="line" smooth="yes"/>
      <point x="111" y="662"/>
      <point x="253" y="491"/>
      <point x="483" y="491" type="curve" smooth="yes"/>
      <point x="645" y="491"/>
      <point x="787" y="561"/>
      <point x="880" y="708" type="curve"/>
    </contour>
  </outline>
</glyph>
<glyph name="afii10042" format="1">
  <advance width="1635"/>
  <unicode hex="0428"/>
  <outline>
    <contour>
      <point x="151" y="0" type="line"/>
      <point x="1483" y="0" type="line"/>
      <point x="1483" y="1508" type="line"/>
      <point x="1326" y="1508" type="line"/>
      <point x="1326" y="142" type="line"/>
      <point x="890" y="142" type="line"/>
      <point x="890" y="1508" type="line"/>
      <point x="733" y="1508" type="line"/>
      <point x="733" y="142" type="line"/>
      <point x="308" y="142" type="line"/>
      <point x="308" y="1508" type="line"/>
      <point x="151" y="1508" type="line"/>
    </contour>
  </outline>
</glyph>
<glyph name="afii10043" format="1">
  <advance width="1700"/>
  <unicode hex="0429"/>
  <outline>
    <contour>
      <point x="1427" y="-241" type="line"/>
      <point x="1591" y="-241" type="line"/>
      <point x="1591" y="171" type="line"/>
      <point x="1484" y="171" type="line"/>
      <point x="1484" y="1508" type="line"/>
      <point x="1327" y="1508" type="line"/>
      <point x="1327" y="142" type="line"/>
      <point x="892" y="142" type="line"/>
      <point x="892" y="1508" type="line"/>
      <point x="734" y="1508" type="line"/>
      <point x="734" y="142" type="line"/>
      <point x="308" y="142" type="line"/>
      <point x="308" y="1508" type="line"/>
      <point x="151" y="1508" type="line"/>
      <point x="151" y="0" type="line"/>
      <point x="1428" y="0" type="line"/>
    </contour>
  </outline>
</glyph>
<glyph name="afii10044" format="1">
  <advance width="1397"/>
  <unicode hex="042A"/>
  <outline>
    <contour>
      <point x="427" y="-3" type="line"/>
      <point x="786" y="-3" type="line" smooth="yes"/>
      <point x="1124" y="-3"/>
      <point x="1320" y="131"/>
      <point x="1320" y="410" type="curve" smooth="yes"/>
      <point x="1320" y="689"/>
      <point x="1139" y="822"/>
      <point x="788" y="822" type="curve" smooth="yes"/>
      <point x="591" y="822" type="line"/>
      <point x="591" y="1510" type="line"/>
      <point x="33" y="1510" type="line"/>
      <point x="33" y="1369" type="line"/>
      <point x="427" y="1369" type="line"/>
    </contour>
    <contour>
      <point x="591" y="138" type="line"/>
      <point x="591" y="685" type="line"/>
      <point x="809" y="685" type="line" smooth="yes"/>
      <point x="1071" y="685"/>
      <point x="1167" y="581"/>
      <point x="1167" y="417" type="curve" smooth="yes"/>
      <point x="1167" y="236"/>
      <point x="1062" y="138"/>
      <point x="807" y="138" type="curve" smooth="yes"/>
    </contour>
  </outline>
</glyph>
<glyph name="afii10046" format="1">
  <advance width="1112"/>
  <unicode hex="042C"/>
  <outline>
    <contour>
      <point x="140" y="-3" type="line"/>
      <point x="423" y="-3" type="line" smooth="yes"/>
      <point x="805" y="-3"/>
      <point x="980" y="172"/>
      <point x="980" y="422" type="curve" smooth="yes"/>
      <point x="980" y="684"/>
      <point x="759" y="822"/>
      <point x="416" y="822" type="curve" smooth="yes"/>
      <point x="305" y="822" type="line"/>
      <point x="305" y="1510" type="line"/>
      <point x="140" y="1510" type="line"/>
    </contour>
    <contour>
      <point x="305" y="137" type="line"/>
      <point x="305" y="685" type="line"/>
      <point x="435" y="685" type="line" smooth="yes"/>
      <point x="709" y="685"/>
      <point x="826" y="590"/>
      <point x="826" y="417" type="curve" smooth="yes"/>
      <point x="826" y="236"/>
      <point x="705" y="137"/>
      <point x="443" y="137" type="curve" smooth="yes"/>
    </contour>
  </outline>
</glyph>
<glyph name="afii10047" format="1">
  <advance width="1310"/>
  <unicode hex="042D"/>
  <outline>
    <contour>
      <point x="508" y="-24" type="curve" smooth="yes"/>
      <point x="982" y="-24"/>
      <point x="1210" y="324"/>
      <point x="1210" y="763" type="curve" smooth="yes"/>
      <point x="1210" y="1177"/>
      <point x="991" y="1536"/>
      <point x="513" y="1536" type="curve" smooth="yes"/>
      <point x="308" y="1536"/>
      <point x="164" y="1495"/>
      <point x="72" y="1409" type="curve"/>
      <point x="124" y="1281" type="line"/>
      <point x="200" y="1343"/>
      <point x="334" y="1402"/>
      <point x="489" y="1402" type="curve" smooth="yes"/>
      <point x="882" y="1402"/>
      <point x="1024" y="1113"/>
      <point x="1036" y="808" type="curve"/>
      <point x="341" y="808" type="line"/>
      <point x="341" y="669" type="line"/>
      <point x="1033" y="669" type="line"/>
      <point x="1006" y="373"/>
      <point x="837" y="110"/>
      <point x="502" y="110" type="curve" smooth="yes"/>
      <point x="344" y="110"/>
      <point x="203" y="167"/>
      <point x="125" y="229" type="curve"/>
      <point x="65" y="113" type="line"/>
      <point x="158" y="29"/>
      <point x="304" y="-24"/>
    </contour>
  </outline>
</glyph>
<glyph name="afii10048" format="1">
  <advance width="2123"/>
  <unicode hex="042E"/>
  <outline>
    <contour>
      <point x="1282" y="-24" type="curve" smooth="yes"/>
      <point x="1700" y="-24"/>
      <point x="1933" y="324"/>
      <point x="1933" y="745" type="curve" smooth="yes"/>
      <point x="1933" y="1200"/>
      <point x="1688" y="1536"/>
      <point x="1271" y="1536" type="curve" smooth="yes"/>
      <point x="885" y="1536"/>
      <point x="665" y="1248"/>
      <point x="635" y="833" type="curve"/>
      <point x="305" y="833" type="line"/>
      <point x="305" y="1508" type="line"/>
      <point x="140" y="1508" type="line"/>
      <point x="140" y="-3" type="line"/>
      <point x="305" y="-3" type="line"/>
      <point x="305" y="696" type="line"/>
      <point x="633" y="696" type="line"/>
      <point x="661" y="299"/>
      <point x="888" y="-24"/>
    </contour>
    <contour>
      <point x="1284" y="110" type="curve" smooth="yes"/>
      <point x="968" y="110"/>
      <point x="806" y="344"/>
      <point x="806" y="748" type="curve"/>
      <point x="806" y="1086"/>
      <point x="960" y="1402"/>
      <point x="1274" y="1402" type="curve" smooth="yes"/>
      <point x="1599" y="1402"/>
      <point x="1757" y="1076"/>
      <point x="1757" y="751" type="curve" smooth="yes"/>
      <point x="1757" y="407"/>
      <point x="1599" y="110"/>
    </contour>
  </outline>
</glyph>
<glyph name="afii10049" format="1">
  <advance width="1302"/>
  <unicode hex="042F"/>
  <outline>
    <contour>
      <point x="46" y="0" type="curve"/>
      <point x="230" y="0" type="line"/>
      <point x="431" y="417" type="line" smooth="yes"/>
      <point x="424" y="398"/>
      <point x="547" y="661"/>
      <point x="547" y="661" type="curve"/>
      <point x="591" y="657"/>
      <point x="644" y="649"/>
      <point x="814" y="649" type="curve" smooth="yes"/>
      <point x="994" y="649" type="line"/>
      <point x="994" y="0" type="line"/>
      <point x="1151" y="0" type="line"/>
      <point x="1151" y="1508" type="line"/>
      <point x="678" y="1508" type="line" smooth="yes"/>
      <point x="304" y="1508"/>
      <point x="106" y="1361"/>
      <point x="106" y="1083" type="curve" smooth="yes"/>
      <point x="106" y="894"/>
      <point x="213" y="753"/>
      <point x="383" y="688" type="curve"/>
      <point x="393" y="705"/>
      <point x="341" y="599"/>
      <point x="275" y="466" type="curve" smooth="yes"/>
      <point x="182" y="269"/>
      <point x="98" y="119"/>
    </contour>
    <contour>
      <point x="631" y="788" type="line"/>
      <point x="336" y="788"/>
      <point x="259" y="910"/>
      <point x="259" y="1082" type="curve" smooth="yes"/>
      <point x="259" y="1267"/>
      <point x="367" y="1368"/>
      <point x="632" y="1368" type="curve" smooth="yes"/>
      <point x="994" y="1368" type="line"/>
      <point x="994" y="788" type="line"/>
    </contour>
  </outline>
</glyph>
<glyph name="afii10066" format="1">
  <advance width="999"/>
  <unicode hex="0431"/>
  <outline>
    <contour>
      <point x="117" y="0" type="line"/>
      <point x="550" y="0" type="line" smooth="yes"/>
      <point x="827" y="0"/>
      <point x="941" y="201"/>
      <point x="941" y="370" type="curve" smooth="yes"/>
      <point x="941" y="535"/>
      <point x="833" y="717"/>
      <point x="552" y="717" type="curve" smooth="yes"/>
      <point x="266" y="717" type="line"/>
      <point x="266" y="972" type="line"/>
      <point x="830" y="972" type="line"/>
      <point x="830" y="1098" type="line"/>
      <point x="117" y="1098" type="line"/>
    </contour>
    <contour>
      <point x="266" y="118" type="line"/>
      <point x="266" y="595" type="line"/>
      <point x="576" y="595" type="line" smooth="yes"/>
      <point x="713" y="595"/>
      <point x="794" y="478"/>
      <point x="794" y="373" type="curve" smooth="yes"/>
      <point x="794" y="271"/>
      <point x="714" y="118"/>
      <point x="575" y="118" type="curve" smooth="yes"/>
    </contour>
  </outline>
</glyph>
<glyph name="afii10067" format="1">
  <advance width="1015"/>
  <unicode hex="0432"/>
  <outline>
    <contour>
      <point x="117" y="0" type="line"/>
      <point x="549" y="0" type="line" smooth="yes"/>
      <point x="833" y="0"/>
      <point x="950" y="164"/>
      <point x="950" y="315" type="curve" smooth="yes"/>
      <point x="944" y="407"/>
      <point x="892" y="516"/>
      <point x="773" y="575" type="curve"/>
      <point x="875" y="630"/>
      <point x="915" y="725"/>
      <point x="915" y="811" type="curve" smooth="yes"/>
      <point x="915" y="942"/>
      <point x="817" y="1098"/>
      <point x="553" y="1098" type="curve" smooth="yes"/>
      <point x="117" y="1098" type="line"/>
    </contour>
    <contour>
      <point x="266" y="118" type="line"/>
      <point x="266" y="507" type="line"/>
      <point x="558" y="507" type="line" smooth="yes"/>
      <point x="714" y="507"/>
      <point x="797" y="412"/>
      <point x="803" y="325" type="curve" smooth="yes"/>
      <point x="803" y="199"/>
      <point x="714" y="118"/>
      <point x="558" y="118" type="curve" smooth="yes"/>
    </contour>
    <contour>
      <point x="266" y="634" type="line"/>
      <point x="266" y="972" type="line"/>
      <point x="560" y="972" type="line" smooth="yes"/>
      <point x="700" y="972"/>
      <point x="769" y="901"/>
      <point x="769" y="802" type="curve" smooth="yes"/>
      <point x="769" y="721"/>
      <point x="701" y="634"/>
      <point x="560" y="634" type="curve" smooth="yes"/>
    </contour>
  </outline>
</glyph>
<glyph name="afii10068" format="1">
  <advance width="650"/>
  <unicode hex="0433"/>
  <outline>
    <contour>
      <point x="117" y="0" type="line"/>
      <point x="266" y="0" type="line"/>
      <point x="266" y="973" type="line"/>
      <point x="640" y="973" type="line"/>
      <point x="640" y="1098" type="line"/>
      <point x="117" y="1098" type="line"/>
    </contour>
  </outline>
</glyph>
<glyph name="afii10069" format="1">
  <advance width="1080"/>
  <unicode hex="0434"/>
  <outline>
    <contour>
      <point x="4" y="-245" type="line"/>
      <point x="147" y="-245" type="line"/>
      <point x="145" y="0" type="line"/>
      <point x="856" y="0" type="line"/>
      <point x="852" y="-245" type="line"/>
      <point x="1003" y="-245" type="line"/>
      <point x="1003" y="117" type="line"/>
      <point x="923" y="117" type="line"/>
      <point x="923" y="1098" type="line"/>
      <point x="251" y="1098" type="line"/>
      <point x="213" y="510" type="line" smooth="yes"/>
      <point x="204" y="416"/>
      <point x="189" y="213"/>
      <point x="103" y="119" type="curve"/>
      <point x="4" y="119" type="line"/>
    </contour>
    <contour>
      <point x="269" y="117" type="line"/>
      <point x="326" y="231"/>
      <point x="361" y="452"/>
      <point x="371" y="611" type="curve" smooth="yes"/>
      <point x="371" y="611"/>
      <point x="385" y="986"/>
      <point x="385" y="974" type="curve"/>
      <point x="774" y="974" type="line"/>
      <point x="774" y="117" type="line"/>
    </contour>
  </outline>
</glyph>
<glyph name="afii10072" format="1">
  <advance width="1491"/>
  <unicode hex="0436"/>
  <outline>
    <contour>
      <point x="15" y="0" type="line"/>
      <point x="199" y="0" type="line"/>
      <point x="671" y="519" type="line"/>
      <point x="671" y="0" type="line"/>
      <point x="820" y="0" type="line"/>
      <point x="820" y="519" type="line"/>
      <point x="1292" y="0" type="line"/>
      <point x="1476" y="0" type="line"/>
      <point x="959" y="565" type="line"/>
      <point x="1467" y="1098" type="line"/>
      <point x="1291" y="1098" type="line"/>
      <point x="820" y="584" type="line"/>
      <point x="820" y="1098" type="line"/>
      <point x="671" y="1098" type="line"/>
      <point x="671" y="584" type="line"/>
      <point x="200" y="1098" type="line"/>
      <point x="23" y="1098" type="line"/>
      <point x="533" y="565" type="line"/>
    </contour>
  </outline>
</glyph>
<glyph name="afii10073" format="1">
  <advance width="946"/>
  <unicode hex="0437"/>
  <outline>
    <contour>
      <point x="413" y="-26" type="curve" smooth="yes"/>
      <point x="744" y="-26"/>
      <point x="856" y="148"/>
      <point x="856" y="313" type="curve" smooth="yes"/>
      <point x="850" y="419"/>
      <point x="811" y="533"/>
      <point x="651" y="577" type="curve"/>
      <point x="795" y="638"/>
      <point x="820" y="734"/>
      <point x="820" y="824" type="curve" smooth="yes"/>
      <point x="820" y="964"/>
      <point x="728" y="1134"/>
      <point x="420" y="1134" type="curve" smooth="yes"/>
      <point x="295" y="1134"/>
      <point x="150" y="1103"/>
      <point x="70" y="1014" type="curve"/>
      <point x="78" y="996"/>
      <point x="129" y="906"/>
      <point x="129" y="906" type="curve"/>
      <point x="174" y="954"/>
      <point x="307" y="1010"/>
      <point x="416" y="1010" type="curve" smooth="yes"/>
      <point x="597" y="1010"/>
      <point x="671" y="922"/>
      <point x="671" y="817" type="curve" smooth="yes"/>
      <point x="671" y="735"/>
      <point x="614" y="632"/>
      <point x="470" y="632" type="curve" smooth="yes"/>
      <point x="283" y="632" type="line"/>
      <point x="283" y="515" type="line"/>
      <point x="470" y="515" type="line" smooth="yes"/>
      <point x="633" y="515"/>
      <point x="705" y="409"/>
      <point x="705" y="314" type="curve" smooth="yes"/>
      <point x="705" y="196"/>
      <point x="610" y="97"/>
      <point x="426" y="97" type="curve" smooth="yes"/>
      <point x="312" y="97"/>
      <point x="196" y="125"/>
      <point x="129" y="184" type="curve"/>
      <point x="120" y="160"/>
      <point x="79" y="110"/>
      <point x="69" y="86" type="curve"/>
      <point x="143" y="2"/>
      <point x="296" y="-26"/>
    </contour>
  </outline>
</glyph>
<glyph name="afii10074" format="1">
  <advance width="1103"/>
  <unicode hex="0438"/>
  <outline>
    <contour>
      <point x="117" y="0" type="line"/>
      <point x="260" y="0" type="line"/>
      <point x="832" y="778" type="line"/>
      <point x="832" y="0" type="line"/>
      <point x="985" y="0" type="line"/>
      <point x="985" y="1098" type="line"/>
      <point x="832" y="1098" type="line"/>
      <point x="832" y="998" type="line"/>
      <point x="269" y="229" type="line"/>
      <point x="269" y="1098" type="line"/>
      <point x="117" y="1098" type="line"/>
    </contour>
  </outline>
</glyph>
<glyph name="afii10076" format="1">
  <advance width="969"/>
  <unicode hex="043A"/>
  <outline>
    <contour>
      <point x="117" y="0" type="line"/>
      <point x="266" y="0" type="line"/>
      <point x="266" y="486" type="line"/>
      <point x="753" y="0" type="line"/>
      <point x="957" y="0" type="line"/>
      <point x="395" y="542" type="line"/>
      <point x="395" y="542"/>
      <point x="478" y="615"/>
      <point x="468" y="601" type="curve"/>
      <point x="653" y="793"/>
      <point x="744" y="973"/>
      <point x="847" y="973" type="curve" smooth="yes"/>
      <point x="867" y="973"/>
      <point x="881" y="971"/>
      <point x="912" y="966" type="curve"/>
      <point x="912" y="1099" type="line"/>
      <point x="870" y="1108"/>
      <point x="864" y="1110"/>
      <point x="846" y="1110" type="curve" smooth="yes"/>
      <point x="682" y="1110"/>
      <point x="639" y="1021"/>
      <point x="446" y="792" type="curve" smooth="yes"/>
      <point x="458" y="810"/>
      <point x="266" y="590"/>
      <point x="266" y="590" type="curve"/>
      <point x="266" y="1098" type="line"/>
      <point x="117" y="1098" type="line"/>
    </contour>
  </outline>
</glyph>
<glyph name="afii10077" format="1">
  <advance width="1160"/>
  <unicode hex="043B"/>
  <outline>
    <contour>
      <point x="34" y="-24" type="line"/>
      <point x="71" y="-24" type="line" smooth="yes"/>
      <point x="382" y="-27"/>
      <point x="356" y="89"/>
      <point x="356" y="429" type="curve" smooth="yes"/>
      <point x="356" y="974" type="line"/>
      <point x="894" y="974" type="line"/>
      <point x="894" y="0" type="line"/>
      <point x="1043" y="0" type="line"/>
      <point x="1043" y="1098" type="line"/>
      <point x="208" y="1098" type="line"/>
      <point x="208" y="408" type="line" smooth="yes"/>
      <point x="208" y="171"/>
      <point x="209" y="107"/>
      <point x="73" y="112" type="curve"/>
      <point x="23" y="113" type="line"/>
    </contour>
  </outline>
</glyph>
<glyph name="afii10078" format="1">
  <advance width="1152"/>
  <unicode hex="043C"/>
  <outline>
    <contour>
      <point x="115" y="0" type="line"/>
      <point x="268" y="0" type="line"/>
      <point x="268" y="840" type="line"/>
      <point x="528" y="397" type="line"/>
      <point x="635" y="397" type="line"/>
      <point x="881" y="840" type="line"/>
      <point x="881" y="0" type="line"/>
      <point x="1034" y="0" type="line"/>
      <point x="1034" y="1098" type="line"/>
      <point x="905" y="1098" type="line"/>
      <point x="574" y="567" type="line"/>
      <point x="245" y="1098" type="line"/>
      <point x="115" y="1098" type="line"/>
    </contour>
  </outline>
</glyph>
<glyph name="afii10079" format="1">
  <advance width="1100"/>
  <unicode hex="043D"/>
  <outline>
    <contour>
      <point x="117" y="0" type="line"/>
      <point x="266" y="0" type="line"/>
      <point x="266" y="525" type="line"/>
      <point x="833" y="525" type="line"/>
      <point x="833" y="0" type="line"/>
      <point x="982" y="0" type="line"/>
      <point x="982" y="1098" type="line"/>
      <point x="833" y="1098" type="line"/>
      <point x="833" y="642" type="line"/>
      <point x="266" y="642" type="line"/>
      <point x="266" y="1098" type="line"/>
      <point x="117" y="1098" type="line"/>
    </contour>
  </outline>
</glyph>
<glyph name="afii10081" format="1">
  <advance width="1192"/>
  <unicode hex="043F"/>
  <outline>
    <contour>
      <point x="160" y="0" type="line"/>
      <point x="309" y="0" type="line"/>
      <point x="309" y="973" type="line"/>
      <point x="878" y="973" type="line"/>
      <point x="878" y="0" type="line"/>
      <point x="1027" y="0" type="line"/>
      <point x="1027" y="1098" type="line"/>
      <point x="160" y="1098" type="line"/>
    </contour>
  </outline>
</glyph>
<glyph name="afii10084" format="1">
  <advance width="836"/>
  <unicode hex="0442"/>
  <outline>
    <contour>
      <point x="348" y="0" type="line"/>
      <point x="497" y="0" type="line"/>
      <point x="497" y="968" type="line"/>
      <point x="787" y="968" type="line"/>
      <point x="787" y="1098" type="line"/>
      <point x="50" y="1098" type="line"/>
      <point x="50" y="968" type="line"/>
      <point x="348" y="968" type="line"/>
    </contour>
  </outline>
</glyph>
<glyph name="afii10085" format="1">
  <advance width="1092"/>
  <unicode hex="0443"/>
  <outline>
    <contour>
      <point x="129" y="-410" type="line"/>
      <point x="172" y="-410" type="line" smooth="yes"/>
      <point x="555" y="-410"/>
      <point x="530" y="-286"/>
      <point x="647" y="43" type="curve" smooth="yes"/>
      <point x="1025" y="1098" type="line"/>
      <point x="863" y="1098" type="line"/>
      <point x="549" y="161" type="line"/>
      <point x="221" y="1098" type="line"/>
      <point x="54" y="1098" type="line"/>
      <point x="457" y="28" type="line"/>
      <point x="380" y="-207"/>
      <point x="386" y="-254"/>
      <point x="176" y="-254" type="curve" smooth="yes"/>
      <point x="103" y="-254" type="line"/>
    </contour>
  </outline>
</glyph>
<glyph name="afii10086" format="1">
  <advance width="1393"/>
  <unicode hex="0444"/>
  <outline>
    <contour>
      <point x="621" y="-198" type="line"/>
      <point x="770" y="-198" type="line"/>
      <point x="770" y="69" type="line"/>
      <point x="824" y="45"/>
      <point x="863" y="38"/>
      <point x="915" y="38" type="curve" smooth="yes"/>
      <point x="1143" y="38"/>
      <point x="1306" y="269"/>
      <point x="1306" y="560" type="curve" smooth="yes"/>
      <point x="1306" y="854"/>
      <point x="1148" y="1063"/>
      <point x="918" y="1063" type="curve" smooth="yes"/>
      <point x="866" y="1063"/>
      <point x="824" y="1048"/>
      <point x="770" y="1025" type="curve"/>
      <point x="770" y="1330" type="line"/>
      <point x="621" y="1330" type="line"/>
      <point x="621" y="1025" type="line"/>
      <point x="566" y="1048"/>
      <point x="522" y="1063"/>
      <point x="471" y="1063" type="curve" smooth="yes"/>
      <point x="240" y="1063"/>
      <point x="86" y="853"/>
      <point x="86" y="560" type="curve" smooth="yes"/>
      <point x="86" y="267"/>
      <point x="246" y="38"/>
      <point x="473" y="38" type="curve" smooth="yes"/>
      <point x="525" y="38"/>
      <point x="566" y="45"/>
      <point x="621" y="69" type="curve"/>
    </contour>
    <contour>
      <point x="478" y="162" type="curve"/>
      <point x="333" y="162"/>
      <point x="247" y="354"/>
      <point x="247" y="559" type="curve" smooth="yes"/>
      <point x="247" y="766"/>
      <point x="326" y="940"/>
      <point x="471" y="940" type="curve" smooth="yes"/>
      <point x="521" y="940"/>
      <point x="561" y="936"/>
      <point x="621" y="906" type="curve"/>
      <point x="621" y="196" type="line"/>
      <point x="565" y="169"/>
      <point x="528" y="162"/>
    </contour>
    <contour>
      <point x="912" y="162" type="curve" smooth="yes"/>
      <point x="862" y="162"/>
      <point x="826" y="168"/>
      <point x="770" y="199" type="curve"/>
      <point x="770" y="900" type="line"/>
      <point x="829" y="931"/>
      <point x="866" y="940"/>
      <point x="918" y="940" type="curve" smooth="yes"/>
      <point x="1062" y="940"/>
      <point x="1145" y="766"/>
      <point x="1145" y="559" type="curve" smooth="yes"/>
      <point x="1145" y="354"/>
      <point x="1055" y="162"/>
    </contour>
  </outline>
</glyph>
<glyph name="afii10088" format="1">
  <advance width="1084"/>
  <unicode hex="0446"/>
  <outline>
    <contour>
      <point x="914" y="-247" type="line"/>
      <point x="1030" y="-247" type="line"/>
      <point x="1030" y="146" type="line"/>
      <point x="936" y="146" type="line"/>
      <point x="936" y="1098" type="line"/>
      <point x="787" y="1098" type="line"/>
      <point x="787" y="115" type="line"/>
      <point x="281" y="115" type="line"/>
      <point x="281" y="1098" type="line"/>
      <point x="132" y="1098" type="line"/>
      <point x="132" y="0" type="line"/>
      <point x="906" y="0" type="line"/>
    </contour>
  </outline>
</glyph>
<glyph name="afii10089" format="1">
  <advance width="999"/>
  <unicode hex="0447"/>
  <outline>
    <contour>
      <point x="732" y="0" type="line"/>
      <point x="881" y="0" type="line"/>
      <point x="881" y="1098" type="line"/>
      <point x="732" y="1098" type="line"/>
      <point x="732" y="758" type="line" smooth="yes"/>
      <point x="692" y="591"/>
      <point x="574" y="526"/>
      <point x="474" y="526" type="curve" smooth="yes"/>
      <point x="317" y="526"/>
      <point x="225" y="590"/>
      <point x="225" y="859" type="curve" smooth="yes"/>
      <point x="225" y="1098" type="line"/>
      <point x="76" y="1098" type="line"/>
      <point x="76" y="850" type="line" smooth="yes"/>
      <point x="76" y="573"/>
      <point x="203" y="401"/>
      <point x="446" y="402" type="curve"/>
      <point x="569" y="402"/>
      <point x="687" y="459"/>
      <point x="732" y="567" type="curve"/>
    </contour>
  </outline>
</glyph>
<glyph name="afii10090" format="1">
  <advance width="1288"/>
  <unicode hex="0448"/>
  <outline>
    <contour>
      <point x="117" y="0" type="line"/>
      <point x="1169" y="0" type="line"/>
      <point x="1169" y="1098" type="line"/>
      <point x="1016" y="1098" type="line"/>
      <point x="1016" y="127" type="line"/>
      <point x="719" y="127" type="line"/>
      <point x="719" y="1098" type="line"/>
      <point x="567" y="1098" type="line"/>
      <point x="567" y="127" type="line"/>
      <point x="269" y="127" type="line"/>
      <point x="269" y="1098" type="line"/>
      <point x="117" y="1098" type="line"/>
    </contour>
  </outline>
</glyph>
<glyph name="afii10091" format="1">
  <advance width="1335"/>
  <unicode hex="0449"/>
  <outline>
    <contour>
      <point x="1144" y="-208" type="line"/>
      <point x="1265" y="-208" type="line"/>
      <point x="1265" y="143" type="line"/>
      <point x="1169" y="143" type="line"/>
      <point x="1169" y="1098" type="line"/>
      <point x="1016" y="1098" type="line"/>
      <point x="1016" y="115" type="line"/>
      <point x="719" y="115" type="line"/>
      <point x="719" y="1098" type="line"/>
      <point x="567" y="1098" type="line"/>
      <point x="567" y="115" type="line"/>
      <point x="269" y="115" type="line"/>
      <point x="269" y="1098" type="line"/>
      <point x="117" y="1098" type="line"/>
      <point x="117" y="0" type="line"/>
      <point x="1148" y="0" type="line"/>
    </contour>
  </outline>
</glyph>
<glyph name="afii10092" format="1">
  <advance width="1144"/>
  <unicode hex="044A"/>
  <outline>
    <contour>
      <point x="270" y="0" type="line"/>
      <point x="719" y="0" type="line" smooth="yes"/>
      <point x="993" y="0"/>
      <point x="1093" y="173"/>
      <point x="1093" y="332" type="curve" smooth="yes"/>
      <point x="1093" y="476"/>
      <point x="993" y="644"/>
      <point x="714" y="644" type="curve" smooth="yes"/>
      <point x="419" y="644" type="line"/>
      <point x="419" y="1098" type="line"/>
      <point x="32" y="1098" type="line"/>
      <point x="32" y="971" type="line"/>
      <point x="270" y="971" type="line"/>
    </contour>
    <contour>
      <point x="418" y="118" type="line"/>
      <point x="418" y="522" type="line"/>
      <point x="742" y="522" type="line" smooth="yes"/>
      <point x="879" y="522"/>
      <point x="946" y="417"/>
      <point x="946" y="331" type="curve" smooth="yes"/>
      <point x="946" y="237"/>
      <point x="887" y="118"/>
      <point x="748" y="118" type="curve" smooth="yes"/>
    </contour>
  </outline>
</glyph>
